<?xml version="1.0" encoding="utf-8"?>
<!-- Generator: Adobe Illustrator 25.4.1, SVG Export Plug-In . SVG Version: 6.00 Build 0)  -->
<svg version="1.1" id="Слой_1" xmlns="http://www.w3.org/2000/svg" xmlns:xlink="http://www.w3.org/1999/xlink" x="0px" y="0px"
	 viewBox="0 0 710 653.37" style="enable-background:new 0 0 710 653.37;" xml:space="preserve">
<style type="text/css">
	.st0{fill:#BF381D;}
	.st1{fill:#FFFFFF;}
	.st2{fill:#DA6513;}
	.st3{fill:#EE9100;}
	.st4{fill:#FBBF00;}
	.st5{fill:#FFED26;}
	.st6{fill:#979899;}
</style>
<g>
	<g>
		<g>
			<path class="st0" d="M423.5,606.7c-4.75-0.02-9.56-0.17-14.3-0.45c-4.74-0.28-9.54-0.7-14.25-1.25
				c-4.73-0.55-9.49-1.24-14.16-2.04c-4.66-0.81-9.38-1.76-14.02-2.84c-4.63-1.07-9.29-2.29-13.84-3.62
				c-4.57-1.33-9.15-2.81-13.61-4.39c-4.46-1.58-8.95-3.31-13.34-5.15c-2.7-1.13-5.44-2.33-8.12-3.57c-1.26-0.58-2.2-1.61-2.67-2.91
				c-0.46-1.28-0.38-2.67,0.21-3.89c0.84-1.72,2.61-2.84,4.53-2.84c0.72,0,1.43,0.15,2.09,0.46
				c32.18,14.83,66.58,22.35,102.27,22.35l1.12,0c65.33-0.29,126.55-25.82,172.4-71.88c45.84-46.06,71.09-107.4,71.09-172.73
				c0-64.44-24.85-125.27-69.96-171.27c-45.05-45.94-105.25-71.96-169.5-73.29c-2.7-0.06-4.9-2.31-4.9-5.03
				c0-2.83,2.27-5.09,5.07-5.09l0.11,0c2.94,0.06,5.92,0.18,8.87,0.34c4.74,0.27,9.54,0.67,14.25,1.2c4.72,0.53,9.49,1.21,14.16,2
				c4.68,0.8,9.4,1.74,14.03,2.79c4.62,1.06,9.28,2.26,13.85,3.58c4.57,1.32,9.16,2.78,13.63,4.35c4.48,1.57,8.97,3.29,13.36,5.11
				c4.38,1.82,8.78,3.78,13.05,5.85c4.28,2.06,8.55,4.27,12.7,6.57c4.16,2.3,8.3,4.75,12.32,7.27c4.02,2.53,8.02,5.2,11.89,7.95
				c3.87,2.75,7.72,5.65,11.42,8.61c3.7,2.96,7.38,6.06,10.92,9.24c3.54,3.17,7.04,6.48,10.39,9.83c3.35,3.36,6.66,6.86,9.82,10.4
				c3.16,3.54,6.26,7.22,9.22,10.94c2.96,3.72,5.85,7.56,8.59,11.44c2.74,3.87,5.41,7.88,7.93,11.9c2.53,4.03,4.97,8.17,7.25,12.33
				c2.3,4.17,4.5,8.44,6.55,12.71c2.05,4.28,4.02,8.67,5.83,13.06c1.82,4.4,3.53,8.9,5.08,13.37c1.56,4.48,3.02,9.06,4.33,13.63
				c1.31,4.56,2.5,9.22,3.55,13.85c1.05,4.61,1.98,9.34,2.77,14.03c0.79,4.67,1.45,9.44,1.98,14.16c0.52,4.72,0.92,9.52,1.18,14.25
				c0.26,4.75,0.39,9.56,0.38,14.3c-0.01,4.75-0.15,9.56-0.42,14.3c-0.27,4.75-0.69,9.54-1.22,14.25
				c-0.54,4.71-1.22,9.48-2.02,14.16c-0.81,4.69-1.75,9.41-2.82,14.02c-1.07,4.63-2.28,9.29-3.6,13.84
				c-1.33,4.57-2.79,9.15-4.37,13.62c-1.58,4.48-3.3,8.97-5.13,13.35c-1.82,4.38-3.8,8.77-5.87,13.04
				c-2.07,4.27-4.28,8.54-6.59,12.7c-2.31,4.16-4.76,8.3-7.29,12.3c-2.54,4.02-5.22,8.01-7.97,11.88
				c-2.76,3.87-5.66,7.71-8.63,11.41c-2.96,3.69-6.07,7.36-9.25,10.91c-3.17,3.54-6.49,7.02-9.85,10.37
				c-3.36,3.35-6.86,6.64-10.42,9.8c-3.54,3.15-7.23,6.25-10.95,9.2c-3.72,2.95-7.57,5.83-11.45,8.57
				c-3.88,2.74-7.89,5.4-11.91,7.92c-4.04,2.52-8.19,4.96-12.34,7.24c-4.16,2.29-8.45,4.48-12.72,6.53
				c-4.3,2.05-8.7,4.01-13.07,5.81c-4.38,1.8-8.88,3.51-13.38,5.06c-4.48,1.55-9.07,3-13.64,4.31c-4.58,1.3-9.24,2.49-13.86,3.53
				c-4.64,1.05-9.37,1.97-14.04,2.75c-4.68,0.78-9.45,1.44-14.17,1.96c-4.72,0.52-9.51,0.91-14.26,1.16
				c-4.48,0.24-9.02,0.36-13.52,0.36L423.5,606.7z"/>
			<path class="st1" d="M429.6,97.53l0.11,0c2.94,0.06,5.92,0.18,8.86,0.34c4.74,0.27,9.53,0.67,14.24,1.2
				c4.71,0.53,9.47,1.2,14.15,2c4.67,0.79,9.39,1.73,14.01,2.79c4.62,1.06,9.28,2.26,13.84,3.57c4.56,1.31,9.14,2.78,13.61,4.34
				c4.48,1.57,8.97,3.28,13.35,5.1c4.38,1.82,8.77,3.78,13.04,5.84c4.27,2.06,8.54,4.27,12.69,6.56c4.15,2.3,8.29,4.74,12.3,7.27
				c4.01,2.53,8.01,5.2,11.88,7.95c3.87,2.75,7.71,5.64,11.41,8.6c3.71,2.96,7.38,6.06,10.91,9.23c3.53,3.16,7.02,6.47,10.38,9.82
				c3.35,3.36,6.65,6.85,9.81,10.39c3.16,3.54,6.26,7.21,9.21,10.93c2.95,3.71,5.84,7.55,8.58,11.42c2.74,3.87,5.41,7.87,7.93,11.89
				c2.52,4.02,4.96,8.16,7.25,12.31c2.29,4.15,4.49,8.43,6.54,12.7c2.05,4.27,4.01,8.66,5.82,13.05c1.81,4.38,3.52,8.88,5.08,13.36
				c1.56,4.48,3.02,9.06,4.32,13.62c1.31,4.56,2.5,9.22,3.55,13.84c1.05,4.63,1.98,9.34,2.77,14.02c0.79,4.68,1.45,9.44,1.98,14.15
				c0.52,4.71,0.92,9.5,1.18,14.24c0.26,4.74,0.39,9.54,0.38,14.28c-0.01,4.74-0.15,9.55-0.42,14.28
				c-0.27,4.73-0.69,9.52-1.22,14.24c-0.54,4.71-1.22,9.47-2.02,14.15c-0.8,4.68-1.75,9.39-2.81,14.01
				c-1.06,4.62-2.27,9.28-3.59,13.83c-1.32,4.55-2.79,9.13-4.36,13.61c-1.58,4.47-3.3,8.96-5.12,13.34
				c-1.82,4.38-3.8,8.76-5.86,13.03c-2.07,4.27-4.28,8.54-6.58,12.68c-2.3,4.15-4.75,8.28-7.29,12.29c-2.53,4.01-5.21,8-7.96,11.86
				c-2.75,3.86-5.65,7.7-8.62,11.4c-2.97,3.7-6.08,7.37-9.24,10.9c-3.17,3.53-6.48,7.02-9.84,10.36c-3.36,3.34-6.86,6.64-10.41,9.79
				c-3.54,3.15-7.23,6.25-10.94,9.19c-3.71,2.95-7.56,5.83-11.44,8.56c-3.88,2.74-7.88,5.4-11.9,7.91
				c-4.02,2.51-8.17,4.94-12.33,7.23c-4.16,2.28-8.43,4.48-12.71,6.53c-4.28,2.05-8.67,4-13.06,5.8c-4.39,1.8-8.88,3.51-13.36,5.06
				c-4.48,1.55-9.07,3-13.63,4.3c-4.56,1.3-9.22,2.49-13.85,3.53c-4.63,1.04-9.34,1.97-14.02,2.75c-4.68,0.78-9.44,1.44-14.15,1.96
				c-4.72,0.52-9.51,0.91-14.24,1.16c-4.48,0.24-9.02,0.36-13.5,0.36l-0.79,0c-4.74-0.01-9.55-0.16-14.28-0.45
				c-4.74-0.28-9.52-0.7-14.23-1.25c-4.71-0.55-9.47-1.23-14.14-2.04c-4.67-0.81-9.38-1.76-14.01-2.83
				c-4.62-1.07-9.27-2.29-13.82-3.62c-4.55-1.33-9.13-2.8-13.6-4.39c-4.47-1.58-8.96-3.31-13.33-5.14
				c-2.71-1.13-5.44-2.33-8.12-3.56c-1.19-0.55-2.1-1.53-2.54-2.76c-0.44-1.22-0.37-2.53,0.2-3.7c0.8-1.64,2.48-2.7,4.3-2.7
				c0.69,0,1.35,0.15,1.98,0.44c32.21,14.85,66.65,22.37,102.37,22.37c0.37,0,0.75,0,1.13,0c33.06-0.15,65.07-6.71,95.13-19.5
				c29.05-12.36,55.11-30.01,77.45-52.45c22.34-22.44,39.86-48.58,52.09-77.69c12.65-30.12,19.07-62.16,19.07-95.22
				c0-64.51-24.87-125.39-70.03-171.44c-21.96-22.39-47.59-40.14-76.17-52.73c-29.54-13.02-61-19.96-93.5-20.63
				c-2.57-0.05-4.66-2.2-4.66-4.83C424.78,99.68,426.95,97.53,429.6,97.53 M429.6,97.03c-2.93,0-5.32,2.35-5.32,5.29v0.05
				c0,2.86,2.28,5.22,5.15,5.28c132.58,2.74,239.22,111.07,239.22,244.31c0,134.94-108.3,243.75-243.24,244.36
				c-0.37,0-0.75,0-1.12,0c-36.47,0-71.08-8-102.16-22.33c-0.71-0.33-1.46-0.48-2.19-0.48c-1.96,0-3.84,1.1-4.75,2.98v0
				c-1.3,2.68-0.13,5.89,2.58,7.14c2.69,1.24,5.4,2.43,8.13,3.57c4.4,1.84,8.86,3.56,13.36,5.15c4.5,1.59,9.04,3.06,13.63,4.39
				c4.58,1.34,9.2,2.54,13.85,3.62c4.65,1.08,9.33,2.02,14.03,2.84c4.7,0.81,9.43,1.5,14.17,2.05c4.74,0.55,9.5,0.97,14.26,1.25
				c4.77,0.28,9.54,0.43,14.31,0.45c0.26,0,0.52,0,0.79,0c4.51,0,9.02-0.12,13.53-0.36c4.77-0.25,9.52-0.64,14.27-1.16
				c4.75-0.52,9.47-1.17,14.18-1.96c4.71-0.79,9.39-1.7,14.05-2.75c4.66-1.05,9.28-2.23,13.87-3.54c4.59-1.31,9.14-2.75,13.65-4.31
				c4.51-1.56,8.97-3.25,13.39-5.07c4.42-1.82,8.78-3.75,13.08-5.81c4.31-2.06,8.55-4.24,12.74-6.54c4.18-2.3,8.3-4.71,12.35-7.24
				c4.05-2.53,8.02-5.17,11.92-7.92c3.9-2.75,7.72-5.61,11.46-8.58c3.74-2.97,7.39-6.04,10.96-9.21c3.57-3.17,7.04-6.44,10.43-9.81
				s6.67-6.83,9.86-10.38c3.19-3.55,6.28-7.19,9.26-10.92c2.98-3.73,5.86-7.53,8.63-11.42c2.77-3.89,5.43-7.85,7.98-11.89
				c2.55-4.04,4.98-8.14,7.3-12.32c2.32-4.17,4.52-8.41,6.6-12.71c2.08-4.3,4.04-8.65,5.87-13.06c1.84-4.41,3.55-8.86,5.13-13.37
				c1.59-4.5,3.04-9.05,4.37-13.63c1.33-4.59,2.53-9.2,3.6-13.86c1.07-4.65,2.01-9.33,2.82-14.04c0.81-4.71,1.48-9.43,2.03-14.17
				c0.54-4.74,0.95-9.5,1.23-14.26c0.28-4.77,0.42-9.54,0.42-14.31c0.01-4.77-0.12-9.54-0.38-14.31c-0.26-4.77-0.65-9.52-1.18-14.27
				c-0.53-4.74-1.19-9.47-1.98-14.18c-0.79-4.71-1.72-9.39-2.77-14.05c-1.06-4.66-2.24-9.28-3.56-13.87
				c-1.32-4.59-2.76-9.14-4.33-13.65c-1.57-4.51-3.27-8.97-5.09-13.38c-1.82-4.41-3.77-8.77-5.83-13.07
				c-2.07-4.3-4.25-8.55-6.56-12.73s-4.73-8.29-7.26-12.34c-2.54-4.04-5.18-8.02-7.94-11.91c-2.76-3.9-5.63-7.71-8.6-11.45
				c-2.97-3.74-6.05-7.38-9.23-10.95c-3.18-3.56-6.45-7.03-9.83-10.41c-3.37-3.38-6.84-6.66-10.4-9.84
				c-3.56-3.18-7.2-6.27-10.93-9.24c-3.73-2.98-7.54-5.85-11.43-8.62c-3.89-2.77-7.86-5.42-11.9-7.96
				c-4.04-2.54-8.15-4.97-12.33-7.28c-4.18-2.31-8.42-4.5-12.72-6.58c-4.3-2.07-8.66-4.02-13.07-5.85
				c-4.41-1.83-8.87-3.53-13.37-5.11c-4.51-1.58-9.05-3.03-13.64-4.35c-4.59-1.32-9.21-2.52-13.86-3.58s-9.33-2-14.04-2.8
				c-4.71-0.8-9.43-1.47-14.18-2c-4.74-0.54-9.5-0.94-14.27-1.2c-2.96-0.17-5.91-0.28-8.87-0.34
				C429.68,97.03,429.64,97.03,429.6,97.03L429.6,97.03z"/>
		</g>
		<g>
			<path class="st2" d="M310.41,579.22c-0.8,0-1.58-0.19-2.3-0.56c-2.86-1.46-5.73-3-8.53-4.58c-4.36-2.45-8.71-5.06-12.93-7.77
				c-4.22-2.71-8.41-5.58-12.45-8.52c-4.04-2.95-8.06-6.06-11.92-9.24c-3.86-3.18-7.68-6.52-11.35-9.93
				c-3.67-3.41-7.29-6.97-10.74-10.59c-3.46-3.62-6.86-7.39-10.1-11.2c-3.24-3.81-6.41-7.78-9.42-11.78c-3.01-4-5.94-8.14-8.7-12.32
				c-2.77-4.18-5.45-8.49-7.96-12.81c-2.51-4.32-4.93-8.79-7.19-13.26c-2.25-4.47-4.4-9.07-6.39-13.66
				c-1.99-4.6-3.86-9.31-5.57-14.02c-1.71-4.7-3.3-9.52-4.73-14.32c-1.43-4.8-2.73-9.7-3.87-14.58c-0.73-3.13-1.42-6.32-2.03-9.47
				c-0.26-1.34,0.02-2.7,0.8-3.83c0.78-1.13,1.95-1.88,3.3-2.11c0.3-0.05,0.59-0.08,0.88-0.08c2.4,0,4.48,1.71,4.93,4.06
				c7.03,36.37,22.62,71.26,45.08,100.9c22.13,29.21,51.01,53.46,83.52,70.15c2.41,1.24,3.4,4.23,2.22,6.67
				C314.1,578.13,312.36,579.22,310.41,579.22L310.41,579.22z"/>
			<path class="st1" d="M179.21,394.85c2.28,0,4.25,1.62,4.69,3.86c7.04,36.41,22.64,71.33,45.12,101
				c22.15,29.23,51.06,53.52,83.61,70.22c2.29,1.17,3.23,4.02,2.1,6.34c-0.81,1.67-2.47,2.7-4.32,2.7c-0.76,0-1.5-0.18-2.18-0.53
				c-2.86-1.46-5.72-3-8.52-4.57c-4.36-2.45-8.71-5.06-12.92-7.76c-4.21-2.7-8.39-5.57-12.43-8.51c-4.04-2.95-8.05-6.05-11.91-9.23
				c-3.86-3.18-7.68-6.52-11.34-9.92c-3.66-3.4-7.28-6.96-10.73-10.58c-3.46-3.61-6.85-7.38-10.09-11.19
				c-3.24-3.81-6.4-7.77-9.41-11.77c-3.01-4-5.93-8.14-8.7-12.31c-2.76-4.17-5.44-8.48-7.95-12.8c-2.51-4.32-4.93-8.78-7.18-13.25
				c-2.25-4.47-4.4-9.06-6.38-13.65c-1.98-4.59-3.86-9.3-5.56-14c-1.71-4.7-3.3-9.51-4.73-14.31c-1.43-4.79-2.73-9.69-3.87-14.56
				c-0.73-3.13-1.41-6.31-2.03-9.46c-0.25-1.28,0.02-2.57,0.76-3.64c0.74-1.07,1.85-1.78,3.14-2.01
				C178.66,394.87,178.93,394.85,179.21,394.85 M179.21,394.35c-0.3,0-0.6,0.03-0.91,0.08l-0.01,0c-2.93,0.5-4.87,3.32-4.3,6.23
				c0.62,3.17,1.29,6.33,2.03,9.48c1.15,4.9,2.44,9.77,3.88,14.59c1.44,4.83,3.02,9.6,4.74,14.34c1.72,4.73,3.58,9.41,5.58,14.03
				c2,4.62,4.13,9.18,6.4,13.68c2.27,4.5,4.67,8.92,7.19,13.27c2.53,4.35,5.18,8.63,7.97,12.82c2.78,4.2,5.69,8.31,8.71,12.33
				c3.03,4.02,6.17,7.96,9.43,11.79c3.26,3.84,6.63,7.58,10.11,11.22c3.48,3.64,7.06,7.17,10.75,10.6
				c3.69,3.43,7.48,6.74,11.36,9.94c3.89,3.2,7.86,6.29,11.93,9.25c4.07,2.97,8.22,5.81,12.46,8.53s8.55,5.31,12.94,7.78
				c2.82,1.58,5.66,3.11,8.54,4.58c0.77,0.4,1.6,0.58,2.41,0.58c1.96,0,3.85-1.09,4.77-2.98c1.25-2.58,0.23-5.69-2.33-7
				c-65.64-33.7-114.04-96.23-128.47-170.87C183.9,396.1,181.69,394.35,179.21,394.35L179.21,394.35z"/>
		</g>
		<g>
			<path class="st3" d="M177.38,394.26c-2.47,0-4.61-1.85-4.98-4.31c-0.78-5.19-1.41-10.47-1.87-15.71
				c-0.62-7.02-0.94-14.16-0.97-21.21c-0.03-7.06,0.24-14.2,0.8-21.22c0.56-7.03,1.42-14.12,2.56-21.08
				c1.14-6.96,2.59-13.95,4.31-20.79c1.72-6.84,3.75-13.69,6.03-20.36c2.28-6.67,4.87-13.33,7.7-19.79
				c2.11-4.81,4.39-9.62,6.8-14.29c0.87-1.7,2.6-2.75,4.5-2.75c0.83,0,1.66,0.21,2.39,0.61c2.39,1.29,3.33,4.3,2.09,6.71
				c-17.95,34.82-27.05,72.47-27.05,111.91c0,12.19,0.92,24.48,2.72,36.53c0.4,2.67-1.45,5.23-4.12,5.69
				C177.96,394.23,177.67,394.26,177.38,394.26C177.38,394.26,177.38,394.26,177.38,394.26z"/>
			<path class="st1" d="M202.24,232.98c0.79,0,1.57,0.2,2.27,0.58c2.27,1.23,3.16,4.09,1.98,6.38
				c-17.96,34.85-27.07,72.55-27.07,112.03c0,12.2,0.92,24.5,2.73,36.57c0.38,2.54-1.38,4.96-3.95,5.41
				c-0.27,0.05-0.55,0.07-0.82,0.07c-2.35,0-4.39-1.76-4.74-4.09c-0.78-5.19-1.41-10.47-1.87-15.7c-0.62-7.02-0.94-14.15-0.97-21.19
				c-0.03-7.05,0.24-14.18,0.8-21.2c0.56-7.02,1.42-14.11,2.56-21.06c1.14-6.95,2.59-13.94,4.3-20.77
				c1.72-6.83,3.74-13.68,6.02-20.34c2.28-6.67,4.87-13.32,7.69-19.77c2.11-4.81,4.39-9.61,6.79-14.28
				C198.79,233.98,200.43,232.98,202.24,232.98 M202.24,232.48c-1.92,0-3.78,1.05-4.72,2.88c-2.41,4.7-4.68,9.47-6.8,14.31
				c-2.85,6.5-5.41,13.1-7.71,19.81c-2.29,6.71-4.3,13.51-6.03,20.38c-1.73,6.88-3.16,13.82-4.31,20.82c-1.15,7-2,14.03-2.56,21.1
				c-0.56,7.07-0.83,14.15-0.8,21.24c0.03,7.09,0.35,14.17,0.97,21.23c0.46,5.26,1.09,10.51,1.87,15.73
				c0.4,2.63,2.66,4.52,5.23,4.52c0.3,0,0.6-0.03,0.91-0.08l0.03-0.01c2.82-0.49,4.75-3.14,4.33-5.97
				c-1.79-11.91-2.72-24.09-2.72-36.49c0-40.29,9.75-78.3,27.02-111.8c1.31-2.55,0.33-5.68-2.19-7.05l0,0
				C203.95,232.68,203.09,232.48,202.24,232.48L202.24,232.48z"/>
		</g>
		<g>
			<path class="st4" d="M207.27,233.51c-0.83,0-1.66-0.21-2.4-0.61c-1.2-0.65-2.07-1.73-2.45-3.05c-0.38-1.32-0.21-2.7,0.47-3.89
				c2.36-4.15,4.87-8.29,7.47-12.31c3.57-5.52,7.4-10.97,11.39-16.2c3.99-5.23,8.23-10.36,12.61-15.27
				c4.38-4.9,9.01-9.69,13.76-14.24c4.75-4.55,9.74-8.96,14.83-13.13c5.09-4.17,10.41-8.18,15.8-11.94
				c5.4-3.76,11.01-7.35,16.68-10.67c4.12-2.42,8.37-4.75,12.62-6.93c0.72-0.37,1.5-0.56,2.3-0.56c1.95,0,3.69,1.09,4.55,2.84
				c1.19,2.44,0.2,5.44-2.21,6.67c-42.46,21.81-77.41,55.26-101.06,96.75C210.75,232.54,209.07,233.51,207.27,233.51L207.27,233.51z
				"/>
			<path class="st1" d="M310.36,124.98c1.86,0,3.51,1.03,4.32,2.7c1.13,2.32,0.19,5.17-2.1,6.34
				c-42.5,21.83-77.49,55.32-101.16,96.84c-0.84,1.48-2.43,2.4-4.15,2.4c-0.79,0-1.58-0.2-2.28-0.58c-1.14-0.62-1.97-1.65-2.33-2.9
				c-0.36-1.25-0.2-2.57,0.44-3.7c2.36-4.15,4.87-8.28,7.46-12.29c3.57-5.52,7.39-10.96,11.38-16.18
				c3.98-5.22,8.22-10.35,12.6-15.25c4.38-4.9,9-9.68,13.75-14.23c4.74-4.54,9.73-8.95,14.81-13.11
				c5.08-4.16,10.39-8.17,15.79-11.92c5.39-3.75,11-7.34,16.66-10.66c4.12-2.42,8.36-4.74,12.61-6.92
				C308.86,125.15,309.59,124.98,310.36,124.98 M310.36,124.48c-0.81,0-1.64,0.19-2.42,0.59c-4.27,2.19-8.49,4.5-12.63,6.93
				c-5.7,3.34-11.27,6.91-16.7,10.68c-5.43,3.78-10.7,7.76-15.82,11.95c-5.12,4.19-10.06,8.57-14.84,13.14
				c-4.78,4.57-9.37,9.32-13.78,14.25c-4.41,4.93-8.62,10.02-12.63,15.28c-4.01,5.26-7.81,10.66-11.4,16.22
				c-2.61,4.04-5.1,8.14-7.48,12.32c-1.47,2.58-0.53,5.87,2.08,7.28l0,0c0.8,0.43,1.67,0.64,2.52,0.64c1.83,0,3.61-0.95,4.58-2.65
				c23.5-41.21,58.65-74.92,100.96-96.65c2.55-1.31,3.57-4.42,2.32-7v0C314.21,125.57,312.32,124.48,310.36,124.48L310.36,124.48z"
				/>
		</g>
		<g>
			<path class="st5" d="M319.88,130.18c-1.91,0-3.69-1.11-4.53-2.84c-0.6-1.23-0.67-2.61-0.21-3.89c0.46-1.3,1.41-2.33,2.67-2.91
				c7.05-3.24,14.34-6.2,21.66-8.79c1.43-0.51,2.87-0.99,4.31-1.47l0.52-0.18c0.21-0.07,1.18-0.37,1.18-0.37
				c1.23-0.4,2.46-0.78,3.69-1.16c1.55-0.48,3.11-0.94,4.67-1.39l0.95-0.28l0.17-0.04l1.12-0.32c0.64-0.19,1.28-0.37,1.92-0.54
				c4.59-1.24,9.27-2.36,13.91-3.33c2.93-0.62,6.07-1.2,9.85-1.84c0.78-0.13,1.56-0.26,2.34-0.39l0.82-0.14
				c0.35-0.06,0.71-0.12,1.06-0.18l0.92-0.13c2.94-0.44,5.84-0.83,8.62-1.14c7.72-0.88,15.57-1.41,23.33-1.57l0.11,0
				c2.8,0,5.07,2.26,5.07,5.04c0,2.77-2.2,5.02-4.91,5.08c-12.23,0.25-24.55,1.44-36.64,3.52l-0.29,0.04
				c-8.53,1.48-17.06,3.44-25.35,5.81c-1.31,0.38-2.61,0.76-3.91,1.16l-1.05,0.32c-1.05,0.33-2.1,0.66-3.15,1l-1.25,0.41
				c-1.01,0.33-2.01,0.67-3.02,1.02l-1.21,0.42c-1.18,0.41-2.35,0.84-3.52,1.27l-0.62,0.22c-5.8,2.15-11.57,4.55-17.16,7.13
				C321.3,130.03,320.6,130.18,319.88,130.18z"/>
			<path class="st1" d="M418.96,97.53c2.66,0,4.82,2.15,4.82,4.84c0,2.58-2.09,4.73-4.67,4.78c-12.15,0.25-24.4,1.42-36.41,3.48
				l0-0.01l-0.55,0.1c-8.54,1.48-17.08,3.44-25.38,5.82c-1.25,0.36-2.57,0.75-3.91,1.16l-0.74,0.23l-0.31,0.1
				c-1.05,0.33-2.11,0.66-3.15,1c-0.42,0.13-0.83,0.27-1.25,0.41c-1.01,0.33-2.02,0.68-3.02,1.02l-0.43,0.15
				c-0.26,0.09-0.52,0.18-0.78,0.27c-1.18,0.41-2.35,0.84-3.52,1.27l-0.28,0.1l-0.33,0.12c-5.8,2.15-11.58,4.55-17.18,7.14
				c-0.63,0.29-1.29,0.44-1.97,0.44c-1.82,0-3.51-1.06-4.3-2.7c-0.57-1.16-0.64-2.48-0.2-3.7c0.44-1.23,1.34-2.22,2.54-2.77
				c7.04-3.24,14.33-6.19,21.64-8.78c1.31-0.46,2.72-0.94,4.3-1.47l0.26-0.09c0.09-0.03,0.17-0.06,0.26-0.09
				c0.21-0.07,0.41-0.13,0.62-0.2c0.19-0.06,0.37-0.12,0.56-0.18c1.23-0.4,2.45-0.78,3.69-1.16c1.44-0.45,2.97-0.9,4.66-1.39
				l0.49-0.14c0.06-0.02,0.13-0.04,0.19-0.06l0,0l0.43-0.12c0.37-0.11,0.75-0.21,1.12-0.32c0.64-0.18,1.27-0.37,1.91-0.54
				c4.58-1.23,9.26-2.35,13.9-3.33c2.94-0.62,6.06-1.2,9.84-1.84c0.78-0.13,1.56-0.26,2.34-0.39c0.28-0.04,0.56-0.09,0.83-0.14
				c0.35-0.06,0.7-0.12,1.04-0.17c0.16-0.02,0.32-0.05,0.48-0.07c0.15-0.02,0.29-0.04,0.44-0.06c2.95-0.44,5.85-0.83,8.61-1.14
				c7.71-0.88,15.55-1.4,23.3-1.57L418.96,97.53 M418.96,97.03c-0.04,0-0.08,0-0.12,0c-7.8,0.17-15.59,0.69-23.35,1.57
				c-2.89,0.33-5.76,0.71-8.63,1.14c-0.31,0.05-0.62,0.08-0.92,0.13c-0.63,0.1-1.25,0.21-1.88,0.31c-0.78,0.13-1.56,0.26-2.34,0.39
				c-3.3,0.56-6.59,1.16-9.86,1.84c-4.67,0.98-9.31,2.09-13.92,3.33c-1.02,0.27-2.03,0.58-3.04,0.87c0,0,0,0,0-0.01
				c-0.37,0.11-0.75,0.22-1.12,0.33c-1.56,0.45-3.12,0.91-4.67,1.39c-1.23,0.38-2.47,0.77-3.69,1.16c-0.39,0.13-0.79,0.24-1.18,0.37
				c-0.17,0.06-0.34,0.12-0.52,0.18c-1.44,0.48-2.88,0.97-4.31,1.47c-7.37,2.6-14.6,5.53-21.69,8.8c-2.71,1.25-3.88,4.46-2.58,7.14
				c0.91,1.88,2.79,2.98,4.75,2.98c0.73,0,1.48-0.15,2.18-0.48c5.6-2.58,11.32-4.96,17.14-7.12c0.2-0.08,0.41-0.15,0.62-0.22
				c1.17-0.43,2.34-0.85,3.52-1.27c0.4-0.14,0.81-0.28,1.21-0.42c1-0.35,2.01-0.69,3.01-1.02c0.41-0.14,0.83-0.27,1.24-0.41
				c1.05-0.34,2.1-0.67,3.15-1c0.35-0.11,0.7-0.22,1.05-0.32c1.3-0.4,2.6-0.78,3.91-1.16c8.37-2.4,16.82-4.33,25.33-5.81
				c0,0,0,0,0,0.01c12.02-2.09,24.34-3.31,36.89-3.57c2.87-0.06,5.16-2.41,5.16-5.28v-0.05C424.28,99.38,421.89,97.03,418.96,97.03
				L418.96,97.03z"/>
		</g>
	</g>
	<path class="st1" d="M237.72,510.21c-0.87,0-1.7-0.16-2.48-0.49c-0.29-0.12-0.57-0.26-0.84-0.42c-0.65,0.44-1.43,0.68-2.24,0.68
		h-1.37c-1.08,0-2.1-0.43-2.84-1.18c-0.58,0.4-1.23,0.72-1.94,0.96c-0.89,0.3-1.89,0.45-2.98,0.45c-0.45,0-0.92-0.04-1.38-0.1
		c-0.42-0.06-0.81-0.14-1.17-0.23c-0.34-0.09-0.63-0.18-0.89-0.26c-0.3-0.1-0.55-0.2-0.78-0.3c-0.64,0.43-1.4,0.68-2.23,0.68h-1.4
		c-2.21,0-4-1.79-4-4v-3.58c-0.88-0.41-1.61-1.13-2.01-2.09l-0.44-1.05c-0.41-1-0.41-2.12,0.02-3.11c0.42-0.99,1.23-1.77,2.24-2.16
		c0.32-0.12,0.64-0.29,0.95-0.48c0.22-0.14,0.42-0.32,0.62-0.55c0.76-0.88,1.86-1.38,3.02-1.38h0.99c0.93,0,1.78,0.32,2.46,0.85
		c0.68-0.53,1.53-0.85,2.46-0.85h5.01c0.64,0,1.24,0.15,1.77,0.41c0.11-0.05,0.23-0.11,0.34-0.15c0.78-0.32,1.61-0.49,2.48-0.49
		c0.87,0,1.7,0.16,2.48,0.49c0.29,0.12,0.57,0.26,0.84,0.42c0.65-0.44,1.43-0.68,2.24-0.68h1.36c1.42,0,2.74,0.75,3.45,1.98
		c0.72,1.23,0.73,2.75,0.03,3.98l-0.15,0.26c0.36,0.26,0.7,0.55,1,0.88c0.58,0.63,1.02,1.38,1.32,2.23
		c0.27,0.77,0.41,1.61,0.41,2.52s-0.14,1.75-0.41,2.52c-0.3,0.85-0.75,1.6-1.33,2.23c-0.61,0.66-1.34,1.18-2.17,1.52
		C239.42,510.04,238.59,510.21,237.72,510.21z M229.95,499.36l1.92-3.41c-0.25-0.07-0.5-0.11-0.75-0.11c-0.2,0-0.4,0.02-0.59,0.07
		v0.86c0,0.87-0.28,1.67-0.74,2.33C229.85,499.18,229.9,499.27,229.95,499.36z M194.32,314.12c-0.87,0-1.7-0.16-2.48-0.48
		c-0.29-0.12-0.57-0.26-0.84-0.42c-0.65,0.44-1.43,0.68-2.24,0.68h-1.37c-1.1,0-2.13-0.45-2.87-1.22c-0.73,0.75-1.75,1.22-2.87,1.22
		h-1.4c-1.53,0-2.86-0.86-3.53-2.12c-0.67,1.26-2,2.12-3.53,2.12h-1.4c-2.21,0-4-1.79-4-4v-3.57c-0.88-0.41-1.61-1.14-2.01-2.09
		l-0.44-1.05c-0.41-1-0.41-2.12,0.02-3.11c0.42-0.99,1.23-1.77,2.24-2.16c0.32-0.12,0.64-0.29,0.95-0.49
		c0.22-0.14,0.42-0.32,0.61-0.54c0.76-0.88,1.86-1.38,3.03-1.38h0.99c1.53,0,2.85,0.85,3.53,2.11c0.1-0.06,0.2-0.12,0.3-0.18
		c0.22-0.14,0.42-0.32,0.61-0.54c0.76-0.88,1.86-1.38,3.03-1.38h0.99c0.94,0,1.79,0.32,2.48,0.86c0.35-0.24,0.72-0.44,1.11-0.6
		c0.78-0.32,1.61-0.48,2.48-0.48c0.87,0,1.7,0.16,2.48,0.48c0.29,0.12,0.57,0.26,0.84,0.42c0.65-0.44,1.43-0.68,2.24-0.68h1.36
		c1.42,0,2.74,0.75,3.45,1.98c0.72,1.23,0.73,2.74,0.03,3.98l-0.15,0.26c0.36,0.25,0.69,0.55,1,0.88c0.59,0.64,1.03,1.39,1.33,2.24
		c0.27,0.77,0.41,1.62,0.41,2.52c0,0.9-0.14,1.75-0.41,2.52c-0.3,0.84-0.74,1.59-1.32,2.23c-0.62,0.67-1.35,1.19-2.18,1.53
		C196.02,313.96,195.19,314.12,194.32,314.12z M266.45,181.08c-0.87,0-1.7-0.16-2.48-0.48c-0.29-0.12-0.57-0.26-0.84-0.42
		c-0.65,0.44-1.43,0.68-2.24,0.68h-1.37c-1.07,0-2.08-0.43-2.82-1.17c-1.19,0.91-2.63,1.39-4.23,1.39c-1.62,0-3.08-0.5-4.28-1.44
		c-0.73,0.75-1.74,1.21-2.87,1.21h-1.4c-2.21,0-4-1.79-4-4v-3.57c-0.88-0.41-1.61-1.14-2.01-2.09l-0.44-1.05
		c-0.41-1-0.41-2.12,0.02-3.11c0.42-0.99,1.23-1.77,2.24-2.16c0.32-0.12,0.64-0.29,0.95-0.49c0.22-0.14,0.42-0.32,0.61-0.54
		c0.76-0.88,1.86-1.38,3.03-1.38h0.99c1.12,0,2.14,0.46,2.86,1.21c1.2-0.94,2.67-1.45,4.29-1.45c1.4,0,2.69,0.38,3.79,1.09
		c0.34-0.23,0.71-0.43,1.1-0.59c0.78-0.32,1.61-0.48,2.48-0.48s1.7,0.16,2.48,0.48c0.29,0.12,0.57,0.26,0.84,0.42
		c0.65-0.44,1.43-0.68,2.24-0.68h1.36c1.42,0,2.74,0.75,3.45,1.98c0.72,1.23,0.73,2.74,0.03,3.98l-0.15,0.26
		c0.36,0.25,0.7,0.55,1,0.88c0.58,0.64,1.03,1.39,1.33,2.23c0.27,0.77,0.41,1.62,0.41,2.52c0,0.9-0.14,1.75-0.41,2.52
		c-0.3,0.85-0.74,1.6-1.32,2.23c-0.61,0.67-1.35,1.18-2.18,1.53C268.15,180.92,267.31,181.08,266.45,181.08z M378.62,118.11
		c-0.87,0-1.7-0.16-2.48-0.48c-0.29-0.12-0.57-0.26-0.84-0.42c-0.65,0.44-1.43,0.68-2.24,0.68h-1.37c-1.42,0-2.74-0.75-3.45-1.98
		c-0.09-0.15-0.17-0.31-0.24-0.47c-0.61,1.45-2.04,2.45-3.69,2.45h-1.46c-1.11,0-2.17-0.46-2.93-1.28s-1.14-1.91-1.06-3.02
		c0.08-1.03,0.26-2.11,0.54-3.22c0.16-0.64,0.35-1.27,0.56-1.9c-1.55-0.55-2.66-2.03-2.66-3.77v-1.21c0-2.21,1.79-4,4-4h6.62
		c0.54,0,1.05,0.11,1.52,0.3c0.03-0.01,0.06-0.02,0.09-0.04c0.78-0.32,1.61-0.48,2.47-0.48s1.7,0.16,2.48,0.48
		c0.29,0.12,0.57,0.26,0.84,0.42c0.65-0.44,1.42-0.68,2.24-0.68h1.36c1.42,0,2.74,0.75,3.45,1.98c0.72,1.23,0.73,2.74,0.03,3.98
		l-0.15,0.26c0.36,0.26,0.7,0.55,1,0.88c0.58,0.63,1.02,1.38,1.32,2.23c0.27,0.77,0.41,1.62,0.41,2.52c0,0.9-0.14,1.75-0.41,2.52
		c-0.3,0.85-0.74,1.6-1.32,2.23c-0.61,0.67-1.34,1.18-2.17,1.53C380.32,117.95,379.49,118.11,378.62,118.11z M371.94,105.09
		c0,0.29-0.03,0.57-0.09,0.84l0.92-1.63c-0.25-0.07-0.5-0.11-0.75-0.11c-0.03,0-0.05,0-0.08,0V105.09z M498.48,118.21
		c-0.87,0-1.7-0.16-2.48-0.48c-0.29-0.12-0.57-0.26-0.84-0.42c-0.65,0.44-1.43,0.68-2.24,0.68h-1.37c-1.42,0-2.74-0.75-3.45-1.98
		c-0.09-0.15-0.17-0.31-0.24-0.47c-0.61,1.45-2.04,2.45-3.69,2.45h-1.46c-1,0-1.95-0.37-2.68-1.03c-0.52,0.33-1.1,0.61-1.72,0.81
		c-0.89,0.3-1.89,0.45-2.97,0.45c-0.46,0-0.92-0.03-1.38-0.1c-0.42-0.06-0.81-0.14-1.17-0.24c-0.32-0.08-0.62-0.17-0.87-0.26
		c-0.38-0.13-0.67-0.24-0.93-0.37c-1.63-0.83-2.5-2.65-2.1-4.44l0.27-1.21c0.11-0.49,0.3-0.94,0.57-1.35
		c-0.25-0.63-0.35-1.31-0.26-2c0.05-0.43,0.09-0.84,0.13-1.21l0.09-1.23c0.03-0.38,0.05-0.76,0.07-1.13l0.06-1.26
		c0.1-2.14,1.86-3.82,4-3.82h5.01c0.41,0,0.81,0.06,1.18,0.18c0.37-0.11,0.77-0.18,1.18-0.18h6.62c0.54,0,1.05,0.11,1.52,0.3
		c0.03-0.01,0.06-0.02,0.09-0.04c0.78-0.32,1.61-0.48,2.47-0.48s1.7,0.16,2.48,0.48c0.29,0.12,0.57,0.26,0.84,0.42
		c0.65-0.44,1.42-0.68,2.24-0.68h1.36c1.42,0,2.74,0.75,3.45,1.98c0.72,1.23,0.73,2.74,0.03,3.98l-0.15,0.26
		c0.36,0.26,0.7,0.55,1,0.88c0.58,0.63,1.02,1.38,1.32,2.23c0.27,0.77,0.41,1.62,0.41,2.52c0,0.9-0.14,1.75-0.41,2.52
		c-0.3,0.85-0.74,1.6-1.32,2.23c-0.61,0.67-1.34,1.18-2.17,1.53C500.18,118.04,499.34,118.21,498.48,118.21z M491.8,104.74
		c0,0.29-0.03,0.57-0.09,0.84l0.92-1.63c-0.25-0.07-0.5-0.11-0.75-0.11c-0.03,0-0.05,0-0.08,0V104.74z"/>
	<path d="M169.06,301.64c0.57-0.22,1.12-0.5,1.67-0.85c0.54-0.34,1.04-0.78,1.48-1.3h0.99v10.4h-1.4v-8.46
		c-0.12,0.11-0.27,0.22-0.44,0.34c-0.17,0.12-0.36,0.24-0.57,0.34c-0.21,0.11-0.42,0.22-0.65,0.32s-0.44,0.18-0.65,0.25
		L169.06,301.64z M177.52,301.64c0.57-0.22,1.12-0.5,1.67-0.85c0.54-0.34,1.04-0.78,1.48-1.3h0.99v10.4h-1.4v-8.46
		c-0.12,0.11-0.27,0.22-0.44,0.34c-0.17,0.12-0.36,0.24-0.57,0.34c-0.21,0.11-0.42,0.22-0.65,0.32s-0.44,0.18-0.65,0.25
		L177.52,301.64z M185.34,302.03c0-0.45,0.06-0.85,0.18-1.19c0.12-0.34,0.29-0.63,0.5-0.86c0.21-0.23,0.47-0.41,0.76-0.53
		s0.6-0.18,0.94-0.18s0.66,0.06,0.95,0.18s0.54,0.3,0.76,0.53c0.21,0.24,0.38,0.52,0.5,0.86c0.12,0.34,0.18,0.73,0.18,1.19
		s-0.06,0.85-0.18,1.19c-0.12,0.34-0.29,0.63-0.5,0.86c-0.21,0.23-0.47,0.41-0.76,0.53s-0.61,0.18-0.95,0.18s-0.65-0.06-0.94-0.18
		s-0.54-0.3-0.76-0.53c-0.22-0.24-0.38-0.52-0.5-0.86C185.4,302.88,185.34,302.48,185.34,302.03z M188.94,302.03
		c0-0.54-0.1-0.96-0.31-1.27s-0.51-0.46-0.9-0.46c-0.39,0-0.69,0.15-0.9,0.46s-0.31,0.73-0.31,1.27s0.1,0.96,0.31,1.27
		c0.21,0.31,0.51,0.46,0.9,0.46c0.39,0,0.69-0.15,0.9-0.46C188.83,303,188.94,302.57,188.94,302.03z M194.64,299.5l-5.86,10.4h-1.37
		l5.87-10.4H194.64z M191.94,307.36c0-0.45,0.06-0.84,0.18-1.19c0.12-0.34,0.29-0.63,0.5-0.86c0.21-0.23,0.47-0.41,0.76-0.53
		s0.6-0.18,0.94-0.18s0.65,0.06,0.95,0.18c0.29,0.12,0.54,0.3,0.76,0.53c0.21,0.24,0.38,0.52,0.5,0.86
		c0.12,0.34,0.18,0.74,0.18,1.19s-0.06,0.84-0.18,1.18c-0.12,0.34-0.29,0.63-0.5,0.86c-0.22,0.23-0.47,0.41-0.76,0.53
		c-0.29,0.12-0.61,0.18-0.95,0.18s-0.65-0.06-0.94-0.18s-0.54-0.3-0.76-0.53c-0.22-0.24-0.38-0.52-0.5-0.86
		C192,308.2,191.94,307.81,191.94,307.36z M195.54,307.36c0-0.54-0.1-0.96-0.32-1.27c-0.21-0.3-0.51-0.46-0.9-0.46
		c-0.39,0-0.69,0.15-0.9,0.46s-0.31,0.73-0.31,1.27s0.1,0.96,0.31,1.27s0.51,0.46,0.9,0.46c0.39,0,0.69-0.15,0.9-0.46
		C195.43,308.32,195.54,307.9,195.54,307.36z M241.19,168.6c0.57-0.22,1.12-0.5,1.67-0.85c0.54-0.34,1.04-0.78,1.48-1.3h0.99v10.4
		h-1.4v-8.46c-0.12,0.11-0.27,0.23-0.44,0.34c-0.17,0.12-0.36,0.24-0.57,0.35c-0.21,0.11-0.42,0.22-0.65,0.31
		c-0.23,0.1-0.44,0.19-0.65,0.25L241.19,168.6z M249,171.65c0-1.74,0.31-3.08,0.92-4.02c0.62-0.94,1.47-1.41,2.56-1.41
		s1.94,0.47,2.56,1.41c0.61,0.94,0.92,2.28,0.92,4.02c0,1.74-0.31,3.08-0.92,4.02c-0.62,0.94-1.47,1.41-2.56,1.41
		s-1.94-0.47-2.56-1.41C249.31,174.73,249,173.39,249,171.65z M254.5,171.65c0-0.57-0.03-1.11-0.1-1.62
		c-0.07-0.51-0.18-0.95-0.33-1.33c-0.16-0.38-0.36-0.68-0.62-0.91c-0.26-0.23-0.58-0.34-0.96-0.34c-0.38,0-0.7,0.11-0.96,0.34
		c-0.26,0.23-0.47,0.53-0.62,0.91c-0.16,0.38-0.27,0.83-0.33,1.33c-0.06,0.51-0.1,1.05-0.1,1.62c0,0.57,0.03,1.11,0.1,1.62
		c0.06,0.51,0.17,0.96,0.33,1.33c0.15,0.38,0.36,0.68,0.62,0.91c0.26,0.22,0.58,0.34,0.96,0.34c0.38,0,0.7-0.11,0.96-0.34
		c0.26-0.23,0.47-0.53,0.62-0.91c0.15-0.38,0.26-0.83,0.33-1.33C254.46,172.76,254.5,172.22,254.5,171.65z M257.46,168.99
		c0-0.45,0.06-0.85,0.18-1.19c0.12-0.34,0.29-0.63,0.5-0.86c0.21-0.23,0.47-0.41,0.76-0.53s0.6-0.18,0.94-0.18s0.66,0.06,0.95,0.18
		s0.54,0.3,0.76,0.53c0.21,0.24,0.38,0.52,0.5,0.86c0.12,0.34,0.18,0.73,0.18,1.19c0,0.45-0.06,0.85-0.18,1.19
		c-0.12,0.34-0.29,0.63-0.5,0.86s-0.47,0.41-0.76,0.53c-0.29,0.12-0.61,0.18-0.95,0.18s-0.65-0.06-0.94-0.18
		c-0.29-0.12-0.54-0.3-0.76-0.53c-0.22-0.23-0.38-0.52-0.5-0.86C257.52,169.84,257.46,169.44,257.46,168.99z M261.06,168.99
		c0-0.54-0.1-0.96-0.31-1.27s-0.51-0.46-0.9-0.46c-0.39,0-0.69,0.15-0.9,0.46s-0.31,0.73-0.31,1.27s0.1,0.96,0.31,1.27
		s0.51,0.46,0.9,0.46c0.39,0,0.69-0.15,0.9-0.46S261.06,169.53,261.06,168.99z M266.76,166.46l-5.86,10.4h-1.37l5.87-10.4H266.76z
		 M264.06,174.32c0-0.45,0.06-0.84,0.18-1.19c0.12-0.34,0.29-0.63,0.5-0.86c0.21-0.23,0.47-0.41,0.76-0.53
		c0.29-0.12,0.6-0.18,0.94-0.18s0.65,0.06,0.95,0.18c0.29,0.12,0.54,0.3,0.76,0.53c0.21,0.23,0.38,0.52,0.5,0.86
		c0.12,0.34,0.18,0.74,0.18,1.19c0,0.45-0.06,0.85-0.18,1.19c-0.12,0.34-0.29,0.63-0.5,0.86c-0.22,0.23-0.47,0.41-0.76,0.53
		c-0.29,0.12-0.61,0.18-0.95,0.18s-0.65-0.06-0.94-0.18s-0.54-0.3-0.76-0.53c-0.22-0.23-0.38-0.52-0.5-0.86
		C264.12,175.16,264.06,174.77,264.06,174.32z M267.67,174.32c0-0.54-0.1-0.96-0.32-1.27c-0.21-0.3-0.51-0.46-0.9-0.46
		c-0.39,0-0.69,0.15-0.9,0.46c-0.21,0.31-0.31,0.73-0.31,1.27s0.1,0.96,0.31,1.27c0.21,0.31,0.51,0.46,0.9,0.46
		c0.39,0,0.69-0.15,0.9-0.46C267.56,175.28,267.67,174.86,267.67,174.32z M362.87,113.88c0.06-0.8,0.2-1.64,0.43-2.53
		c0.22-0.89,0.5-1.75,0.83-2.58s0.69-1.61,1.09-2.33c0.39-0.71,0.78-1.3,1.16-1.75h-5.05v-1.21h6.62v1.15
		c-0.33,0.38-0.7,0.9-1.1,1.57c-0.4,0.67-0.78,1.41-1.13,2.23c-0.36,0.83-0.66,1.71-0.92,2.64s-0.41,1.87-0.47,2.8H362.87z
		 M369.64,106.02c0-0.45,0.06-0.85,0.18-1.19c0.12-0.34,0.29-0.63,0.5-0.86c0.21-0.23,0.47-0.41,0.76-0.53s0.6-0.18,0.94-0.18
		s0.66,0.06,0.95,0.18s0.54,0.3,0.76,0.53c0.21,0.24,0.38,0.52,0.5,0.86c0.12,0.34,0.18,0.73,0.18,1.19c0,0.45-0.06,0.85-0.18,1.19
		c-0.12,0.34-0.29,0.63-0.5,0.86s-0.47,0.41-0.76,0.53c-0.29,0.12-0.61,0.18-0.95,0.18s-0.65-0.06-0.94-0.18
		c-0.29-0.12-0.54-0.3-0.76-0.53s-0.38-0.52-0.5-0.86C369.7,106.87,369.64,106.47,369.64,106.02z M373.24,106.02
		c0-0.54-0.11-0.96-0.32-1.27s-0.51-0.46-0.9-0.46c-0.39,0-0.69,0.15-0.9,0.46s-0.32,0.73-0.32,1.27s0.11,0.96,0.32,1.27
		s0.51,0.46,0.9,0.46c0.39,0,0.69-0.15,0.9-0.46S373.24,106.56,373.24,106.02z M378.94,103.49l-5.86,10.4h-1.37l5.87-10.4H378.94z
		 M376.24,111.35c0-0.45,0.06-0.84,0.18-1.19c0.12-0.34,0.29-0.63,0.5-0.86c0.21-0.23,0.47-0.41,0.76-0.53
		c0.29-0.12,0.61-0.18,0.95-0.18s0.65,0.06,0.95,0.18c0.29,0.12,0.54,0.3,0.76,0.53s0.38,0.52,0.5,0.86
		c0.12,0.34,0.18,0.74,0.18,1.19c0,0.45-0.06,0.85-0.18,1.19c-0.12,0.34-0.29,0.63-0.5,0.86s-0.47,0.41-0.76,0.53
		c-0.29,0.12-0.61,0.18-0.95,0.18s-0.66-0.06-0.95-0.18s-0.54-0.3-0.76-0.53c-0.22-0.23-0.38-0.52-0.5-0.86
		C376.3,112.19,376.24,111.8,376.24,111.35z M379.84,111.35c0-0.54-0.1-0.96-0.32-1.27c-0.21-0.3-0.51-0.46-0.9-0.46
		s-0.69,0.15-0.9,0.46c-0.21,0.31-0.31,0.73-0.31,1.27s0.1,0.96,0.31,1.27c0.21,0.31,0.51,0.46,0.9,0.46s0.69-0.15,0.9-0.46
		C379.73,112.31,379.84,111.89,379.84,111.35z M474.81,107.59c1.51,0.06,2.62,0.39,3.32,0.99s1.06,1.42,1.06,2.44
		c0,0.46-0.08,0.89-0.23,1.27c-0.16,0.39-0.39,0.73-0.71,1.01c-0.32,0.28-0.71,0.5-1.19,0.66c-0.48,0.16-1.05,0.24-1.71,0.24
		c-0.26,0-0.53-0.02-0.79-0.06c-0.27-0.04-0.52-0.09-0.75-0.15c-0.23-0.06-0.44-0.12-0.62-0.18s-0.31-0.11-0.39-0.15l0.27-1.21
		c0.17,0.08,0.45,0.19,0.83,0.31c0.38,0.13,0.86,0.19,1.42,0.19c0.45,0,0.83-0.05,1.13-0.15c0.3-0.1,0.55-0.23,0.74-0.41
		c0.19-0.17,0.33-0.37,0.41-0.59c0.08-0.23,0.13-0.46,0.13-0.71c0-0.38-0.07-0.72-0.2-1.01s-0.36-0.54-0.69-0.74
		c-0.33-0.2-0.77-0.35-1.32-0.46s-1.25-0.16-2.08-0.16c0.06-0.49,0.11-0.95,0.14-1.38s0.07-0.85,0.1-1.26
		c0.03-0.41,0.05-0.82,0.08-1.22c0.02-0.41,0.04-0.83,0.06-1.28h5.01v1.19h-3.79c-0.01,0.15-0.02,0.35-0.04,0.61
		c-0.02,0.25-0.04,0.52-0.06,0.79c-0.02,0.28-0.04,0.54-0.06,0.8C474.85,107.24,474.83,107.44,474.81,107.59z M482.73,113.98
		c0.06-0.8,0.2-1.64,0.43-2.53c0.22-0.89,0.5-1.75,0.83-2.58s0.69-1.61,1.09-2.33c0.39-0.71,0.78-1.3,1.16-1.75h-5.05v-1.21h6.62
		v1.15c-0.33,0.38-0.7,0.9-1.1,1.57c-0.4,0.67-0.78,1.41-1.13,2.23c-0.36,0.83-0.66,1.71-0.92,2.64s-0.41,1.87-0.47,2.8H482.73z
		 M489.5,106.12c0-0.45,0.06-0.85,0.18-1.19c0.12-0.34,0.29-0.63,0.5-0.86c0.21-0.23,0.47-0.41,0.76-0.53s0.6-0.18,0.94-0.18
		s0.66,0.06,0.95,0.18s0.54,0.3,0.76,0.53c0.21,0.24,0.38,0.52,0.5,0.86c0.12,0.34,0.18,0.73,0.18,1.19c0,0.45-0.06,0.85-0.18,1.19
		c-0.12,0.34-0.29,0.63-0.5,0.86s-0.47,0.41-0.76,0.53c-0.29,0.12-0.61,0.18-0.95,0.18s-0.65-0.06-0.94-0.18
		c-0.29-0.12-0.54-0.3-0.76-0.53s-0.38-0.52-0.5-0.86C489.56,106.97,489.5,106.57,489.5,106.12z M493.1,106.12
		c0-0.54-0.11-0.96-0.32-1.27s-0.51-0.46-0.9-0.46c-0.39,0-0.69,0.15-0.9,0.46s-0.32,0.73-0.32,1.27s0.11,0.96,0.32,1.27
		s0.51,0.46,0.9,0.46c0.39,0,0.69-0.15,0.9-0.46S493.1,106.66,493.1,106.12z M498.8,103.59l-5.86,10.4h-1.37l5.87-10.4H498.8z
		 M496.1,111.45c0-0.45,0.06-0.84,0.18-1.19c0.12-0.34,0.29-0.63,0.5-0.86c0.21-0.23,0.47-0.41,0.76-0.53
		c0.29-0.12,0.61-0.18,0.95-0.18s0.65,0.06,0.95,0.18c0.29,0.12,0.54,0.3,0.76,0.53s0.38,0.52,0.5,0.86
		c0.12,0.34,0.18,0.74,0.18,1.19c0,0.45-0.06,0.85-0.18,1.19c-0.12,0.34-0.29,0.63-0.5,0.86s-0.47,0.41-0.76,0.53
		c-0.29,0.12-0.61,0.18-0.95,0.18s-0.66-0.06-0.95-0.18s-0.54-0.3-0.76-0.53c-0.22-0.23-0.38-0.52-0.5-0.86
		C496.16,112.29,496.1,111.9,496.1,111.45z M499.7,111.45c0-0.54-0.1-0.96-0.32-1.27c-0.21-0.3-0.51-0.46-0.9-0.46
		s-0.69,0.15-0.9,0.46c-0.21,0.31-0.31,0.73-0.31,1.27s0.1,0.96,0.31,1.27c0.21,0.31,0.51,0.46,0.9,0.46s0.69-0.15,0.9-0.46
		C499.59,112.41,499.7,111.99,499.7,111.45z M212.46,497.73c0.57-0.22,1.12-0.5,1.67-0.85c0.54-0.34,1.04-0.78,1.48-1.3h0.99v10.39
		h-1.4v-8.46c-0.12,0.11-0.27,0.23-0.44,0.34c-0.17,0.12-0.36,0.24-0.57,0.35s-0.42,0.21-0.65,0.31c-0.23,0.1-0.44,0.19-0.65,0.25
		L212.46,497.73z M222.51,499.59c1.51,0.06,2.62,0.39,3.32,0.99c0.71,0.6,1.06,1.42,1.06,2.44c0,0.46-0.08,0.89-0.23,1.28
		c-0.15,0.39-0.39,0.72-0.7,1c-0.32,0.28-0.71,0.5-1.19,0.66s-1.05,0.24-1.71,0.24c-0.26,0-0.52-0.02-0.79-0.06
		s-0.52-0.09-0.75-0.15c-0.23-0.06-0.44-0.12-0.61-0.18c-0.18-0.06-0.31-0.11-0.39-0.15l0.27-1.21c0.17,0.08,0.45,0.18,0.83,0.31
		c0.38,0.13,0.86,0.2,1.42,0.2c0.45,0,0.83-0.05,1.13-0.15c0.31-0.1,0.55-0.23,0.74-0.41c0.19-0.17,0.33-0.37,0.41-0.59
		c0.08-0.23,0.13-0.46,0.13-0.71c0-0.38-0.07-0.72-0.2-1.01s-0.36-0.54-0.69-0.74s-0.77-0.35-1.32-0.46
		c-0.55-0.11-1.25-0.16-2.08-0.16c0.06-0.49,0.11-0.95,0.14-1.38c0.03-0.43,0.07-0.85,0.1-1.26c0.03-0.41,0.06-0.82,0.08-1.22
		s0.04-0.83,0.06-1.28h5.01v1.18h-3.79c-0.01,0.15-0.02,0.35-0.04,0.61s-0.04,0.52-0.06,0.79c-0.02,0.28-0.04,0.54-0.06,0.8
		C222.55,499.24,222.53,499.44,222.51,499.59z M228.74,498.12c0-0.45,0.06-0.85,0.18-1.19c0.12-0.34,0.29-0.63,0.5-0.86
		c0.21-0.24,0.47-0.41,0.76-0.53s0.6-0.18,0.94-0.18s0.66,0.06,0.95,0.18s0.54,0.3,0.76,0.53s0.38,0.52,0.5,0.86
		c0.12,0.34,0.18,0.74,0.18,1.19c0,0.45-0.06,0.84-0.18,1.18c-0.12,0.34-0.29,0.63-0.5,0.86c-0.21,0.24-0.47,0.41-0.76,0.53
		c-0.29,0.12-0.61,0.18-0.95,0.18s-0.65-0.06-0.94-0.18c-0.29-0.12-0.54-0.3-0.76-0.53c-0.22-0.23-0.38-0.52-0.5-0.86
		C228.8,498.97,228.74,498.57,228.74,498.12z M232.34,498.12c0-0.54-0.1-0.96-0.31-1.27c-0.21-0.31-0.51-0.46-0.9-0.46
		c-0.39,0-0.69,0.15-0.9,0.46c-0.21,0.3-0.31,0.73-0.31,1.27s0.1,0.96,0.31,1.27c0.21,0.3,0.51,0.46,0.9,0.46
		c0.39,0,0.69-0.15,0.9-0.46C232.23,499.08,232.34,498.66,232.34,498.12z M238.04,495.59l-5.86,10.39h-1.37l5.87-10.39H238.04z
		 M235.34,503.45c0-0.45,0.06-0.84,0.18-1.18c0.12-0.34,0.29-0.63,0.5-0.86c0.21-0.24,0.47-0.41,0.76-0.53
		c0.29-0.12,0.6-0.18,0.94-0.18s0.65,0.06,0.95,0.18c0.29,0.12,0.54,0.3,0.76,0.53c0.21,0.23,0.38,0.52,0.5,0.86
		s0.18,0.74,0.18,1.18c0,0.45-0.06,0.85-0.18,1.19s-0.29,0.63-0.5,0.86c-0.22,0.24-0.47,0.41-0.76,0.53
		c-0.29,0.12-0.61,0.18-0.95,0.18s-0.65-0.06-0.94-0.18s-0.54-0.3-0.76-0.53c-0.22-0.23-0.38-0.52-0.5-0.86
		C235.4,504.29,235.34,503.9,235.34,503.45z M238.94,503.45c0-0.54-0.1-0.96-0.32-1.27c-0.21-0.3-0.51-0.46-0.9-0.46
		c-0.39,0-0.69,0.15-0.9,0.46c-0.21,0.31-0.31,0.73-0.31,1.27s0.1,0.96,0.31,1.27c0.21,0.31,0.51,0.46,0.9,0.46
		c0.39,0,0.69-0.15,0.9-0.46C238.83,504.41,238.94,503.99,238.94,503.45z"/>
	<path d="M283.4,355.23h3.62v3.9h-3.62v6.49h-4.86v-6.49h-12.59l-0.14-2.96l12.57-19.7h5.02V355.23z M270.91,355.23h7.63v-12.17
		l-0.36,0.64L270.91,355.23z M291.25,372.19l-2.62-1.56c0.77-1.21,1.3-2.27,1.59-3.17c0.29-0.9,0.44-1.82,0.45-2.75v-3.78h4.38
		l-0.02,3.5c-0.01,1.42-0.37,2.83-1.07,4.25C293.26,370.1,292.36,371.27,291.25,372.19z M313.05,353.43
		c-1.63,1.72-3.53,2.58-5.71,2.58c-2.56,0-4.6-0.9-6.12-2.69s-2.28-4.15-2.28-7.08c0-1.92,0.39-3.66,1.16-5.22
		c0.77-1.56,1.87-2.78,3.3-3.64c1.43-0.87,3.08-1.3,4.96-1.3c2.94,0,5.27,1.09,6.99,3.28c1.72,2.19,2.58,5.12,2.58,8.79v1.36
		c0,5.26-1.19,9.27-3.56,12.03c-2.38,2.76-5.92,4.16-10.63,4.2h-0.58v-4.02h0.7c2.87-0.04,5.07-0.73,6.61-2.07
		C312.01,358.3,312.87,356.23,313.05,353.43z M308.37,352.21c0.97,0,1.89-0.28,2.74-0.84c0.85-0.56,1.51-1.33,1.98-2.32v-1.9
		c0-2.15-0.44-3.88-1.32-5.19c-0.88-1.31-2.02-1.96-3.42-1.96c-1.4,0-2.52,0.58-3.35,1.73c-0.83,1.16-1.25,2.61-1.25,4.38
		c0,1.83,0.42,3.3,1.26,4.42S306.97,352.21,308.37,352.21z M337.7,336.33v4.02h-0.6c-2.72,0.04-4.9,0.79-6.53,2.24
		c-1.63,1.46-2.6,3.52-2.9,6.19c1.56-1.64,3.56-2.46,5.99-2.46c2.58,0,4.61,0.91,6.1,2.72c1.49,1.82,2.23,4.16,2.23,7.03
		c0,2.96-0.87,5.36-2.61,7.2c-1.74,1.84-4.03,2.75-6.86,2.75c-2.91,0-5.27-1.07-7.08-3.22s-2.71-4.96-2.71-8.45v-1.66
		c0-5.11,1.25-9.12,3.73-12.01c2.49-2.9,6.07-4.34,10.74-4.34H337.7z M332.47,350.25c-1.07,0-2.05,0.3-2.93,0.9
		c-0.89,0.6-1.54,1.4-1.95,2.4v1.48c0,2.16,0.45,3.88,1.36,5.15c0.91,1.28,2.08,1.91,3.52,1.91s2.58-0.54,3.42-1.62
		c0.84-1.08,1.26-2.5,1.26-4.26s-0.43-3.2-1.28-4.3C335.02,350.8,333.89,350.25,332.47,350.25z M373.43,347.83h-7.03v17.8h-4.86
		v-17.8h-6.95v-3.86h18.84V347.83z M395.63,355.01c0,3.35-0.76,6.02-2.28,8.02c-1.52,2-3.56,2.99-6.13,2.99
		c-2.38,0-4.28-0.78-5.71-2.34v10.27h-4.87v-29.99h4.48l0.2,2.2c1.43-1.73,3.37-2.6,5.83-2.6c2.64,0,4.71,0.98,6.22,2.95
		c1.5,1.97,2.25,4.7,2.25,8.2V355.01z M390.79,354.59c0-2.16-0.43-3.88-1.29-5.15c-0.86-1.27-2.09-1.9-3.69-1.9
		c-1.99,0-3.42,0.82-4.28,2.46v9.61c0.88,1.68,2.32,2.52,4.32,2.52c1.55,0,2.76-0.62,3.63-1.87
		C390.35,359.02,390.79,357.13,390.79,354.59z M417.87,343.96v21.66h-4.87v-17.74h-6.12l-0.4,7.55c-0.25,3.63-0.95,6.24-2.09,7.82
		c-1.14,1.58-2.89,2.37-5.24,2.37h-1.5l-0.02-4.04l1-0.1c1.07-0.15,1.84-0.8,2.33-1.95c0.49-1.15,0.8-3.26,0.93-6.32l0.4-9.25
		H417.87z M441.4,365.62h-4.86v-8.75h-8.43v8.75h-4.86v-21.66h4.86v9.03h8.43v-9.03h4.86V365.62z M475.75,355.01
		c0,3.35-0.76,6.02-2.28,8.02c-1.52,2-3.56,2.99-6.13,2.99c-2.38,0-4.28-0.78-5.71-2.34v10.27h-4.87v-29.99h4.48l0.2,2.2
		c1.43-1.73,3.37-2.6,5.83-2.6c2.64,0,4.71,0.98,6.22,2.95c1.5,1.97,2.25,4.7,2.25,8.2V355.01z M470.9,354.59
		c0-2.16-0.43-3.88-1.29-5.15c-0.86-1.27-2.09-1.9-3.69-1.9c-1.99,0-3.42,0.82-4.28,2.46v9.61c0.88,1.68,2.32,2.52,4.32,2.52
		c1.55,0,2.76-0.62,3.63-1.87C470.47,359.02,470.9,357.13,470.9,354.59z M487.22,358.66l4.4-14.69h5.18l-8.61,24.94
		c-1.32,3.64-3.56,5.47-6.73,5.47c-0.71,0-1.49-0.12-2.34-0.36v-3.78l0.92,0.06c1.23,0,2.15-0.22,2.77-0.67
		c0.62-0.45,1.11-1.2,1.47-2.25l0.7-1.86l-7.61-21.54h5.25L487.22,358.66z M509.8,345.16c2.72,0,4.91,0.91,6.55,2.73
		c1.64,1.82,2.46,4.29,2.46,7.42v0.24c0,3.12-0.89,5.65-2.67,7.59c-1.78,1.94-4.2,2.9-7.26,2.9c-2.98,0-5.38-0.99-7.21-2.96
		c-1.83-1.98-2.74-4.67-2.74-8.09v-1.4c0-4.67,0.83-8.37,2.48-11.09c1.65-2.72,4.12-4.42,7.41-5.11c1.84-0.37,3.03-0.77,3.57-1.19
		c0.54-0.42,0.81-0.99,0.81-1.71h3.92c0,1.35-0.22,2.44-0.66,3.28c-0.44,0.84-1.12,1.52-2.02,2.05c-0.91,0.53-2.47,1.02-4.68,1.49
		c-2.03,0.43-3.57,1.19-4.63,2.28c-1.06,1.09-1.77,2.61-2.13,4.54C504.93,346.16,507.2,345.16,509.8,345.16z M508.84,349.07
		c-1.58,0-2.81,0.53-3.7,1.59c-0.89,1.06-1.34,2.69-1.34,4.9c0,2.08,0.44,3.7,1.32,4.86s2.13,1.74,3.76,1.74
		c1.61,0,2.87-0.58,3.75-1.75c0.89-1.17,1.33-2.93,1.33-5.28c0-1.87-0.44-3.35-1.33-4.43C511.75,349.61,510.48,349.07,508.84,349.07
		z M541.01,343.96v21.66h-4.87v-17.74h-6.12l-0.4,7.55c-0.25,3.63-0.95,6.24-2.09,7.82c-1.14,1.58-2.89,2.37-5.24,2.37h-1.5
		l-0.02-4.04l1-0.1c1.07-0.15,1.84-0.8,2.33-1.95c0.49-1.15,0.8-3.26,0.93-6.32l0.4-9.25H541.01z M555.73,366.02
		c-3.08,0-5.58-0.97-7.5-2.91c-1.92-1.94-2.87-4.53-2.87-7.76v-0.6c0-2.16,0.42-4.09,1.25-5.8c0.83-1.7,2-3.03,3.51-3.97
		c1.51-0.95,3.19-1.42,5.04-1.42c2.95,0,5.23,0.94,6.84,2.82s2.41,4.54,2.41,7.99v1.96h-14.15c0.15,1.79,0.74,3.2,1.79,4.24
		c1.05,1.04,2.37,1.56,3.95,1.56c2.23,0,4.04-0.9,5.45-2.7l2.62,2.5c-0.87,1.29-2.03,2.3-3.47,3.01
		C559.15,365.67,557.53,366.02,555.73,366.02z M555.15,347.46c-1.33,0-2.41,0.47-3.23,1.4c-0.82,0.93-1.34,2.24-1.57,3.9h9.27v-0.36
		c-0.11-1.63-0.54-2.86-1.3-3.69S556.49,347.46,555.15,347.46z M581.71,343.96h4.84v21.66h-4.84v-14.45l-8.49,14.45h-4.84v-21.66
		h4.84v14.45L581.71,343.96z M583.99,335.65c0,1.68-0.59,3.04-1.76,4.08c-1.17,1.04-2.74,1.56-4.7,1.56c-1.96,0-3.53-0.52-4.71-1.56
		c-1.17-1.04-1.76-2.4-1.76-4.08h3.64c0,0.88,0.25,1.56,0.75,2.05c0.5,0.49,1.19,0.73,2.07,0.73s1.57-0.24,2.06-0.73
		c0.49-0.49,0.74-1.17,0.74-2.05H583.99z"/>
	<path d="M5.06,21.66c0.27,2.11,0.9,3.61,1.91,4.5c1.01,0.89,2.49,1.34,4.45,1.34c2.08,0,3.69-0.76,4.83-2.28
		c1.14-1.52,1.75-3.72,1.83-6.59H7.81v-4.08H18.1c-0.11-2.88-0.75-5.08-1.93-6.61c-1.18-1.52-2.84-2.28-4.97-2.28
		c-1.87,0-3.3,0.47-4.29,1.4C5.9,8,5.29,9.52,5.04,11.63H0c0.32-3.18,1.46-5.65,3.41-7.41c1.95-1.76,4.55-2.64,7.78-2.64
		c2.39,0,4.49,0.56,6.31,1.68c1.81,1.12,3.21,2.72,4.19,4.8c0.98,2.08,1.48,4.49,1.49,7.23v2.46c0,2.76-0.48,5.19-1.43,7.28
		c-0.95,2.09-2.33,3.69-4.11,4.81c-1.79,1.12-3.86,1.68-6.21,1.68c-3.31,0-5.97-0.87-7.97-2.61c-2-1.74-3.15-4.16-3.44-7.26H5.06z
		 M35.27,22.56h-2.46v8.57h-4.86V9.47h4.86v8.65h2.14l5.99-8.65h6.01l-7.83,10.37l8.49,11.29h-6.33L35.27,22.56z M49.37,20.1
		c0-2.12,0.42-4.03,1.26-5.74c0.84-1.7,2.02-3.01,3.54-3.92c1.52-0.91,3.27-1.37,5.25-1.37c2.92,0,5.3,0.94,7.12,2.82
		c1.82,1.88,2.81,4.38,2.95,7.49l0.02,1.14c0,2.14-0.41,4.04-1.23,5.73c-0.82,1.68-2,2.98-3.52,3.9c-1.53,0.92-3.29,1.38-5.3,1.38
		c-3.06,0-5.5-1.02-7.34-3.05s-2.75-4.75-2.75-8.14V20.1z M54.23,20.52c0,2.23,0.46,3.97,1.38,5.24c0.92,1.26,2.2,1.89,3.84,1.89
		s2.92-0.64,3.83-1.92s1.37-3.16,1.37-5.63c0-2.19-0.47-3.92-1.41-5.21c-0.94-1.28-2.22-1.92-3.83-1.92c-1.59,0-2.85,0.63-3.78,1.89
		C54.7,16.13,54.23,18.01,54.23,20.52z M91.97,31.13H87.1v-8.75h-8.43v8.75h-4.86V9.47h4.86v9.03h8.43V9.47h4.86V31.13z M96.23,20.1
		c0-2.12,0.42-4.03,1.26-5.74c0.84-1.7,2.02-3.01,3.54-3.92c1.52-0.91,3.27-1.37,5.25-1.37c2.92,0,5.3,0.94,7.12,2.82
		c1.82,1.88,2.81,4.38,2.95,7.49l0.02,1.14c0,2.14-0.41,4.04-1.23,5.73c-0.82,1.68-2,2.98-3.52,3.9c-1.53,0.92-3.29,1.38-5.3,1.38
		c-3.06,0-5.5-1.02-7.34-3.05s-2.75-4.75-2.75-8.14V20.1z M101.1,20.52c0,2.23,0.46,3.97,1.38,5.24c0.92,1.26,2.2,1.89,3.84,1.89
		s2.92-0.64,3.83-1.92s1.37-3.16,1.37-5.63c0-2.19-0.47-3.92-1.41-5.21c-0.94-1.28-2.22-1.92-3.83-1.92c-1.59,0-2.85,0.63-3.78,1.89
		C101.57,16.13,101.1,18.01,101.1,20.52z M133.35,25.14l6.41-15.68h6.09v21.66h-4.86V16.8l-5.97,14.33h-3.3l-5.99-14.41v14.41h-4.86
		V9.47h6.13L133.35,25.14z M164.82,9.47h4.84v21.66h-4.84V16.68l-8.49,14.45h-4.84V9.47h4.84v14.45L164.82,9.47z M192.21,31.13
		h-4.86V23.9c-1.25,0.29-2.58,0.44-3.96,0.44c-2.96,0-5.23-0.71-6.79-2.13c-1.56-1.42-2.34-3.46-2.34-6.12V9.45h4.86v6.65
		c0,1.58,0.35,2.69,1.05,3.34c0.7,0.65,1.77,0.98,3.21,0.98c1.31,0,2.63-0.15,3.96-0.46V9.47h4.86V31.13z M206.92,31.53
		c-3.08,0-5.58-0.97-7.5-2.91c-1.92-1.94-2.87-4.53-2.87-7.76v-0.6c0-2.16,0.42-4.09,1.25-5.8c0.83-1.7,2-3.03,3.51-3.97
		c1.51-0.95,3.19-1.42,5.04-1.42c2.95,0,5.23,0.94,6.84,2.82s2.41,4.54,2.41,7.99v1.96h-14.15c0.15,1.79,0.74,3.2,1.79,4.24
		c1.05,1.04,2.37,1.56,3.95,1.56c2.23,0,4.04-0.9,5.45-2.7l2.62,2.5c-0.87,1.29-2.03,2.3-3.47,3.01
		C210.35,31.17,208.72,31.53,206.92,31.53z M206.34,12.97c-1.33,0-2.41,0.47-3.23,1.4c-0.82,0.93-1.34,2.24-1.57,3.9h9.27v-0.36
		c-0.11-1.63-0.54-2.86-1.3-3.69S207.69,12.97,206.34,12.97z M228.28,27.65c1.21,0,2.22-0.35,3.02-1.06
		c0.8-0.71,1.23-1.58,1.28-2.62h4.58c-0.05,1.35-0.47,2.61-1.26,3.77c-0.79,1.17-1.86,2.09-3.2,2.77c-1.35,0.68-2.8,1.02-4.36,1.02
		c-3.03,0-5.43-0.98-7.21-2.94c-1.78-1.96-2.66-4.67-2.66-8.13v-0.5c0-3.3,0.88-5.94,2.64-7.92c1.76-1.98,4.16-2.97,7.21-2.97
		c2.58,0,4.67,0.75,6.3,2.25c1.62,1.5,2.47,3.47,2.55,5.92h-4.58c-0.05-1.24-0.48-2.26-1.27-3.06s-1.81-1.2-3.03-1.2
		c-1.58,0-2.79,0.57-3.64,1.71c-0.85,1.14-1.29,2.87-1.3,5.2v0.78c0,2.35,0.42,4.1,1.27,5.26
		C225.46,27.07,226.68,27.65,228.28,27.65z M248.54,22.56h-2.46v8.57h-4.86V9.47h4.86v8.65h2.14l5.99-8.65h6.01l-7.83,10.37
		l8.49,11.29h-6.33L248.54,22.56z M277.07,9.47h4.84v21.66h-4.84V16.68l-8.49,14.45h-4.84V9.47h4.84v14.45L277.07,9.47z
		 M300.61,9.47h4.84v21.66h-4.84V16.68l-8.49,14.45h-4.84V9.47h4.84v14.45L300.61,9.47z M302.9,1.16c0,1.68-0.59,3.04-1.76,4.08
		c-1.17,1.04-2.74,1.56-4.7,1.56s-3.53-0.52-4.7-1.56c-1.17-1.04-1.76-2.4-1.76-4.08h3.64c0,0.88,0.25,1.56,0.75,2.05
		c0.5,0.49,1.19,0.73,2.07,0.73s1.57-0.24,2.06-0.73c0.49-0.49,0.74-1.17,0.74-2.05H302.9z M328.42,24.16l4.4-14.69h5.18
		l-8.61,24.94c-1.32,3.64-3.56,5.47-6.73,5.47c-0.71,0-1.49-0.12-2.34-0.36v-3.78l0.92,0.06c1.23,0,2.15-0.22,2.77-0.67
		c0.62-0.45,1.11-1.2,1.47-2.25l0.7-1.86l-7.61-21.54h5.25L328.42,24.16z M345.7,9.47v17.78h6.77V9.47h4.86v17.78h6.79V9.47h4.85
		v17.78h3.7l-0.4,10.31h-4.42v-6.43h-27.01V9.47H345.7z M385.82,31.53c-3.08,0-5.58-0.97-7.5-2.91c-1.92-1.94-2.87-4.53-2.87-7.76
		v-0.6c0-2.16,0.42-4.09,1.25-5.8c0.83-1.7,2-3.03,3.51-3.97c1.51-0.95,3.19-1.42,5.04-1.42c2.95,0,5.23,0.94,6.84,2.82
		s2.41,4.54,2.41,7.99v1.96h-14.15c0.15,1.79,0.74,3.2,1.79,4.24c1.05,1.04,2.37,1.56,3.95,1.56c2.23,0,4.04-0.9,5.45-2.7l2.62,2.5
		c-0.87,1.29-2.03,2.3-3.47,3.01C389.24,31.17,387.62,31.53,385.82,31.53z M385.24,12.97c-1.33,0-2.41,0.47-3.23,1.4
		c-0.82,0.93-1.34,2.24-1.57,3.9h9.27v-0.36c-0.11-1.63-0.54-2.86-1.3-3.69S386.58,12.97,385.24,12.97z M417.25,20.52
		c0,3.35-0.76,6.02-2.28,8.02c-1.52,2-3.56,2.99-6.13,2.99c-2.38,0-4.28-0.78-5.71-2.34v10.27h-4.87V9.47h4.48l0.2,2.2
		c1.43-1.73,3.37-2.6,5.83-2.6c2.64,0,4.71,0.98,6.22,2.95c1.5,1.97,2.25,4.7,2.25,8.2V20.52z M412.4,20.1
		c0-2.16-0.43-3.88-1.29-5.15c-0.86-1.27-2.09-1.9-3.69-1.9c-1.99,0-3.42,0.82-4.28,2.46v9.61c0.88,1.68,2.32,2.52,4.32,2.52
		c1.55,0,2.76-0.62,3.63-1.87C411.97,24.53,412.4,22.64,412.4,20.1z M431.56,10.67c2.72,0,4.91,0.91,6.55,2.73
		c1.64,1.82,2.46,4.29,2.46,7.42v0.24c0,3.12-0.89,5.65-2.67,7.59c-1.78,1.94-4.2,2.9-7.26,2.9c-2.98,0-5.38-0.99-7.21-2.96
		c-1.83-1.98-2.74-4.67-2.74-8.09v-1.4c0-4.67,0.83-8.37,2.48-11.09c1.65-2.72,4.12-4.42,7.41-5.1c1.84-0.37,3.03-0.77,3.57-1.19
		c0.54-0.42,0.81-0.99,0.81-1.71h3.92c0,1.35-0.22,2.44-0.66,3.28c-0.44,0.84-1.12,1.52-2.02,2.05c-0.91,0.53-2.47,1.02-4.68,1.49
		c-2.03,0.43-3.57,1.19-4.63,2.28c-1.06,1.09-1.77,2.61-2.13,4.54C426.69,11.67,428.96,10.67,431.56,10.67z M430.6,14.57
		c-1.58,0-2.81,0.53-3.7,1.59c-0.89,1.06-1.34,2.69-1.34,4.9c0,2.08,0.44,3.7,1.32,4.86s2.13,1.74,3.76,1.74
		c1.61,0,2.87-0.58,3.75-1.75c0.89-1.17,1.33-2.93,1.33-5.28c0-1.87-0.44-3.35-1.33-4.43C433.51,15.12,432.24,14.57,430.6,14.57z
		 M453.66,20.1c0-2.12,0.42-4.03,1.26-5.74c0.84-1.7,2.02-3.01,3.54-3.92c1.52-0.91,3.27-1.37,5.24-1.37c2.92,0,5.3,0.94,7.12,2.82
		c1.82,1.88,2.81,4.38,2.95,7.49l0.02,1.14c0,2.14-0.41,4.04-1.23,5.73c-0.82,1.68-2,2.98-3.52,3.9c-1.53,0.92-3.29,1.38-5.29,1.38
		c-3.06,0-5.5-1.02-7.34-3.05s-2.75-4.75-2.75-8.14V20.1z M458.53,20.52c0,2.23,0.46,3.97,1.38,5.24c0.92,1.26,2.2,1.89,3.84,1.89
		c1.64,0,2.92-0.64,3.83-1.92s1.37-3.16,1.37-5.63c0-2.19-0.47-3.92-1.41-5.21c-0.94-1.28-2.22-1.92-3.83-1.92
		c-1.59,0-2.85,0.63-3.78,1.89C458.99,16.13,458.53,18.01,458.53,20.52z M494.96,13.33h-7.03v17.8h-4.86v-17.8h-6.95V9.47h18.84
		V13.33z M526.77,31.13h-4.86V13.39h-8.45v17.74h-4.86V9.47h18.18V31.13z M544.89,31.13c-0.21-0.41-0.4-1.09-0.56-2.02
		c-1.55,1.62-3.44,2.42-5.69,2.42c-2.18,0-3.95-0.62-5.33-1.86c-1.37-1.24-2.06-2.78-2.06-4.6c0-2.31,0.86-4.08,2.57-5.31
		s4.17-1.85,7.36-1.85h2.98v-1.42c0-1.12-0.31-2.02-0.94-2.69c-0.63-0.67-1.58-1.01-2.86-1.01c-1.11,0-2.01,0.28-2.72,0.83
		c-0.71,0.55-1.06,1.26-1.06,2.11h-4.87c0-1.19,0.39-2.3,1.18-3.33c0.79-1.03,1.86-1.85,3.21-2.43c1.35-0.59,2.87-0.88,4.54-0.88
		c2.54,0,4.56,0.64,6.07,1.91c1.51,1.27,2.28,3.07,2.32,5.38v9.77c0,1.95,0.27,3.5,0.82,4.66v0.34H544.89z M539.55,27.63
		c0.96,0,1.87-0.23,2.71-0.7c0.85-0.47,1.48-1.09,1.91-1.88v-4.08h-2.62c-1.8,0-3.16,0.31-4.06,0.94c-0.91,0.63-1.36,1.52-1.36,2.66
		c0,0.93,0.31,1.68,0.93,2.23C537.67,27.35,538.51,27.63,539.55,27.63z M572.48,31.13h-4.86v-8.75h-8.43v8.75h-4.86V9.47h4.86v9.03
		h8.43V9.47h4.86V31.13z M577.74,27.25c1.35-1.51,2.25-2.94,2.71-4.29c0.46-1.35,0.74-3.09,0.83-5.2l0.28-8.29h15.04v17.78h3v10.33
		h-4.84v-6.45h-13.89v6.45h-4.92l0.02-10.33H577.74z M583.45,27.25h8.31V13.65h-5.46l-0.14,4.14
		C585.97,21.77,585.06,24.92,583.45,27.25z M612.62,31.53c-3.08,0-5.58-0.97-7.5-2.91c-1.92-1.94-2.87-4.53-2.87-7.76v-0.6
		c0-2.16,0.42-4.09,1.25-5.8c0.83-1.7,2-3.03,3.51-3.97c1.51-0.95,3.19-1.42,5.04-1.42c2.95,0,5.23,0.94,6.84,2.82
		s2.41,4.54,2.41,7.99v1.96h-14.15c0.15,1.79,0.74,3.2,1.79,4.24c1.05,1.04,2.37,1.56,3.95,1.56c2.23,0,4.04-0.9,5.45-2.7l2.62,2.5
		c-0.87,1.29-2.03,2.3-3.47,3.01C616.04,31.17,614.42,31.53,612.62,31.53z M612.04,12.97c-1.33,0-2.41,0.47-3.23,1.4
		c-0.82,0.93-1.34,2.24-1.57,3.9h9.27v-0.36c-0.11-1.63-0.54-2.86-1.3-3.69S613.38,12.97,612.04,12.97z M637.94,25.14l6.41-15.68
		h6.09v21.66h-4.87V16.8l-5.97,14.33h-3.3l-5.99-14.41v14.41h-4.86V9.47h6.12L637.94,25.14z M669.41,9.47h4.84v21.66h-4.84V16.68
		l-8.49,14.45h-4.84V9.47h4.84v14.45L669.41,9.47z M692.96,9.47h4.84v21.66h-4.84V16.68l-8.49,14.45h-4.84V9.47h4.84v14.45
		L692.96,9.47z M38.74,524.11h-1.4v-2.62h-7.65v2.62h-1.41l-0.01-3.77h0.87c0.46-0.52,0.82-1.21,1.1-2.08
		c0.27-0.87,0.44-1.83,0.51-2.87l0.23-4.56h6.38v9.51h1.39L38.74,524.11z M30.75,520.34h5.2v-8.36h-3.61l-0.15,3.14
		c-0.06,1.23-0.23,2.27-0.49,3.14C31.44,519.12,31.12,519.81,30.75,520.34z M43.5,521.64c-1.07,0-1.95-0.35-2.62-1.06
		c-0.67-0.71-1.01-1.65-1.01-2.83v-0.25c0-0.79,0.15-1.49,0.45-2.11c0.3-0.62,0.72-1.1,1.26-1.45c0.54-0.35,1.12-0.52,1.75-0.52
		c1.03,0,1.83,0.34,2.4,1.02s0.86,1.65,0.86,2.92v0.56h-5.37c0.02,0.78,0.25,1.41,0.68,1.89c0.44,0.48,0.99,0.72,1.67,0.72
		c0.48,0,0.88-0.1,1.22-0.29s0.62-0.45,0.87-0.78l0.83,0.64C45.82,521.13,44.83,521.64,43.5,521.64z M43.33,514.53
		c-0.55,0-1.01,0.2-1.38,0.6c-0.37,0.4-0.6,0.96-0.69,1.67h3.97v-0.1c-0.04-0.69-0.22-1.22-0.56-1.6
		C44.35,514.72,43.9,514.53,43.33,514.53z M52.72,519.7l2.7-6.13h1.69v7.92h-1.35v-5.76l-2.56,5.76h-0.94l-2.61-5.89v5.89h-1.35
		v-7.92h1.76L52.72,519.7z M58.92,517.46c0-0.78,0.15-1.47,0.46-2.09s0.73-1.1,1.27-1.44s1.17-0.51,1.86-0.51
		c1.08,0,1.95,0.37,2.62,1.12c0.67,0.75,1,1.74,1,2.98v0.1c0,0.77-0.15,1.46-0.44,2.08c-0.3,0.61-0.72,1.09-1.27,1.43
		c-0.55,0.34-1.18,0.51-1.89,0.51c-1.07,0-1.94-0.37-2.61-1.12c-0.67-0.75-1-1.74-1-2.97V517.46z M60.29,517.62
		c0,0.88,0.2,1.58,0.61,2.12c0.41,0.53,0.95,0.8,1.64,0.8c0.69,0,1.24-0.27,1.64-0.81c0.41-0.54,0.61-1.29,0.61-2.27
		c0-0.87-0.21-1.57-0.62-2.11c-0.41-0.54-0.96-0.81-1.64-0.81c-0.67,0-1.21,0.27-1.62,0.8S60.29,516.63,60.29,517.62z M72.96,514.69
		H69.3v6.8h-1.36v-7.92h5.02V514.69z M80.82,517.62c0,1.21-0.28,2.18-0.83,2.92s-1.3,1.11-2.24,1.11c-0.96,0-1.72-0.3-2.27-0.92
		v3.82h-1.35v-10.97h1.24l0.07,0.88c0.55-0.68,1.32-1.03,2.3-1.03c0.95,0,1.71,0.36,2.26,1.08c0.55,0.72,0.83,1.72,0.83,3V517.62z
		 M79.47,517.46c0-0.89-0.19-1.6-0.57-2.12s-0.9-0.78-1.57-0.78c-0.82,0-1.44,0.36-1.85,1.09v3.79c0.41,0.72,1.03,1.08,1.86,1.08
		c0.65,0,1.17-0.26,1.55-0.77C79.28,519.24,79.47,518.48,79.47,517.46z M87.44,521.49c-0.08-0.16-0.14-0.43-0.19-0.83
		c-0.63,0.65-1.38,0.98-2.26,0.98c-0.78,0-1.42-0.22-1.92-0.66c-0.5-0.44-0.75-1-0.75-1.68c0-0.83,0.31-1.47,0.94-1.92
		c0.63-0.46,1.51-0.68,2.65-0.68h1.32v-0.62c0-0.47-0.14-0.85-0.42-1.13c-0.28-0.28-0.7-0.42-1.25-0.42c-0.48,0-0.89,0.12-1.22,0.37
		s-0.49,0.54-0.49,0.89h-1.36c0-0.4,0.14-0.78,0.42-1.15c0.28-0.37,0.66-0.66,1.14-0.88c0.48-0.21,1.01-0.32,1.59-0.32
		c0.91,0,1.63,0.23,2.15,0.68c0.52,0.46,0.79,1.09,0.81,1.89v3.65c0,0.73,0.09,1.31,0.28,1.74v0.12H87.44z M85.19,520.46
		c0.42,0,0.83-0.11,1.21-0.33s0.66-0.5,0.83-0.86v-1.63h-1.06c-1.66,0-2.49,0.49-2.49,1.46c0,0.42,0.14,0.76,0.42,1
		S84.75,520.46,85.19,520.46z M90.41,517.67c0-1.32,0.26-2.36,0.77-3.12s1.22-1.14,2.11-1.14c0.42,0,0.78,0.07,1.09,0.21v-3.39h1.35
		v3.44c0.34-0.17,0.74-0.26,1.2-0.26c0.9,0,1.6,0.38,2.12,1.14s0.77,1.85,0.77,3.27c0,1.17-0.26,2.09-0.77,2.78
		c-0.51,0.69-1.21,1.03-2.11,1.03c-0.47,0-0.88-0.08-1.22-0.23v3.13h-1.35v-3.11c-0.32,0.14-0.69,0.21-1.11,0.21
		c-0.89,0-1.59-0.34-2.1-1.03c-0.51-0.69-0.77-1.63-0.77-2.83V517.67z M91.77,517.83c0,0.89,0.16,1.56,0.48,2.02
		s0.77,0.69,1.37,0.69c0.28,0,0.54-0.04,0.77-0.13v-5.75c-0.21-0.08-0.46-0.12-0.75-0.12c-0.6,0-1.05,0.27-1.38,0.8
		S91.77,516.7,91.77,517.83z M98.47,517.67c0-1-0.17-1.77-0.51-2.32c-0.34-0.55-0.81-0.82-1.41-0.82c-0.31,0-0.58,0.05-0.81,0.15
		v5.74c0.22,0.08,0.49,0.12,0.82,0.12c0.61,0,1.08-0.23,1.41-0.7S98.47,518.65,98.47,517.67z M106.71,513.57h1.35v7.92h-1.35v-5.78
		l-3.65,5.78h-1.35v-7.92h1.35v5.79L106.71,513.57z M116.22,521.49h-1.36v-2.87c-0.6,0.16-1.21,0.23-1.83,0.23
		c-0.99,0-1.75-0.25-2.27-0.76c-0.52-0.51-0.78-1.23-0.79-2.17v-2.37h1.35v2.41c0.02,1.18,0.59,1.77,1.71,1.77
		c0.62,0,1.24-0.08,1.83-0.23v-3.94h1.36V521.49z M121.68,521.64c-1.07,0-1.95-0.35-2.62-1.06c-0.67-0.71-1.01-1.65-1.01-2.83v-0.25
		c0-0.79,0.15-1.49,0.45-2.11c0.3-0.62,0.72-1.1,1.26-1.45c0.54-0.35,1.12-0.52,1.75-0.52c1.03,0,1.83,0.34,2.4,1.02
		s0.86,1.65,0.86,2.92v0.56h-5.37c0.02,0.78,0.25,1.41,0.68,1.89c0.44,0.48,0.99,0.72,1.67,0.72c0.48,0,0.88-0.1,1.22-0.29
		s0.62-0.45,0.87-0.78l0.83,0.64C124,521.13,123.01,521.64,121.68,521.64z M121.51,514.53c-0.55,0-1.01,0.2-1.38,0.6
		c-0.37,0.4-0.6,0.96-0.69,1.67h3.97v-0.1c-0.04-0.69-0.22-1.22-0.56-1.6C122.53,514.72,122.08,514.53,121.51,514.53z
		 M129.52,520.53c0.48,0,0.91-0.15,1.27-0.44s0.56-0.66,0.6-1.1h1.28c-0.02,0.45-0.18,0.89-0.47,1.3s-0.67,0.74-1.15,0.98
		c-0.48,0.24-0.99,0.37-1.53,0.37c-1.08,0-1.94-0.36-2.57-1.08c-0.64-0.72-0.96-1.71-0.96-2.96v-0.23c0-0.77,0.14-1.46,0.42-2.06
		s0.69-1.07,1.22-1.4c0.53-0.33,1.16-0.5,1.88-0.5c0.89,0,1.63,0.27,2.22,0.8c0.59,0.53,0.9,1.22,0.94,2.07h-1.28
		c-0.04-0.51-0.23-0.93-0.58-1.26c-0.35-0.33-0.78-0.49-1.29-0.49c-0.69,0-1.22,0.25-1.6,0.74c-0.38,0.5-0.57,1.21-0.57,2.15v0.26
		c0,0.91,0.19,1.62,0.56,2.11S128.82,520.53,129.52,520.53z M136.66,518.11h-0.99v3.38h-1.36v-7.92h1.36v3.35h0.89l2.67-3.35h1.64
		l-3.13,3.81l3.4,4.12h-1.72L136.66,518.11z M147.42,513.57h1.36v7.92h-1.36v-5.78l-3.65,5.78h-1.36v-7.92h1.36v5.79L147.42,513.57z
		 M154.24,521.64c-1.08,0-1.95-0.35-2.62-1.06c-0.67-0.71-1.01-1.65-1.01-2.83v-0.25c0-0.79,0.15-1.49,0.45-2.11
		c0.3-0.62,0.72-1.1,1.26-1.45c0.54-0.35,1.12-0.52,1.75-0.52c1.03,0,1.83,0.34,2.4,1.02s0.86,1.65,0.86,2.92v0.56h-5.37
		c0.02,0.78,0.25,1.41,0.68,1.89c0.44,0.48,0.99,0.72,1.67,0.72c0.48,0,0.88-0.1,1.22-0.29c0.33-0.2,0.62-0.45,0.87-0.78l0.83,0.64
		C156.56,521.13,155.56,521.64,154.24,521.64z M154.07,514.53c-0.55,0-1.01,0.2-1.38,0.6c-0.37,0.4-0.6,0.96-0.69,1.67h3.97v-0.1
		c-0.04-0.69-0.22-1.22-0.56-1.6C155.08,514.72,154.63,514.53,154.07,514.53z M169.09,521.49h-1.36v-6.8h-3.65v6.8h-1.36v-7.92h6.37
		V521.49z M170.9,517.46c0-0.78,0.15-1.47,0.46-2.09c0.31-0.62,0.73-1.1,1.27-1.44c0.54-0.34,1.17-0.51,1.86-0.51
		c1.08,0,1.95,0.37,2.62,1.12c0.67,0.75,1,1.74,1,2.98v0.1c0,0.77-0.15,1.46-0.44,2.08c-0.29,0.61-0.72,1.09-1.27,1.43
		c-0.55,0.34-1.18,0.51-1.89,0.51c-1.07,0-1.94-0.37-2.61-1.12c-0.67-0.75-1-1.74-1-2.97V517.46z M172.27,517.62
		c0,0.88,0.2,1.58,0.61,2.12c0.41,0.53,0.95,0.8,1.64,0.8c0.69,0,1.24-0.27,1.64-0.81c0.41-0.54,0.61-1.29,0.61-2.27
		c0-0.87-0.21-1.57-0.62-2.11c-0.41-0.54-0.96-0.81-1.64-0.81c-0.67,0-1.21,0.27-1.62,0.8S172.27,516.63,172.27,517.62z
		 M185.54,514.66h-2.66v6.83h-1.36v-6.83h-2.61v-1.1h6.62V514.66z M189.57,521.64c-1.08,0-1.95-0.35-2.62-1.06
		c-0.67-0.71-1.01-1.65-1.01-2.83v-0.25c0-0.79,0.15-1.49,0.45-2.11c0.3-0.62,0.72-1.1,1.26-1.45c0.54-0.35,1.12-0.52,1.75-0.52
		c1.03,0,1.83,0.34,2.4,1.02s0.86,1.65,0.86,2.92v0.56h-5.37c0.02,0.78,0.25,1.41,0.68,1.89c0.44,0.48,0.99,0.72,1.67,0.72
		c0.48,0,0.88-0.1,1.22-0.29c0.33-0.2,0.62-0.45,0.87-0.78l0.83,0.64C191.89,521.13,190.89,521.64,189.57,521.64z M189.4,514.53
		c-0.55,0-1.01,0.2-1.38,0.6c-0.37,0.4-0.6,0.96-0.69,1.67h3.97v-0.1c-0.04-0.69-0.22-1.22-0.56-1.6
		C190.41,514.72,189.96,514.53,189.4,514.53z M200.92,517.62c0,1.21-0.28,2.18-0.83,2.92c-0.55,0.74-1.3,1.11-2.24,1.11
		c-0.96,0-1.72-0.3-2.27-0.92v3.82h-1.36v-10.97h1.24l0.07,0.88c0.55-0.68,1.32-1.03,2.3-1.03c0.95,0,1.71,0.36,2.26,1.08
		c0.55,0.72,0.83,1.72,0.83,3V517.62z M199.56,517.46c0-0.89-0.19-1.6-0.57-2.12s-0.9-0.78-1.57-0.78c-0.82,0-1.44,0.36-1.85,1.09
		v3.79c0.4,0.72,1.03,1.08,1.86,1.08c0.65,0,1.17-0.26,1.55-0.77C199.37,519.24,199.56,518.48,199.56,517.46z M207.77,513.57h1.36
		v7.92h-1.36v-5.78l-3.65,5.78h-1.36v-7.92h1.36v5.79L207.77,513.57z M29.4,282.69v-10.66h3.49c1.16,0,2.03,0.24,2.61,0.72
		s0.88,1.19,0.88,2.12c0,0.5-0.14,0.94-0.42,1.32s-0.67,0.68-1.16,0.89c0.58,0.16,1.03,0.47,1.37,0.92c0.33,0.45,0.5,0.99,0.5,1.62
		c0,0.96-0.31,1.71-0.93,2.26s-1.5,0.82-2.63,0.82H29.4z M30.81,276.57h2.12c0.62,0,1.11-0.15,1.48-0.46
		c0.37-0.31,0.55-0.73,0.55-1.25c0-0.59-0.17-1.01-0.51-1.28s-0.86-0.4-1.56-0.4h-2.08V276.57z M30.81,277.7v3.84h2.32
		c0.65,0,1.17-0.17,1.55-0.51c0.38-0.34,0.57-0.81,0.57-1.4c0-1.28-0.7-1.93-2.09-1.93H30.81z M40.01,277.49h2.06
		c0.9,0.01,1.61,0.24,2.13,0.7s0.78,1.08,0.78,1.87c0,0.79-0.27,1.43-0.81,1.9s-1.26,0.72-2.17,0.72h-3.35v-7.92h1.35V277.49z
		 M40.01,278.6v2.98h2.01c0.51,0,0.9-0.13,1.18-0.39c0.28-0.26,0.42-0.62,0.42-1.07c0-0.44-0.14-0.8-0.41-1.08
		c-0.27-0.28-0.65-0.43-1.14-0.44H40.01z M47.81,282.69h-1.36v-7.92h1.36V282.69z M56.66,282.69H55.3v-6.8h-3.65v6.8h-1.36v-7.92
		h6.36V282.69z M65.33,274.76v7.92h-1.36v-6.8h-2.7l-0.16,2.97c-0.09,1.36-0.32,2.34-0.69,2.92s-0.95,0.89-1.75,0.92h-0.54v-1.19
		l0.39-0.03c0.44-0.05,0.75-0.3,0.94-0.76s0.31-1.31,0.37-2.55l0.15-3.39H65.33z M72.4,282.69c-0.08-0.16-0.14-0.43-0.19-0.83
		c-0.63,0.65-1.38,0.98-2.26,0.98c-0.78,0-1.42-0.22-1.92-0.66c-0.5-0.44-0.75-1-0.75-1.68c0-0.83,0.31-1.47,0.94-1.92
		c0.63-0.46,1.51-0.68,2.65-0.68h1.32v-0.62c0-0.47-0.14-0.85-0.42-1.13s-0.7-0.42-1.25-0.42c-0.48,0-0.89,0.12-1.22,0.37
		s-0.49,0.54-0.49,0.89h-1.36c0-0.4,0.14-0.78,0.42-1.15c0.28-0.37,0.66-0.66,1.14-0.88c0.48-0.21,1.01-0.32,1.59-0.32
		c0.91,0,1.63,0.23,2.15,0.68c0.52,0.46,0.79,1.09,0.81,1.89v3.65c0,0.73,0.09,1.31,0.28,1.74v0.12H72.4z M70.15,281.65
		c0.42,0,0.83-0.11,1.21-0.33s0.66-0.51,0.83-0.86v-1.63h-1.06c-1.66,0-2.49,0.49-2.49,1.46c0,0.42,0.14,0.76,0.42,1
		S69.7,281.65,70.15,281.65z M81.43,275.86h-2.66v6.83h-1.35v-6.83h-2.61v-1.1h6.62V275.86z M84.23,277.49h2.06
		c0.9,0.01,1.61,0.24,2.13,0.7s0.78,1.08,0.78,1.87c0,0.79-0.27,1.43-0.81,1.9s-1.26,0.72-2.17,0.72h-3.35v-7.92h1.35V277.49z
		 M84.23,278.6v2.98h2.01c0.51,0,0.9-0.13,1.18-0.39c0.28-0.26,0.42-0.62,0.42-1.07c0-0.44-0.14-0.8-0.41-1.08
		c-0.27-0.28-0.65-0.43-1.14-0.44H84.23z M92.03,282.69h-1.36v-7.92h1.36V282.69z M104.58,282.69h-1.35v-3.38h-3.64v3.38h-1.36
		v-7.92h1.36v3.44h3.64v-3.44h1.35V282.69z M111.65,282.69c-0.08-0.16-0.14-0.43-0.19-0.83c-0.63,0.65-1.38,0.98-2.26,0.98
		c-0.78,0-1.42-0.22-1.92-0.66c-0.5-0.44-0.75-1-0.75-1.68c0-0.83,0.31-1.47,0.94-1.92c0.63-0.46,1.51-0.68,2.65-0.68h1.32v-0.62
		c0-0.47-0.14-0.85-0.42-1.13s-0.7-0.42-1.25-0.42c-0.48,0-0.89,0.12-1.22,0.37s-0.49,0.54-0.49,0.89h-1.36
		c0-0.4,0.14-0.78,0.42-1.15c0.28-0.37,0.66-0.66,1.14-0.88c0.48-0.21,1.01-0.32,1.59-0.32c0.91,0,1.63,0.23,2.15,0.68
		c0.52,0.46,0.79,1.09,0.81,1.89v3.65c0,0.73,0.09,1.31,0.28,1.74v0.12H111.65z M109.4,281.65c0.42,0,0.83-0.11,1.21-0.33
		s0.66-0.51,0.83-0.86v-1.63h-1.06c-1.66,0-2.49,0.49-2.49,1.46c0,0.42,0.14,0.76,0.42,1S108.96,281.65,109.4,281.65z M118.1,281.73
		c0.48,0,0.91-0.15,1.27-0.44s0.56-0.66,0.6-1.1h1.28c-0.02,0.45-0.18,0.89-0.47,1.3s-0.67,0.74-1.15,0.98
		c-0.48,0.24-0.99,0.37-1.53,0.37c-1.08,0-1.94-0.36-2.57-1.08c-0.64-0.72-0.96-1.71-0.96-2.96v-0.23c0-0.77,0.14-1.46,0.42-2.06
		s0.69-1.07,1.22-1.4c0.53-0.33,1.16-0.5,1.88-0.5c0.89,0,1.63,0.27,2.22,0.8s0.9,1.22,0.94,2.07h-1.28
		c-0.04-0.51-0.23-0.93-0.58-1.26c-0.35-0.33-0.78-0.49-1.29-0.49c-0.69,0-1.22,0.25-1.6,0.74c-0.38,0.5-0.57,1.21-0.57,2.15v0.26
		c0,0.91,0.19,1.62,0.56,2.11S117.4,281.73,118.1,281.73z M126.06,282.83c-1.07,0-1.95-0.35-2.62-1.06
		c-0.67-0.71-1.01-1.65-1.01-2.83v-0.25c0-0.79,0.15-1.49,0.45-2.11c0.3-0.62,0.72-1.1,1.26-1.45c0.54-0.35,1.12-0.52,1.75-0.52
		c1.03,0,1.83,0.34,2.4,1.02s0.86,1.65,0.86,2.92v0.56h-5.37c0.02,0.78,0.25,1.41,0.68,1.89s0.99,0.72,1.67,0.72
		c0.48,0,0.88-0.1,1.22-0.29s0.62-0.45,0.87-0.78l0.83,0.64C128.38,282.32,127.39,282.83,126.06,282.83z M125.89,275.73
		c-0.55,0-1.01,0.2-1.38,0.6c-0.37,0.4-0.6,0.96-0.69,1.67h3.97v-0.1c-0.04-0.69-0.22-1.22-0.56-1.6
		C126.91,275.92,126.46,275.73,125.89,275.73z M137.21,274.76v7.92h-1.36v-6.8h-2.7l-0.16,2.97c-0.09,1.36-0.32,2.34-0.69,2.92
		c-0.37,0.59-0.95,0.89-1.75,0.92h-0.54v-1.19l0.39-0.03c0.44-0.05,0.75-0.3,0.94-0.76s0.31-1.31,0.37-2.55l0.15-3.39H137.21z
		 M142.68,282.83c-1.08,0-1.95-0.35-2.62-1.06c-0.67-0.71-1.01-1.65-1.01-2.83v-0.25c0-0.79,0.15-1.49,0.45-2.11
		c0.3-0.62,0.72-1.1,1.26-1.45c0.54-0.35,1.12-0.52,1.75-0.52c1.03,0,1.83,0.34,2.4,1.02s0.86,1.65,0.86,2.92v0.56h-5.37
		c0.02,0.78,0.25,1.41,0.68,1.89c0.44,0.48,0.99,0.72,1.67,0.72c0.48,0,0.88-0.1,1.22-0.29c0.33-0.2,0.62-0.45,0.87-0.78l0.83,0.64
		C145,282.32,144.01,282.83,142.68,282.83z M142.51,275.73c-0.55,0-1.01,0.2-1.38,0.6c-0.37,0.4-0.6,0.96-0.69,1.67h3.97v-0.1
		c-0.04-0.69-0.22-1.22-0.56-1.6C143.53,275.92,143.08,275.73,142.51,275.73z M153.81,282.69h-1.36v-3.38h-3.64v3.38h-1.36v-7.92
		h1.36v3.44h3.64v-3.44h1.36V282.69z M161.11,274.76h1.36v7.92h-1.36v-5.78l-3.65,5.78h-1.36v-7.92h1.36v5.79L161.11,274.76z
		 M166.12,278.12h1.9c0.1-1.05,0.48-1.9,1.12-2.55c0.65-0.64,1.46-0.96,2.45-0.96c1.04,0,1.88,0.35,2.54,1.05
		c0.66,0.7,1.01,1.61,1.07,2.72l0.01,0.42c0,0.77-0.15,1.47-0.45,2.09s-0.73,1.1-1.27,1.43c-0.55,0.33-1.17,0.5-1.88,0.5
		c-1.02,0-1.86-0.33-2.5-1c-0.65-0.67-1.01-1.53-1.09-2.6h-1.9v3.45h-1.35v-7.92h1.35V278.12z M169.36,278.81
		c0,0.88,0.2,1.58,0.61,2.12c0.41,0.53,0.96,0.8,1.64,0.8s1.23-0.27,1.64-0.81c0.4-0.54,0.6-1.3,0.6-2.26
		c0-0.86-0.21-1.57-0.62-2.11s-0.96-0.81-1.64-0.81c-0.67,0-1.22,0.27-1.63,0.8S169.36,277.82,169.36,278.81z M34.32,292.76h1.35
		v7.92h-1.35v-5.78l-3.65,5.78h-1.35v-7.92h1.35v5.79L34.32,292.76z M45.04,293.21c1,0,1.79,0.33,2.39,1c0.6,0.67,0.9,1.54,0.9,2.63
		v0.12c0,0.75-0.14,1.42-0.43,2s-0.7,1.04-1.24,1.37c-0.54,0.33-1.16,0.49-1.86,0.49c-1.06,0-1.92-0.36-2.57-1.07
		c-0.65-0.71-0.97-1.66-0.97-2.86v-0.66c0-1.67,0.31-2.99,0.93-3.97s1.53-1.58,2.74-1.79c0.68-0.12,1.15-0.27,1.38-0.45
		s0.36-0.42,0.36-0.73h1.11c0,0.61-0.14,1.09-0.41,1.43c-0.28,0.34-0.72,0.58-1.32,0.73l-1.01,0.23c-0.81,0.19-1.41,0.51-1.81,0.96
		c-0.4,0.45-0.67,1.05-0.79,1.81C43.13,293.63,44.01,293.21,45.04,293.21z M44.78,294.33c-0.66,0-1.19,0.22-1.58,0.67
		c-0.39,0.45-0.59,1.07-0.59,1.86v0.12c0,0.85,0.2,1.52,0.59,2.02s0.92,0.74,1.59,0.74c0.67,0,1.21-0.25,1.6-0.75
		s0.59-1.23,0.59-2.18c0-0.75-0.2-1.35-0.59-1.8C45.99,294.55,45.45,294.33,44.78,294.33z M54.85,292.76h1.35v7.92h-1.35v-5.78
		l-3.65,5.78h-1.35v-7.92h1.35v5.79L54.85,292.76z M62.74,294.93c0-0.37-0.14-0.67-0.42-0.88c-0.28-0.22-0.67-0.33-1.16-0.33
		c-0.48,0-0.88,0.12-1.2,0.37c-0.32,0.25-0.48,0.54-0.48,0.88h-1.35c0-0.69,0.29-1.25,0.86-1.69s1.3-0.66,2.16-0.66
		c0.93,0,1.65,0.2,2.17,0.6c0.52,0.4,0.78,0.97,0.78,1.7c0,0.36-0.11,0.68-0.32,0.98c-0.21,0.3-0.52,0.54-0.92,0.71
		c0.92,0.31,1.38,0.93,1.38,1.84c0,0.73-0.28,1.3-0.84,1.73s-1.31,0.64-2.25,0.64c-0.91,0-1.67-0.22-2.26-0.67
		c-0.59-0.45-0.89-1.05-0.89-1.81h1.35c0,0.39,0.17,0.72,0.52,0.99c0.34,0.28,0.77,0.41,1.29,0.41c0.52,0,0.94-0.12,1.25-0.36
		c0.32-0.24,0.48-0.55,0.48-0.93c0-0.44-0.13-0.76-0.4-0.95s-0.68-0.29-1.24-0.29h-1.35v-1.15h1.47
		C62.28,296.05,62.74,295.67,62.74,294.93z M72.48,300.69h-1.35v-3.38h-3.64v3.38h-1.36v-7.92h1.36v3.44h3.64v-3.44h1.35V300.69z
		 M77.94,300.83c-1.07,0-1.95-0.35-2.62-1.06c-0.67-0.71-1.01-1.65-1.01-2.83v-0.25c0-0.79,0.15-1.49,0.45-2.11
		c0.3-0.62,0.72-1.1,1.26-1.45c0.54-0.35,1.12-0.52,1.75-0.52c1.03,0,1.83,0.34,2.4,1.02s0.86,1.65,0.86,2.92v0.56h-5.37
		c0.02,0.78,0.25,1.41,0.68,1.89s0.99,0.72,1.67,0.72c0.48,0,0.88-0.1,1.22-0.29s0.62-0.45,0.87-0.78l0.83,0.64
		C80.26,300.32,79.27,300.83,77.94,300.83z M77.77,293.73c-0.55,0-1.01,0.2-1.38,0.6c-0.37,0.4-0.6,0.96-0.69,1.67h3.97v-0.1
		c-0.04-0.69-0.22-1.22-0.56-1.6C78.79,293.92,78.34,293.73,77.77,293.73z M85.78,299.73c0.48,0,0.91-0.15,1.27-0.44
		s0.56-0.66,0.6-1.1h1.28c-0.02,0.45-0.18,0.89-0.47,1.3s-0.67,0.74-1.15,0.98c-0.48,0.24-0.99,0.37-1.53,0.37
		c-1.08,0-1.94-0.36-2.57-1.08c-0.64-0.72-0.96-1.71-0.96-2.96v-0.23c0-0.77,0.14-1.46,0.42-2.06s0.69-1.07,1.22-1.4
		c0.53-0.33,1.16-0.5,1.88-0.5c0.89,0,1.63,0.27,2.22,0.8s0.9,1.22,0.94,2.07h-1.28c-0.04-0.51-0.23-0.93-0.58-1.26
		c-0.35-0.33-0.78-0.49-1.29-0.49c-0.69,0-1.22,0.25-1.6,0.74c-0.38,0.5-0.57,1.21-0.57,2.15v0.26c0,0.91,0.19,1.62,0.56,2.11
		S85.08,299.73,85.78,299.73z M93.04,298.7l1.85-5.94h1.45l-3.19,9.15c-0.49,1.32-1.28,1.98-2.35,1.98l-0.26-0.02l-0.51-0.1v-1.1
		l0.37,0.03c0.46,0,0.82-0.09,1.07-0.28c0.26-0.19,0.47-0.52,0.63-1.02l0.3-0.81l-2.83-7.84h1.48L93.04,298.7z M34.87,151.42
		c0-0.57-0.21-1.02-0.62-1.35c-0.41-0.34-0.99-0.5-1.74-0.5c-0.62,0-1.15,0.17-1.57,0.52s-0.63,0.77-0.63,1.28H28.9
		c0-0.57,0.15-1.07,0.47-1.52c0.31-0.45,0.74-0.8,1.3-1.05c0.56-0.25,1.17-0.38,1.85-0.38c1.19,0,2.12,0.27,2.78,0.8
		c0.66,0.53,0.99,1.28,0.99,2.23c0,0.49-0.15,0.94-0.45,1.35c-0.3,0.41-0.73,0.72-1.27,0.96c1.25,0.42,1.88,1.25,1.88,2.5
		c0,0.96-0.36,1.72-1.07,2.28s-1.67,0.84-2.86,0.84c-0.71,0-1.35-0.13-1.93-0.38c-0.58-0.25-1.03-0.61-1.35-1.07
		s-0.48-1.02-0.48-1.66h1.41c0,0.56,0.22,1.03,0.67,1.4s1.01,0.56,1.69,0.56c0.77,0,1.38-0.18,1.83-0.53
		c0.46-0.36,0.68-0.83,0.68-1.41c0-1.25-0.77-1.89-2.32-1.91h-1.32v-1.15h1.31c0.71-0.01,1.25-0.18,1.62-0.48
		C34.69,152.42,34.87,151.98,34.87,151.42z M42.98,159.22c-0.08-0.16-0.14-0.43-0.19-0.83c-0.63,0.65-1.38,0.98-2.26,0.98
		c-0.78,0-1.42-0.22-1.92-0.66c-0.5-0.44-0.75-1-0.75-1.68c0-0.83,0.31-1.47,0.94-1.92c0.63-0.46,1.51-0.68,2.65-0.68h1.32v-0.62
		c0-0.47-0.14-0.85-0.42-1.13s-0.7-0.42-1.25-0.42c-0.48,0-0.89,0.12-1.22,0.37s-0.49,0.54-0.49,0.89h-1.36
		c0-0.4,0.14-0.78,0.42-1.15c0.28-0.37,0.66-0.66,1.14-0.88c0.48-0.21,1.01-0.32,1.59-0.32c0.91,0,1.63,0.23,2.15,0.68
		c0.52,0.46,0.79,1.09,0.81,1.89v3.65c0,0.73,0.09,1.31,0.28,1.74v0.12H42.98z M40.73,158.19c0.42,0,0.83-0.11,1.21-0.33
		s0.66-0.51,0.83-0.86v-1.63h-1.06c-1.66,0-2.49,0.49-2.49,1.46c0,0.42,0.14,0.76,0.42,1S40.29,158.19,40.73,158.19z M52.02,152.4
		h-2.66v6.83h-1.35v-6.83H45.4v-1.1h6.62V152.4z M60.03,155.35c0,1.21-0.28,2.18-0.83,2.92s-1.3,1.11-2.24,1.11
		c-0.96,0-1.72-0.31-2.27-0.92v3.82h-1.35V151.3h1.24l0.07,0.88c0.55-0.68,1.32-1.03,2.3-1.03c0.95,0,1.71,0.36,2.26,1.08
		c0.55,0.72,0.83,1.72,0.83,3V155.35z M58.68,155.19c0-0.89-0.19-1.6-0.57-2.12s-0.9-0.78-1.57-0.78c-0.82,0-1.44,0.36-1.85,1.09
		v3.79c0.41,0.72,1.03,1.08,1.86,1.08c0.65,0,1.17-0.26,1.55-0.77C58.48,156.98,58.68,156.21,58.68,155.19z M66.65,159.22
		c-0.08-0.16-0.14-0.43-0.19-0.83c-0.63,0.65-1.38,0.98-2.26,0.98c-0.78,0-1.42-0.22-1.92-0.66c-0.5-0.44-0.75-1-0.75-1.68
		c0-0.83,0.31-1.47,0.94-1.92c0.63-0.46,1.51-0.68,2.65-0.68h1.32v-0.62c0-0.47-0.14-0.85-0.42-1.13s-0.7-0.42-1.25-0.42
		c-0.48,0-0.89,0.12-1.22,0.37s-0.49,0.54-0.49,0.89h-1.36c0-0.4,0.14-0.78,0.42-1.15c0.28-0.37,0.66-0.66,1.14-0.88
		c0.48-0.21,1.01-0.32,1.59-0.32c0.91,0,1.63,0.23,2.15,0.68c0.52,0.46,0.79,1.09,0.81,1.89v3.65c0,0.73,0.09,1.31,0.28,1.74v0.12
		H66.65z M64.4,158.19c0.42,0,0.83-0.11,1.21-0.33s0.66-0.51,0.83-0.86v-1.63h-1.06c-1.66,0-2.49,0.49-2.49,1.46
		c0,0.42,0.14,0.76,0.42,1S63.95,158.19,64.4,158.19z M75.68,152.4h-2.66v6.83h-1.35v-6.83h-2.61v-1.1h6.62V152.4z M78.48,154.03
		h2.06c0.9,0.01,1.61,0.24,2.13,0.7s0.78,1.08,0.78,1.87c0,0.79-0.27,1.43-0.81,1.9s-1.26,0.72-2.17,0.72h-3.35v-7.92h1.35V154.03z
		 M78.48,155.14v2.98h2.01c0.51,0,0.9-0.13,1.18-0.39c0.28-0.26,0.42-0.62,0.42-1.07c0-0.44-0.14-0.8-0.41-1.08
		c-0.27-0.28-0.65-0.43-1.14-0.44H78.48z M86.28,159.22h-1.36v-7.92h1.36V159.22z M98.84,159.22h-1.35v-3.38h-3.64v3.38h-1.36v-7.92
		h1.36v3.44h3.64v-3.44h1.35V159.22z M105.9,159.22c-0.08-0.16-0.14-0.43-0.19-0.83c-0.63,0.65-1.38,0.98-2.26,0.98
		c-0.78,0-1.42-0.22-1.92-0.66c-0.5-0.44-0.75-1-0.75-1.68c0-0.83,0.31-1.47,0.94-1.92c0.63-0.46,1.51-0.68,2.65-0.68h1.32v-0.62
		c0-0.47-0.14-0.85-0.42-1.13s-0.7-0.42-1.25-0.42c-0.48,0-0.89,0.12-1.22,0.37s-0.49,0.54-0.49,0.89h-1.36
		c0-0.4,0.14-0.78,0.42-1.15c0.28-0.37,0.66-0.66,1.14-0.88c0.48-0.21,1.01-0.32,1.59-0.32c0.91,0,1.63,0.23,2.15,0.68
		c0.52,0.46,0.79,1.09,0.81,1.89v3.65c0,0.73,0.09,1.31,0.28,1.74v0.12H105.9z M103.65,158.19c0.42,0,0.83-0.11,1.21-0.33
		s0.66-0.51,0.83-0.86v-1.63h-1.06c-1.66,0-2.49,0.49-2.49,1.46c0,0.42,0.14,0.76,0.42,1S103.21,158.19,103.65,158.19z
		 M117.24,153.47c0-0.37-0.14-0.67-0.42-0.88c-0.28-0.22-0.67-0.33-1.16-0.33c-0.48,0-0.88,0.12-1.2,0.37
		c-0.32,0.25-0.48,0.54-0.48,0.88h-1.35c0-0.69,0.29-1.25,0.86-1.69s1.3-0.66,2.16-0.66c0.93,0,1.65,0.2,2.17,0.6
		c0.52,0.4,0.78,0.97,0.78,1.7c0,0.36-0.11,0.68-0.32,0.98c-0.21,0.3-0.52,0.54-0.92,0.71c0.92,0.31,1.38,0.93,1.38,1.84
		c0,0.73-0.28,1.3-0.84,1.73s-1.31,0.64-2.25,0.64c-0.91,0-1.67-0.22-2.26-0.67c-0.59-0.45-0.89-1.05-0.89-1.81h1.35
		c0,0.39,0.17,0.72,0.52,0.99c0.34,0.28,0.77,0.41,1.29,0.41c0.52,0,0.94-0.12,1.25-0.36c0.32-0.24,0.48-0.55,0.48-0.93
		c0-0.44-0.13-0.76-0.4-0.95s-0.68-0.29-1.24-0.29h-1.35v-1.15h1.47C116.78,154.58,117.24,154.2,117.24,153.47z M120.43,158.12
		l0.47-0.58c0.53-0.68,0.83-1.71,0.9-3.08l0.12-3.16h5.1v6.82h1.02v3.44h-1.35v-2.33h-5.53v2.33h-1.35l0.01-3.44H120.43z
		 M122.04,158.12h3.64v-5.57h-2.44l-0.08,1.89C123.08,156.02,122.7,157.24,122.04,158.12z M136.25,155.35
		c0,1.21-0.28,2.18-0.83,2.92s-1.3,1.11-2.24,1.11c-0.96,0-1.72-0.31-2.27-0.92v3.82h-1.35V151.3h1.24l0.07,0.88
		c0.55-0.68,1.32-1.03,2.3-1.03c0.95,0,1.71,0.36,2.26,1.08c0.55,0.72,0.83,1.72,0.83,3V155.35z M134.89,155.19
		c0-0.89-0.19-1.6-0.57-2.12s-0.9-0.78-1.57-0.78c-0.82,0-1.44,0.36-1.85,1.09v3.79c0.41,0.72,1.03,1.08,1.86,1.08
		c0.65,0,1.17-0.26,1.55-0.77C134.7,156.98,134.89,156.21,134.89,155.19z M142.86,159.22c-0.08-0.16-0.14-0.43-0.19-0.83
		c-0.63,0.65-1.38,0.98-2.26,0.98c-0.78,0-1.42-0.22-1.92-0.66c-0.5-0.44-0.75-1-0.75-1.68c0-0.83,0.31-1.47,0.94-1.92
		c0.63-0.46,1.51-0.68,2.65-0.68h1.32v-0.62c0-0.47-0.14-0.85-0.42-1.13s-0.7-0.42-1.25-0.42c-0.48,0-0.89,0.12-1.22,0.37
		s-0.49,0.54-0.49,0.89h-1.36c0-0.4,0.14-0.78,0.42-1.15c0.28-0.37,0.66-0.66,1.14-0.88c0.48-0.21,1.01-0.32,1.59-0.32
		c0.91,0,1.63,0.23,2.15,0.68c0.52,0.46,0.79,1.09,0.81,1.89v3.65c0,0.73,0.09,1.31,0.28,1.74v0.12H142.86z M140.61,158.19
		c0.42,0,0.83-0.11,1.21-0.33s0.66-0.51,0.83-0.86v-1.63h-1.06c-1.66,0-2.49,0.49-2.49,1.46c0,0.42,0.14,0.76,0.42,1
		S140.17,158.19,140.61,158.19z M146.25,159.22v-7.92h3.09c1.05,0,1.86,0.18,2.43,0.55c0.56,0.37,0.85,0.91,0.85,1.62
		c0,0.37-0.11,0.7-0.33,0.99s-0.54,0.52-0.97,0.68c0.48,0.11,0.86,0.33,1.15,0.66s0.44,0.72,0.44,1.17c0,0.73-0.27,1.28-0.8,1.67
		c-0.53,0.39-1.29,0.58-2.27,0.58H146.25z M147.61,154.66h1.75c1.27,0,1.9-0.37,1.9-1.11s-0.6-1.13-1.8-1.15h-1.85V154.66z
		 M147.61,155.74v2.39h2.24c0.57,0,0.99-0.1,1.27-0.31s0.42-0.51,0.42-0.89c0-0.79-0.58-1.19-1.74-1.19H147.61z M154.34,155.19
		c0-0.78,0.15-1.47,0.46-2.09s0.73-1.1,1.27-1.44s1.17-0.51,1.86-0.51c1.08,0,1.95,0.37,2.62,1.12c0.67,0.75,1,1.74,1,2.98v0.1
		c0,0.77-0.15,1.46-0.44,2.08s-0.72,1.09-1.27,1.43c-0.55,0.34-1.18,0.51-1.89,0.51c-1.07,0-1.94-0.37-2.61-1.12
		c-0.67-0.75-1-1.74-1-2.97V155.19z M155.7,155.35c0,0.88,0.2,1.58,0.61,2.12c0.41,0.53,0.95,0.8,1.64,0.8
		c0.69,0,1.24-0.27,1.64-0.81s0.61-1.3,0.61-2.27c0-0.87-0.21-1.57-0.62-2.11c-0.41-0.54-0.96-0.81-1.64-0.81
		c-0.67,0-1.21,0.27-1.62,0.8S155.7,154.36,155.7,155.35z M162.89,155.19c0-0.78,0.15-1.47,0.46-2.09s0.73-1.1,1.27-1.44
		s1.17-0.51,1.86-0.51c1.08,0,1.95,0.37,2.62,1.12c0.67,0.75,1,1.74,1,2.98v0.1c0,0.77-0.15,1.46-0.44,2.08s-0.72,1.09-1.27,1.43
		c-0.55,0.34-1.18,0.51-1.89,0.51c-1.07,0-1.94-0.37-2.61-1.12c-0.67-0.75-1-1.74-1-2.97V155.19z M164.26,155.35
		c0,0.88,0.2,1.58,0.61,2.12c0.41,0.53,0.95,0.8,1.64,0.8c0.69,0,1.24-0.27,1.64-0.81s0.61-1.3,0.61-2.27
		c0-0.87-0.21-1.57-0.62-2.11c-0.41-0.54-0.96-0.81-1.64-0.81c-0.67,0-1.21,0.27-1.62,0.8S164.26,154.36,164.26,155.35z
		 M174.31,154.19l1.76-2.89h1.58l-2.59,3.92l2.67,4.01h-1.57l-1.83-2.97l-1.83,2.97h-1.57l2.67-4.01l-2.59-3.92h1.57L174.31,154.19z
		 M185.78,155.35c0,1.21-0.28,2.18-0.83,2.92s-1.3,1.11-2.24,1.11c-0.96,0-1.72-0.31-2.27-0.92v3.82h-1.35V151.3h1.24l0.07,0.88
		c0.55-0.68,1.32-1.03,2.3-1.03c0.95,0,1.71,0.36,2.26,1.08c0.55,0.72,0.83,1.72,0.83,3V155.35z M184.43,155.19
		c0-0.89-0.19-1.6-0.57-2.12s-0.9-0.78-1.57-0.78c-0.82,0-1.44,0.36-1.85,1.09v3.79c0.41,0.72,1.03,1.08,1.86,1.08
		c0.65,0,1.17-0.26,1.55-0.77C184.23,156.98,184.43,156.21,184.43,155.19z M192.4,159.22c-0.08-0.16-0.14-0.43-0.19-0.83
		c-0.63,0.65-1.38,0.98-2.26,0.98c-0.78,0-1.42-0.22-1.92-0.66c-0.5-0.44-0.75-1-0.75-1.68c0-0.83,0.31-1.47,0.94-1.92
		c0.63-0.46,1.51-0.68,2.65-0.68h1.32v-0.62c0-0.47-0.14-0.85-0.42-1.13s-0.7-0.42-1.25-0.42c-0.48,0-0.89,0.12-1.22,0.37
		s-0.49,0.54-0.49,0.89h-1.36c0-0.4,0.14-0.78,0.42-1.15c0.28-0.37,0.66-0.66,1.14-0.88c0.48-0.21,1.01-0.32,1.59-0.32
		c0.91,0,1.63,0.23,2.15,0.68c0.52,0.46,0.79,1.09,0.81,1.89v3.65c0,0.73,0.09,1.31,0.28,1.74v0.12H192.4z M190.15,158.19
		c0.42,0,0.83-0.11,1.21-0.33s0.66-0.51,0.83-0.86v-1.63h-1.06c-1.66,0-2.49,0.49-2.49,1.46c0,0.42,0.14,0.76,0.42,1
		S189.7,158.19,190.15,158.19z M202.14,159.22h-1.35v-3.38h-3.64v3.38h-1.36v-7.92h1.36v3.44h3.64v-3.44h1.35V159.22z M207.6,159.37
		c-1.07,0-1.95-0.35-2.62-1.06c-0.67-0.71-1.01-1.65-1.01-2.83v-0.25c0-0.79,0.15-1.49,0.45-2.11c0.3-0.62,0.72-1.1,1.26-1.45
		c0.54-0.35,1.12-0.52,1.75-0.52c1.03,0,1.83,0.34,2.4,1.02s0.86,1.65,0.86,2.92v0.56h-5.37c0.02,0.78,0.25,1.41,0.68,1.89
		s0.99,0.72,1.67,0.72c0.48,0,0.88-0.1,1.22-0.29s0.62-0.45,0.87-0.78l0.83,0.64C209.92,158.86,208.93,159.37,207.6,159.37z
		 M207.43,152.26c-0.55,0-1.01,0.2-1.38,0.6c-0.37,0.4-0.6,0.96-0.69,1.67h3.97v-0.1c-0.04-0.69-0.22-1.22-0.56-1.6
		C208.45,152.45,208,152.26,207.43,152.26z M218.73,159.22h-1.35v-3.38h-3.64v3.38h-1.36v-7.92h1.36v3.44h3.64v-3.44h1.35V159.22z
		 M226.04,151.3h1.35v7.92h-1.35v-5.78l-3.65,5.78h-1.35v-7.92h1.35v5.79L226.04,151.3z M232.85,159.37c-1.07,0-1.95-0.35-2.62-1.06
		c-0.67-0.71-1.01-1.65-1.01-2.83v-0.25c0-0.79,0.15-1.49,0.45-2.11c0.3-0.62,0.72-1.1,1.26-1.45c0.54-0.35,1.12-0.52,1.75-0.52
		c1.03,0,1.83,0.34,2.4,1.02s0.86,1.65,0.86,2.92v0.56h-5.37c0.02,0.78,0.25,1.41,0.68,1.89s0.99,0.72,1.67,0.72
		c0.48,0,0.88-0.1,1.22-0.29s0.62-0.45,0.87-0.78l0.83,0.64C235.18,158.86,234.18,159.37,232.85,159.37z M232.69,152.26
		c-0.55,0-1.01,0.2-1.38,0.6c-0.37,0.4-0.6,0.96-0.69,1.67h3.97v-0.1c-0.04-0.69-0.22-1.22-0.56-1.6
		C233.7,152.45,233.25,152.26,232.69,152.26z M267.14,89V78.34h3.49c1.16,0,2.03,0.24,2.61,0.72s0.88,1.19,0.88,2.12
		c0,0.5-0.14,0.94-0.42,1.32s-0.67,0.68-1.16,0.89c0.58,0.16,1.03,0.47,1.37,0.92c0.33,0.45,0.5,0.99,0.5,1.62
		c0,0.96-0.31,1.71-0.93,2.26s-1.5,0.82-2.63,0.82H267.14z M268.54,82.89h2.12c0.62,0,1.11-0.15,1.48-0.46
		c0.37-0.31,0.55-0.73,0.55-1.25c0-0.59-0.17-1.01-0.51-1.28s-0.86-0.4-1.56-0.4h-2.08V82.89z M268.54,84.02v3.84h2.32
		c0.65,0,1.17-0.17,1.55-0.51c0.38-0.34,0.57-0.81,0.57-1.4c0-1.28-0.7-1.93-2.09-1.93H268.54z M277.74,83.81h2.06
		c0.9,0.01,1.61,0.24,2.13,0.7s0.78,1.08,0.78,1.87c0,0.79-0.27,1.43-0.81,1.9S280.65,89,279.74,89h-3.35v-7.92h1.35V83.81z
		 M277.74,84.92v2.98h2.01c0.51,0,0.9-0.13,1.18-0.39c0.28-0.26,0.42-0.62,0.42-1.07c0-0.44-0.14-0.8-0.41-1.08
		c-0.27-0.28-0.65-0.43-1.14-0.44H277.74z M285.54,89h-1.36v-7.92h1.36V89z M294.39,89h-1.35v-6.8h-3.65V89h-1.36v-7.92h6.36V89z
		 M303.06,81.08V89h-1.36v-6.8H299l-0.16,2.97c-0.09,1.36-0.32,2.34-0.69,2.92s-0.95,0.89-1.75,0.92h-0.54v-1.19l0.39-0.03
		c0.44-0.05,0.75-0.3,0.94-0.76s0.31-1.31,0.37-2.55l0.15-3.39H303.06z M310.13,89c-0.08-0.16-0.14-0.43-0.19-0.83
		c-0.63,0.65-1.38,0.98-2.26,0.98c-0.78,0-1.42-0.22-1.92-0.66c-0.5-0.44-0.75-1-0.75-1.68c0-0.83,0.31-1.47,0.94-1.92
		c0.63-0.46,1.51-0.68,2.65-0.68h1.32v-0.62c0-0.47-0.14-0.85-0.42-1.13s-0.7-0.42-1.25-0.42c-0.48,0-0.89,0.12-1.22,0.37
		s-0.49,0.54-0.49,0.89h-1.36c0-0.4,0.14-0.78,0.42-1.15c0.28-0.37,0.66-0.66,1.14-0.88c0.48-0.21,1.01-0.32,1.59-0.32
		c0.91,0,1.63,0.23,2.15,0.68c0.52,0.46,0.79,1.09,0.81,1.89v3.65c0,0.73,0.09,1.31,0.28,1.74V89H310.13z M307.88,87.97
		c0.42,0,0.83-0.11,1.21-0.33s0.66-0.51,0.83-0.86v-1.63h-1.06c-1.66,0-2.49,0.49-2.49,1.46c0,0.42,0.14,0.76,0.42,1
		S307.44,87.97,307.88,87.97z M319.17,82.18h-2.66V89h-1.35v-6.83h-2.61v-1.1h6.62V82.18z M321.97,83.81h2.06
		c0.9,0.01,1.61,0.24,2.13,0.7s0.78,1.08,0.78,1.87c0,0.79-0.27,1.43-0.81,1.9S324.87,89,323.96,89h-3.35v-7.92h1.35V83.81z
		 M321.97,84.92v2.98h2.01c0.51,0,0.9-0.13,1.18-0.39c0.28-0.26,0.42-0.62,0.42-1.07c0-0.44-0.14-0.8-0.41-1.08
		c-0.27-0.28-0.65-0.43-1.14-0.44H321.97z M329.77,89h-1.36v-7.92h1.36V89z M340.41,87.21l2.7-6.13h1.69V89h-1.35v-5.76L340.88,89
		h-0.94l-2.61-5.89V89h-1.35v-7.92h1.76L340.41,87.21z M350.26,89.15c-1.07,0-1.95-0.35-2.62-1.06c-0.67-0.71-1.01-1.65-1.01-2.83
		v-0.25c0-0.79,0.15-1.49,0.45-2.11c0.3-0.62,0.72-1.1,1.26-1.45c0.54-0.35,1.12-0.52,1.75-0.52c1.03,0,1.83,0.34,2.4,1.02
		s0.86,1.65,0.86,2.92v0.56h-5.37c0.02,0.78,0.25,1.41,0.68,1.89s0.99,0.72,1.67,0.72c0.48,0,0.88-0.1,1.22-0.29
		s0.62-0.45,0.87-0.78l0.83,0.64C352.58,88.64,351.59,89.15,350.26,89.15z M350.09,82.05c-0.55,0-1.01,0.2-1.38,0.6
		c-0.37,0.4-0.6,0.96-0.69,1.67h3.97v-0.1c-0.04-0.69-0.22-1.22-0.56-1.6C351.11,82.24,350.66,82.05,350.09,82.05z M354.85,87.9
		l0.47-0.58c0.53-0.68,0.83-1.71,0.9-3.08l0.12-3.16h5.11v6.82h1.02v3.44h-1.35V89h-5.53v2.33h-1.35l0.01-3.44H354.85z M356.46,87.9
		h3.64v-5.57h-2.44l-0.08,1.89C357.49,85.8,357.12,87.02,356.46,87.9z M369.1,81.08h1.36V89h-1.36v-5.78L365.44,89h-1.35v-7.92h1.35
		v5.79L369.1,81.08z M375.09,85.63h-0.99V89h-1.36v-7.92h1.36v3.35h0.89l2.67-3.35h1.64l-3.13,3.81l3.4,4.12h-1.72L375.09,85.63z
		 M385.62,89c-0.08-0.16-0.14-0.43-0.19-0.83c-0.63,0.65-1.38,0.98-2.26,0.98c-0.78,0-1.42-0.22-1.92-0.66
		c-0.5-0.44-0.75-1-0.75-1.68c0-0.83,0.31-1.47,0.94-1.92c0.63-0.46,1.51-0.68,2.65-0.68h1.32v-0.62c0-0.47-0.14-0.85-0.42-1.13
		c-0.28-0.28-0.7-0.42-1.25-0.42c-0.48,0-0.89,0.12-1.22,0.37s-0.49,0.54-0.49,0.89h-1.36c0-0.4,0.14-0.78,0.42-1.15
		c0.28-0.37,0.66-0.66,1.14-0.88c0.48-0.21,1.01-0.32,1.59-0.32c0.91,0,1.63,0.23,2.15,0.68c0.52,0.46,0.79,1.09,0.81,1.89v3.65
		c0,0.73,0.09,1.31,0.28,1.74V89H385.62z M383.37,87.97c0.42,0,0.83-0.11,1.21-0.33s0.66-0.51,0.83-0.86v-1.63h-1.06
		c-1.66,0-2.49,0.49-2.49,1.46c0,0.42,0.14,0.76,0.42,1S382.93,87.97,383.37,87.97z M393.45,87.21l2.7-6.13h1.69V89h-1.35v-5.76
		L393.92,89h-0.94l-2.61-5.89V89h-1.35v-7.92h1.76L393.45,87.21z M459.26,89h-1.41v-9.51h-5.26V89h-1.41V78.34h8.08V89z
		 M461.25,84.97c0-0.78,0.15-1.47,0.46-2.09c0.31-0.62,0.73-1.1,1.27-1.44c0.54-0.34,1.17-0.51,1.86-0.51
		c1.08,0,1.95,0.37,2.62,1.12c0.67,0.75,1,1.74,1,2.98v0.1c0,0.77-0.15,1.46-0.44,2.08c-0.29,0.61-0.72,1.09-1.27,1.43
		c-0.55,0.34-1.18,0.51-1.89,0.51c-1.07,0-1.94-0.37-2.61-1.12c-0.67-0.75-1-1.74-1-2.97V84.97z M462.61,85.13
		c0,0.88,0.2,1.58,0.61,2.12c0.41,0.53,0.95,0.8,1.64,0.8c0.69,0,1.24-0.27,1.64-0.81s0.61-1.3,0.61-2.27
		c0-0.87-0.21-1.57-0.62-2.11c-0.41-0.54-0.96-0.81-1.64-0.81c-0.67,0-1.21,0.27-1.62,0.8S462.61,84.14,462.61,85.13z M475.89,82.18
		h-2.66V89h-1.36v-6.83h-2.61v-1.1h6.62V82.18z M479.91,89.15c-1.07,0-1.95-0.35-2.62-1.06c-0.67-0.71-1.01-1.65-1.01-2.83v-0.25
		c0-0.79,0.15-1.49,0.45-2.11c0.3-0.62,0.72-1.1,1.26-1.45c0.54-0.35,1.12-0.52,1.75-0.52c1.03,0,1.83,0.34,2.4,1.02
		S483,83.6,483,84.87v0.56h-5.37c0.02,0.78,0.25,1.41,0.68,1.89c0.44,0.48,0.99,0.72,1.67,0.72c0.48,0,0.88-0.1,1.22-0.29
		s0.62-0.45,0.87-0.78l0.83,0.64C482.23,88.64,481.24,89.15,479.91,89.15z M479.74,82.05c-0.55,0-1.01,0.2-1.38,0.6
		c-0.37,0.4-0.6,0.96-0.69,1.67h3.97v-0.1c-0.04-0.69-0.22-1.22-0.56-1.6C480.76,82.24,480.31,82.05,479.74,82.05z M491.26,85.13
		c0,1.21-0.28,2.18-0.83,2.92s-1.3,1.11-2.24,1.11c-0.96,0-1.72-0.31-2.27-0.92v3.82h-1.35V81.08h1.24l0.07,0.88
		c0.55-0.68,1.32-1.03,2.3-1.03c0.95,0,1.71,0.36,2.26,1.08c0.55,0.72,0.83,1.72,0.83,3V85.13z M489.91,84.98
		c0-0.89-0.19-1.6-0.57-2.12s-0.9-0.78-1.57-0.78c-0.82,0-1.44,0.36-1.85,1.09v3.79c0.41,0.72,1.03,1.08,1.86,1.08
		c0.65,0,1.17-0.26,1.55-0.77C489.71,86.76,489.91,85.99,489.91,84.98z M498.11,81.08h1.36V89h-1.36v-5.78L494.46,89h-1.36v-7.92
		h1.36v5.79L498.11,81.08z M504.99,84.97c0-0.78,0.15-1.47,0.46-2.09c0.3-0.62,0.73-1.1,1.27-1.44c0.54-0.34,1.17-0.51,1.86-0.51
		c1.08,0,1.95,0.37,2.62,1.12c0.67,0.75,1,1.74,1,2.98v0.1c0,0.77-0.15,1.46-0.44,2.08c-0.3,0.61-0.72,1.09-1.27,1.43
		c-0.55,0.34-1.18,0.51-1.89,0.51c-1.07,0-1.94-0.37-2.61-1.12c-0.67-0.75-1-1.74-1-2.97V84.97z M506.36,85.13
		c0,0.88,0.2,1.58,0.61,2.12c0.41,0.53,0.95,0.8,1.64,0.8c0.69,0,1.24-0.27,1.64-0.81s0.61-1.3,0.61-2.27
		c0-0.87-0.21-1.57-0.62-2.11c-0.41-0.54-0.96-0.81-1.64-0.81c-0.67,0-1.21,0.27-1.62,0.8S506.36,84.14,506.36,85.13z M519.64,82.18
		h-2.66V89h-1.35v-6.83h-2.61v-1.1h6.62V82.18z M531.16,81.08V89h-1.36v-6.8h-2.7l-0.16,2.97c-0.09,1.36-0.32,2.34-0.69,2.92
		c-0.37,0.59-0.95,0.89-1.75,0.92h-0.54v-1.19l0.39-0.03c0.44-0.05,0.75-0.3,0.94-0.76s0.31-1.31,0.37-2.55l0.15-3.39H531.16z
		 M532.98,84.97c0-0.78,0.15-1.47,0.46-2.09c0.31-0.62,0.73-1.1,1.27-1.44c0.54-0.34,1.17-0.51,1.86-0.51
		c1.08,0,1.95,0.37,2.62,1.12c0.67,0.75,1,1.74,1,2.98v0.1c0,0.77-0.15,1.46-0.44,2.08c-0.29,0.61-0.72,1.09-1.27,1.43
		c-0.55,0.34-1.18,0.51-1.89,0.51c-1.07,0-1.94-0.37-2.61-1.12c-0.67-0.75-1-1.74-1-2.97V84.97z M534.34,85.13
		c0,0.88,0.2,1.58,0.61,2.12c0.41,0.53,0.95,0.8,1.64,0.8c0.69,0,1.24-0.27,1.64-0.81s0.61-1.3,0.61-2.27
		c0-0.87-0.21-1.57-0.62-2.11c-0.41-0.54-0.96-0.81-1.64-0.81c-0.67,0-1.21,0.27-1.62,0.8S534.34,84.14,534.34,85.13z M544.36,85.63
		h-0.99V89h-1.36v-7.92h1.36v3.35h0.89l2.67-3.35h1.64l-3.13,3.81l3.4,4.12h-1.72L544.36,85.63z M549.93,87.9l0.47-0.58
		c0.53-0.68,0.83-1.71,0.9-3.08l0.12-3.16h5.11v6.82h1.02v3.44h-1.36V89h-5.53v2.33h-1.36l0.01-3.44H549.93z M551.53,87.9h3.64
		v-5.57h-2.44l-0.08,1.89C552.57,85.8,552.2,87.02,551.53,87.9z M563.94,89c-0.08-0.16-0.14-0.43-0.19-0.83
		c-0.63,0.65-1.38,0.98-2.26,0.98c-0.78,0-1.42-0.22-1.92-0.66c-0.5-0.44-0.75-1-0.75-1.68c0-0.83,0.31-1.47,0.94-1.92
		c0.63-0.46,1.51-0.68,2.65-0.68h1.32v-0.62c0-0.47-0.14-0.85-0.42-1.13c-0.28-0.28-0.7-0.42-1.25-0.42c-0.48,0-0.89,0.12-1.22,0.37
		s-0.49,0.54-0.49,0.89h-1.36c0-0.4,0.14-0.78,0.42-1.15c0.28-0.37,0.66-0.66,1.14-0.88c0.48-0.21,1.01-0.32,1.59-0.32
		c0.91,0,1.63,0.23,2.15,0.68c0.52,0.46,0.79,1.09,0.81,1.89v3.65c0,0.73,0.09,1.31,0.28,1.74V89H563.94z M561.69,87.97
		c0.42,0,0.83-0.11,1.21-0.33s0.66-0.51,0.83-0.86v-1.63h-1.06c-1.66,0-2.49,0.49-2.49,1.46c0,0.42,0.14,0.76,0.42,1
		S561.25,87.97,561.69,87.97z M569.69,87.02l1.85-5.94h1.45l-3.19,9.15c-0.49,1.32-1.28,1.98-2.35,1.98l-0.26-0.02l-0.51-0.1v-1.1
		l0.37,0.03c0.46,0,0.82-0.09,1.07-0.28c0.26-0.19,0.47-0.52,0.63-1.02l0.3-0.81l-2.83-7.84h1.48L569.69,87.02z M580.67,89h-1.36
		v-3.38h-3.64V89h-1.36v-7.92h1.36v3.44h3.64v-3.44h1.36V89z M587.74,89c-0.08-0.16-0.14-0.43-0.19-0.83
		c-0.63,0.65-1.38,0.98-2.26,0.98c-0.78,0-1.42-0.22-1.92-0.66c-0.5-0.44-0.75-1-0.75-1.68c0-0.83,0.31-1.47,0.94-1.92
		c0.63-0.46,1.51-0.68,2.65-0.68h1.32v-0.62c0-0.47-0.14-0.85-0.42-1.13c-0.28-0.28-0.7-0.42-1.25-0.42c-0.48,0-0.89,0.12-1.22,0.37
		s-0.49,0.54-0.49,0.89h-1.36c0-0.4,0.14-0.78,0.42-1.15c0.28-0.37,0.66-0.66,1.14-0.88c0.48-0.21,1.01-0.32,1.59-0.32
		c0.91,0,1.63,0.23,2.15,0.68c0.52,0.46,0.79,1.09,0.81,1.89v3.65c0,0.73,0.09,1.31,0.28,1.74V89H587.74z M585.49,87.97
		c0.42,0,0.83-0.11,1.21-0.33s0.66-0.51,0.83-0.86v-1.63h-1.06c-1.66,0-2.49,0.49-2.49,1.46c0,0.42,0.14,0.76,0.42,1
		S585.04,87.97,585.49,87.97z"/>
	<path class="st6" d="M7.87,639.54h1.41v10.66H7.87v-8.22l-5.25,8.22H1.2v-10.66h1.41v8.22L7.87,639.54z M14.8,649.25
		c0.48,0,0.91-0.15,1.27-0.44s0.56-0.66,0.6-1.1h1.28c-0.02,0.46-0.18,0.89-0.47,1.3s-0.67,0.74-1.15,0.98
		c-0.48,0.24-0.99,0.37-1.53,0.37c-1.08,0-1.94-0.36-2.57-1.08c-0.64-0.72-0.96-1.71-0.96-2.96v-0.23c0-0.77,0.14-1.46,0.42-2.06
		c0.28-0.6,0.69-1.07,1.22-1.4c0.53-0.33,1.16-0.5,1.88-0.5c0.89,0,1.63,0.27,2.22,0.8c0.59,0.53,0.9,1.22,0.94,2.07h-1.28
		c-0.04-0.51-0.23-0.93-0.58-1.26c-0.35-0.33-0.78-0.49-1.29-0.49c-0.69,0-1.22,0.25-1.6,0.74c-0.38,0.5-0.57,1.21-0.57,2.15v0.26
		c0,0.91,0.19,1.62,0.56,2.11S14.11,649.25,14.8,649.25z M25.37,643.38h-2.66v6.83h-1.35v-6.83h-2.61v-1.1h6.62V643.38z
		 M26.02,646.17c0-0.78,0.15-1.47,0.46-2.1c0.31-0.62,0.73-1.1,1.27-1.44c0.54-0.34,1.17-0.5,1.86-0.5c1.08,0,1.95,0.37,2.62,1.12
		c0.67,0.75,1,1.74,1,2.98v0.09c0,0.77-0.15,1.46-0.44,2.08c-0.3,0.61-0.72,1.09-1.27,1.43c-0.55,0.34-1.18,0.51-1.89,0.51
		c-1.07,0-1.94-0.37-2.61-1.12c-0.67-0.75-1-1.74-1-2.97V646.17z M27.38,646.33c0,0.88,0.2,1.58,0.61,2.12
		c0.41,0.53,0.95,0.8,1.64,0.8c0.69,0,1.24-0.27,1.64-0.81c0.41-0.54,0.61-1.29,0.61-2.27c0-0.87-0.21-1.57-0.62-2.11
		c-0.41-0.54-0.96-0.81-1.64-0.81c-0.67,0-1.21,0.27-1.62,0.8C27.58,644.58,27.38,645.34,27.38,646.33z M40.92,650.21h-1.36v-2.87
		c-0.6,0.16-1.21,0.23-1.83,0.23c-0.99,0-1.75-0.25-2.27-0.76c-0.52-0.51-0.78-1.23-0.79-2.17v-2.37h1.35v2.41
		c0.02,1.18,0.59,1.77,1.71,1.77c0.62,0,1.24-0.08,1.83-0.23v-3.94h1.36V650.21z M49.56,650.21H48.2v-3.38h-3.64v3.38H43.2v-7.92
		h1.36v3.43h3.64v-3.43h1.35V650.21z M56.86,642.28h1.35v7.92h-1.35v-5.78l-3.65,5.78h-1.35v-7.92h1.35v5.79L56.86,642.28z
		 M62.86,646.83h-0.99v3.38h-1.36v-7.92h1.36v3.35h0.89l2.67-3.35h1.64l-3.13,3.81l3.4,4.12H65.6L62.86,646.83z M68.45,649.5
		c0-0.23,0.07-0.43,0.21-0.59c0.14-0.16,0.35-0.23,0.63-0.23s0.49,0.08,0.63,0.23c0.14,0.16,0.22,0.35,0.22,0.59
		c0,0.23-0.07,0.41-0.22,0.56c-0.14,0.15-0.36,0.23-0.63,0.23s-0.49-0.08-0.63-0.23C68.52,649.91,68.45,649.72,68.45,649.5z
		 M68.45,643.03c0-0.23,0.07-0.43,0.21-0.59c0.14-0.16,0.35-0.23,0.63-0.23s0.49,0.08,0.63,0.23s0.22,0.35,0.22,0.59
		c0,0.22-0.07,0.41-0.22,0.56s-0.35,0.23-0.63,0.23s-0.49-0.08-0.63-0.23C68.52,643.44,68.45,643.26,68.45,643.03z M77.46,646.03
		v4.17h-1.41v-10.66h3.93c1.17,0,2.08,0.3,2.74,0.89c0.66,0.6,0.99,1.38,0.99,2.37c0,1.04-0.32,1.83-0.97,2.39
		c-0.65,0.56-1.57,0.84-2.78,0.84H77.46z M77.46,644.88h2.53c0.75,0,1.33-0.18,1.73-0.53s0.6-0.87,0.6-1.54
		c0-0.64-0.2-1.14-0.6-1.53s-0.95-0.58-1.65-0.59h-2.61V644.88z M84.85,646.17c0-0.78,0.15-1.47,0.46-2.1
		c0.31-0.62,0.73-1.1,1.27-1.44c0.54-0.34,1.17-0.5,1.86-0.5c1.08,0,1.95,0.37,2.62,1.12c0.67,0.75,1,1.74,1,2.98v0.09
		c0,0.77-0.15,1.46-0.44,2.08c-0.3,0.61-0.72,1.09-1.27,1.43c-0.55,0.34-1.18,0.51-1.89,0.51c-1.07,0-1.94-0.37-2.61-1.12
		c-0.67-0.75-1-1.74-1-2.97V646.17z M86.21,646.33c0,0.88,0.2,1.58,0.61,2.12c0.41,0.53,0.95,0.8,1.64,0.8
		c0.69,0,1.24-0.27,1.64-0.81c0.41-0.54,0.61-1.29,0.61-2.27c0-0.87-0.21-1.57-0.62-2.11c-0.41-0.54-0.96-0.81-1.64-0.81
		c-0.67,0-1.21,0.27-1.62,0.8C86.41,644.58,86.21,645.34,86.21,646.33z M96.94,649.25c0.48,0,0.91-0.15,1.27-0.44s0.56-0.66,0.6-1.1
		h1.28c-0.02,0.46-0.18,0.89-0.47,1.3s-0.67,0.74-1.15,0.98c-0.48,0.24-0.99,0.37-1.53,0.37c-1.08,0-1.94-0.36-2.57-1.08
		c-0.64-0.72-0.96-1.71-0.96-2.96v-0.23c0-0.77,0.14-1.46,0.42-2.06c0.28-0.6,0.69-1.07,1.22-1.4c0.53-0.33,1.16-0.5,1.88-0.5
		c0.89,0,1.63,0.27,2.22,0.8c0.59,0.53,0.9,1.22,0.94,2.07h-1.28c-0.04-0.51-0.23-0.93-0.58-1.26c-0.35-0.33-0.78-0.49-1.29-0.49
		c-0.69,0-1.22,0.25-1.6,0.74c-0.38,0.5-0.57,1.21-0.57,2.15v0.26c0,0.91,0.19,1.62,0.56,2.11S96.24,649.25,96.94,649.25z
		 M108.09,650.21h-1.35v-6.8h-3.65v6.8h-1.36v-7.92h6.36V650.21z M109.91,646.17c0-0.78,0.15-1.47,0.46-2.1
		c0.31-0.62,0.73-1.1,1.27-1.44c0.54-0.34,1.17-0.5,1.86-0.5c1.08,0,1.95,0.37,2.62,1.12c0.67,0.75,1,1.74,1,2.98v0.09
		c0,0.77-0.15,1.46-0.44,2.08c-0.3,0.61-0.72,1.09-1.27,1.43c-0.55,0.34-1.18,0.51-1.89,0.51c-1.07,0-1.94-0.37-2.61-1.12
		c-0.67-0.75-1-1.74-1-2.97V646.17z M111.27,646.33c0,0.88,0.2,1.58,0.61,2.12c0.41,0.53,0.95,0.8,1.64,0.8
		c0.69,0,1.24-0.27,1.64-0.81c0.41-0.54,0.61-1.29,0.61-2.27c0-0.87-0.21-1.57-0.62-2.11c-0.41-0.54-0.96-0.81-1.64-0.81
		c-0.67,0-1.21,0.27-1.62,0.8C111.48,644.58,111.27,645.34,111.27,646.33z M124.55,643.38h-2.66v6.83h-1.35v-6.83h-2.61v-1.1h6.62
		V643.38z M132.56,646.33c0,1.21-0.28,2.18-0.83,2.92s-1.3,1.11-2.24,1.11c-0.96,0-1.72-0.3-2.27-0.92v3.82h-1.35v-10.97h1.24
		l0.07,0.88c0.55-0.68,1.32-1.03,2.3-1.03c0.95,0,1.71,0.36,2.26,1.08c0.55,0.72,0.83,1.72,0.83,3V646.33z M131.21,646.18
		c0-0.89-0.19-1.6-0.57-2.12s-0.9-0.78-1.57-0.78c-0.82,0-1.44,0.36-1.85,1.09v3.79c0.41,0.72,1.03,1.08,1.86,1.08
		c0.65,0,1.17-0.26,1.55-0.77C131.02,647.96,131.21,647.2,131.21,646.18z M137.57,650.35c-1.07,0-1.95-0.35-2.62-1.06
		c-0.67-0.71-1.01-1.65-1.01-2.83v-0.25c0-0.79,0.15-1.49,0.45-2.11c0.3-0.62,0.72-1.1,1.26-1.45c0.54-0.35,1.12-0.52,1.75-0.52
		c1.03,0,1.83,0.34,2.4,1.02s0.86,1.65,0.86,2.91v0.56h-5.37c0.02,0.78,0.25,1.41,0.68,1.89c0.44,0.48,0.99,0.72,1.67,0.72
		c0.48,0,0.88-0.1,1.22-0.29s0.62-0.46,0.87-0.78l0.83,0.64C139.9,649.84,138.9,650.35,137.57,650.35z M137.4,643.25
		c-0.55,0-1.01,0.2-1.38,0.6c-0.37,0.4-0.6,0.96-0.69,1.67h3.97v-0.1c-0.04-0.69-0.22-1.22-0.56-1.6
		C138.42,643.44,137.97,643.25,137.4,643.25z M145.71,642.74c1,0,1.79,0.33,2.39,1c0.6,0.67,0.9,1.54,0.9,2.63v0.12
		c0,0.75-0.14,1.41-0.43,2c-0.29,0.59-0.7,1.04-1.24,1.37c-0.54,0.33-1.16,0.49-1.86,0.49c-1.06,0-1.92-0.36-2.57-1.07
		c-0.65-0.71-0.97-1.66-0.97-2.86v-0.66c0-1.67,0.31-2.99,0.93-3.97s1.53-1.58,2.74-1.79c0.68-0.12,1.15-0.27,1.38-0.45
		s0.36-0.42,0.36-0.73h1.11c0,0.61-0.14,1.09-0.41,1.43c-0.28,0.34-0.72,0.58-1.32,0.73l-1.01,0.23c-0.81,0.19-1.41,0.51-1.81,0.96
		c-0.4,0.45-0.67,1.05-0.79,1.81C143.81,643.15,144.68,642.74,145.71,642.74z M145.45,643.85c-0.66,0-1.19,0.22-1.58,0.67
		c-0.39,0.45-0.59,1.07-0.59,1.86v0.12c0,0.85,0.2,1.52,0.59,2.02c0.39,0.5,0.92,0.74,1.59,0.74c0.67,0,1.21-0.25,1.6-0.75
		s0.59-1.23,0.59-2.18c0-0.75-0.2-1.35-0.59-1.8C146.66,644.08,146.12,643.85,145.45,643.85z M156.87,650.21h-1.35v-3.38h-3.64v3.38
		h-1.36v-7.92h1.36v3.43h3.64v-3.43h1.35V650.21z M163.94,650.21c-0.08-0.16-0.14-0.43-0.19-0.83c-0.63,0.65-1.38,0.98-2.26,0.98
		c-0.78,0-1.42-0.22-1.92-0.66c-0.5-0.44-0.75-1-0.75-1.68c0-0.83,0.31-1.47,0.94-1.92c0.63-0.46,1.51-0.68,2.65-0.68h1.32v-0.62
		c0-0.47-0.14-0.85-0.42-1.13c-0.28-0.28-0.7-0.42-1.25-0.42c-0.48,0-0.89,0.12-1.22,0.37s-0.49,0.54-0.49,0.89h-1.36
		c0-0.4,0.14-0.78,0.42-1.15c0.28-0.37,0.66-0.66,1.14-0.88c0.48-0.21,1.01-0.32,1.59-0.32c0.91,0,1.63,0.23,2.15,0.68
		c0.52,0.46,0.79,1.09,0.81,1.89v3.65c0,0.73,0.09,1.31,0.28,1.74v0.12H163.94z M161.69,649.17c0.42,0,0.83-0.11,1.21-0.33
		s0.66-0.5,0.83-0.86v-1.63h-1.06c-1.66,0-2.49,0.49-2.49,1.46c0,0.42,0.14,0.76,0.42,1S161.25,649.17,161.69,649.17z M167.14,649.1
		l0.47-0.58c0.53-0.68,0.83-1.71,0.9-3.08l0.12-3.16h5.1v6.82h1.02v3.43h-1.35v-2.33h-5.53v2.33h-1.35l0.01-3.43H167.14z
		 M168.74,649.1h3.64v-5.57h-2.44l-0.08,1.89C169.78,647,169.41,648.23,168.74,649.1z M180.62,644.45c0-0.37-0.14-0.67-0.42-0.88
		c-0.28-0.22-0.67-0.33-1.16-0.33c-0.48,0-0.88,0.12-1.2,0.37c-0.32,0.25-0.48,0.54-0.48,0.88H176c0-0.69,0.29-1.25,0.86-1.69
		s1.3-0.66,2.16-0.66c0.93,0,1.65,0.2,2.17,0.6c0.52,0.4,0.78,0.97,0.78,1.7c0,0.36-0.11,0.68-0.32,0.98
		c-0.21,0.3-0.52,0.54-0.92,0.71c0.92,0.31,1.38,0.93,1.38,1.84c0,0.73-0.28,1.3-0.84,1.73c-0.56,0.42-1.31,0.64-2.25,0.64
		c-0.91,0-1.67-0.22-2.26-0.67c-0.59-0.45-0.89-1.05-0.89-1.81h1.35c0,0.39,0.17,0.72,0.52,0.99c0.34,0.28,0.77,0.41,1.29,0.41
		c0.52,0,0.94-0.12,1.25-0.36c0.32-0.24,0.48-0.55,0.48-0.93c0-0.44-0.13-0.76-0.4-0.95s-0.68-0.29-1.24-0.29h-1.35v-1.15h1.47
		C180.16,645.57,180.62,645.19,180.62,644.45z M183.52,646.17c0-0.78,0.15-1.47,0.46-2.1c0.31-0.62,0.73-1.1,1.27-1.44
		c0.54-0.34,1.17-0.5,1.86-0.5c1.08,0,1.95,0.37,2.62,1.12c0.67,0.75,1,1.74,1,2.98v0.09c0,0.77-0.15,1.46-0.44,2.08
		c-0.3,0.61-0.72,1.09-1.27,1.43c-0.55,0.34-1.18,0.51-1.89,0.51c-1.07,0-1.94-0.37-2.61-1.12c-0.67-0.75-1-1.74-1-2.97V646.17z
		 M184.88,646.33c0,0.88,0.2,1.58,0.61,2.12c0.41,0.53,0.95,0.8,1.64,0.8c0.69,0,1.24-0.27,1.64-0.81c0.41-0.54,0.61-1.29,0.61-2.27
		c0-0.87-0.21-1.57-0.62-2.11c-0.41-0.54-0.96-0.81-1.64-0.81c-0.67,0-1.21,0.27-1.62,0.8
		C185.08,644.58,184.88,645.34,184.88,646.33z M199.13,646.33c0,1.21-0.28,2.18-0.83,2.92s-1.3,1.11-2.24,1.11
		c-0.96,0-1.72-0.3-2.27-0.92v3.82h-1.35v-10.97h1.24l0.07,0.88c0.55-0.68,1.32-1.03,2.3-1.03c0.95,0,1.71,0.36,2.26,1.08
		c0.55,0.72,0.83,1.72,0.83,3V646.33z M197.77,646.18c0-0.89-0.19-1.6-0.57-2.12s-0.9-0.78-1.57-0.78c-0.82,0-1.44,0.36-1.85,1.09
		v3.79c0.41,0.72,1.03,1.08,1.86,1.08c0.65,0,1.17-0.26,1.55-0.77C197.58,647.96,197.77,647.2,197.77,646.18z M200.8,652.33
		l-0.77-0.53c0.46-0.64,0.7-1.3,0.72-1.98v-1.22h1.33v1.06c0,0.49-0.12,0.99-0.36,1.48C201.47,651.64,201.17,652.03,200.8,652.33z
		 M213.61,647.42h-4.47l-1,2.79h-1.45l4.07-10.66h1.23l4.08,10.66h-1.44L213.61,647.42z M209.56,646.27h3.63l-1.82-4.99
		L209.56,646.27z M220.27,645.42h-1.3v4.79h-1.41v-10.66h1.41v4.7h1.1l3.73-4.7h1.75l-4.07,5.17l4.37,5.49h-1.72L220.27,645.42z
		 M228.55,646.03v4.17h-1.41v-10.66h3.93c1.17,0,2.08,0.3,2.74,0.89c0.66,0.6,0.99,1.38,0.99,2.37c0,1.04-0.32,1.83-0.97,2.39
		c-0.65,0.56-1.57,0.84-2.78,0.84H228.55z M228.55,644.88h2.53c0.75,0,1.33-0.18,1.73-0.53s0.6-0.87,0.6-1.54
		c0-0.64-0.2-1.14-0.6-1.53s-0.95-0.58-1.65-0.59h-2.61V644.88z M241.48,647.42h-4.47l-1,2.79h-1.45l4.07-10.66h1.23l4.08,10.66
		h-1.44L241.48,647.42z M237.44,646.27h3.63l-1.82-4.99L237.44,646.27z M245.12,652.33l-0.77-0.53c0.46-0.64,0.7-1.3,0.72-1.98
		v-1.22h1.33v1.06c0,0.49-0.12,0.99-0.36,1.48C245.79,651.64,245.49,652.03,245.12,652.33z M253.85,639.54l3.49,8.7l3.49-8.7h1.82
		v10.66h-1.41v-4.15l0.13-4.48l-3.5,8.63h-1.08l-3.49-8.61l0.14,4.46v4.15h-1.41v-10.66H253.85z M270.05,642.28h1.35v7.92h-1.35
		v-5.78l-3.65,5.78h-1.35v-7.92h1.35v5.79L270.05,642.28z M280.05,650.21h-1.35v-3.38h-3.64v3.38h-1.36v-7.92h1.36v3.43h3.64v-3.43
		h1.35V650.21z M286.58,644.45c0-0.37-0.14-0.67-0.42-0.88c-0.28-0.22-0.67-0.33-1.16-0.33c-0.48,0-0.88,0.12-1.2,0.37
		c-0.32,0.25-0.48,0.54-0.48,0.88h-1.35c0-0.69,0.29-1.25,0.86-1.69s1.3-0.66,2.16-0.66c0.93,0,1.65,0.2,2.17,0.6
		c0.52,0.4,0.78,0.97,0.78,1.7c0,0.36-0.11,0.68-0.32,0.98c-0.21,0.3-0.52,0.54-0.92,0.71c0.92,0.31,1.38,0.93,1.38,1.84
		c0,0.73-0.28,1.3-0.84,1.73c-0.56,0.42-1.31,0.64-2.25,0.64c-0.91,0-1.67-0.22-2.26-0.67c-0.59-0.45-0.89-1.05-0.89-1.81h1.35
		c0,0.39,0.17,0.72,0.52,0.99c0.34,0.28,0.77,0.41,1.29,0.41c0.52,0,0.94-0.12,1.25-0.36c0.32-0.24,0.48-0.55,0.48-0.93
		c0-0.44-0.13-0.76-0.4-0.95s-0.68-0.29-1.24-0.29h-1.35v-1.15h1.47C286.12,645.57,286.58,645.19,286.58,644.45z M289.78,649.1
		l0.47-0.58c0.53-0.68,0.83-1.71,0.9-3.08l0.12-3.16h5.1v6.82h1.02v3.43h-1.35v-2.33h-5.53v2.33h-1.35l0.01-3.43H289.78z
		 M291.38,649.1h3.64v-5.57h-2.44l-0.08,1.89C292.42,647,292.05,648.23,291.38,649.1z M305.59,646.33c0,1.21-0.28,2.18-0.83,2.92
		c-0.55,0.74-1.3,1.11-2.24,1.11c-0.96,0-1.72-0.3-2.27-0.92v3.82h-1.36v-10.97h1.24l0.07,0.88c0.55-0.68,1.32-1.03,2.3-1.03
		c0.95,0,1.71,0.36,2.26,1.08c0.55,0.72,0.83,1.72,0.83,3V646.33z M304.24,646.18c0-0.89-0.19-1.6-0.57-2.12s-0.9-0.78-1.57-0.78
		c-0.82,0-1.44,0.36-1.85,1.09v3.79c0.4,0.72,1.03,1.08,1.86,1.08c0.65,0,1.17-0.26,1.55-0.77
		C304.04,647.96,304.24,647.2,304.24,646.18z M312.2,650.21c-0.08-0.16-0.14-0.43-0.19-0.83c-0.63,0.65-1.38,0.98-2.26,0.98
		c-0.78,0-1.42-0.22-1.92-0.66c-0.5-0.44-0.75-1-0.75-1.68c0-0.83,0.31-1.47,0.94-1.92c0.63-0.46,1.51-0.68,2.65-0.68h1.32v-0.62
		c0-0.47-0.14-0.85-0.42-1.13c-0.28-0.28-0.7-0.42-1.25-0.42c-0.48,0-0.89,0.12-1.22,0.37s-0.49,0.54-0.49,0.89h-1.36
		c0-0.4,0.14-0.78,0.42-1.15c0.28-0.37,0.66-0.66,1.14-0.88c0.48-0.21,1.01-0.32,1.59-0.32c0.91,0,1.63,0.23,2.15,0.68
		c0.52,0.46,0.79,1.09,0.81,1.89v3.65c0,0.73,0.09,1.31,0.28,1.74v0.12H312.2z M309.96,649.17c0.42,0,0.83-0.11,1.21-0.33
		s0.66-0.5,0.83-0.86v-1.63h-1.06c-1.66,0-2.49,0.49-2.49,1.46c0,0.42,0.14,0.76,0.42,1S309.51,649.17,309.96,649.17z M315.6,650.21
		v-7.92h3.09c1.05,0,1.86,0.18,2.43,0.55c0.56,0.37,0.85,0.91,0.85,1.62c0,0.37-0.11,0.7-0.33,0.99c-0.22,0.29-0.54,0.52-0.97,0.68
		c0.48,0.11,0.86,0.33,1.15,0.66c0.29,0.33,0.44,0.72,0.44,1.17c0,0.73-0.27,1.28-0.8,1.67c-0.53,0.39-1.29,0.58-2.27,0.58H315.6z
		 M316.95,645.65h1.75c1.27,0,1.9-0.37,1.9-1.11s-0.6-1.13-1.8-1.15h-1.85V645.65z M316.95,646.73v2.39h2.24
		c0.57,0,0.99-0.1,1.27-0.31c0.28-0.21,0.42-0.51,0.42-0.89c0-0.79-0.58-1.19-1.74-1.19H316.95z M324,652.33l-0.77-0.53
		c0.46-0.64,0.7-1.3,0.72-1.98v-1.22h1.33v1.06c0,0.49-0.12,0.99-0.36,1.48C324.67,651.64,324.36,652.03,324,652.33z M330.95,639.54
		h1.41v9.51h5.26v-9.51h1.41v9.48h1.12l-0.13,3.75h-1.27v-2.57h-7.8V639.54z M344.95,650.35c-1.08,0-1.95-0.35-2.62-1.06
		c-0.67-0.71-1.01-1.65-1.01-2.83v-0.25c0-0.79,0.15-1.49,0.45-2.11c0.3-0.62,0.72-1.1,1.26-1.45c0.54-0.35,1.12-0.52,1.75-0.52
		c1.03,0,1.83,0.34,2.4,1.02s0.86,1.65,0.86,2.91v0.56h-5.37c0.02,0.78,0.25,1.41,0.68,1.89c0.44,0.48,0.99,0.72,1.67,0.72
		c0.48,0,0.88-0.1,1.22-0.29c0.33-0.2,0.62-0.46,0.87-0.78l0.83,0.64C347.27,649.84,346.28,650.35,344.95,650.35z M344.78,643.25
		c-0.55,0-1.01,0.2-1.38,0.6c-0.37,0.4-0.6,0.96-0.69,1.67h3.97v-0.1c-0.04-0.69-0.22-1.22-0.56-1.6
		C345.8,643.44,345.35,643.25,344.78,643.25z M356.08,650.21h-1.35v-3.38h-3.64v3.38h-1.36v-7.92h1.36v3.43h3.64v-3.43h1.35V650.21z
		 M364.15,643.38h-2.66v6.83h-1.36v-6.83h-2.61v-1.1h6.62V643.38z M372.16,646.33c0,1.21-0.28,2.18-0.83,2.92
		c-0.55,0.74-1.3,1.11-2.24,1.11c-0.96,0-1.72-0.3-2.27-0.92v3.82h-1.36v-10.97h1.24l0.07,0.88c0.55-0.68,1.32-1.03,2.3-1.03
		c0.95,0,1.71,0.36,2.26,1.08c0.55,0.72,0.83,1.72,0.83,3V646.33z M370.81,646.18c0-0.89-0.19-1.6-0.57-2.12s-0.9-0.78-1.57-0.78
		c-0.82,0-1.44,0.36-1.85,1.09v3.79c0.4,0.72,1.03,1.08,1.86,1.08c0.65,0,1.17-0.26,1.55-0.77
		C370.61,647.96,370.81,647.2,370.81,646.18z M382.72,642.28h1.36v7.92h-1.36v-5.78l-3.65,5.78h-1.36v-7.92h1.36v5.79L382.72,642.28
		z M390.82,648.41l2.7-6.13h1.69v7.92h-1.35v-5.76l-2.56,5.76h-0.94l-2.61-5.89v5.89h-1.35v-7.92h1.76L390.82,648.41z M397.41,649.5
		c0-0.23,0.07-0.43,0.21-0.59c0.14-0.16,0.35-0.23,0.63-0.23s0.49,0.08,0.63,0.23c0.14,0.16,0.22,0.35,0.22,0.59
		c0,0.23-0.07,0.41-0.22,0.56c-0.14,0.15-0.36,0.23-0.63,0.23s-0.49-0.08-0.63-0.23C397.48,649.91,397.41,649.72,397.41,649.5z
		 M411.87,640.69h-5.14v9.51h-1.41v-10.66h6.55V640.69z M416.72,650.21c-0.08-0.16-0.14-0.43-0.19-0.83
		c-0.63,0.65-1.38,0.98-2.26,0.98c-0.78,0-1.42-0.22-1.92-0.66c-0.5-0.44-0.75-1-0.75-1.68c0-0.83,0.31-1.47,0.94-1.92
		c0.63-0.46,1.51-0.68,2.65-0.68h1.32v-0.62c0-0.47-0.14-0.85-0.42-1.13c-0.28-0.28-0.7-0.42-1.25-0.42c-0.48,0-0.89,0.12-1.22,0.37
		s-0.49,0.54-0.49,0.89h-1.36c0-0.4,0.14-0.78,0.42-1.15c0.28-0.37,0.66-0.66,1.14-0.88c0.48-0.21,1.01-0.32,1.59-0.32
		c0.91,0,1.63,0.23,2.15,0.68c0.52,0.46,0.79,1.09,0.81,1.89v3.65c0,0.73,0.09,1.31,0.28,1.74v0.12H416.72z M414.47,649.17
		c0.42,0,0.83-0.11,1.21-0.33s0.66-0.5,0.83-0.86v-1.63h-1.06c-1.66,0-2.49,0.49-2.49,1.46c0,0.42,0.14,0.76,0.42,1
		S414.03,649.17,414.47,649.17z M424.55,648.41l2.7-6.13h1.69v7.92h-1.35v-5.76l-2.56,5.76h-0.94l-2.61-5.89v5.89h-1.35v-7.92h1.76
		L424.55,648.41z M436.01,650.21c-0.08-0.16-0.14-0.43-0.19-0.83c-0.63,0.65-1.38,0.98-2.26,0.98c-0.78,0-1.42-0.22-1.92-0.66
		c-0.5-0.44-0.75-1-0.75-1.68c0-0.83,0.31-1.47,0.94-1.92c0.63-0.46,1.51-0.68,2.65-0.68h1.32v-0.62c0-0.47-0.14-0.85-0.42-1.13
		c-0.28-0.28-0.7-0.42-1.25-0.42c-0.48,0-0.89,0.12-1.22,0.37s-0.49,0.54-0.49,0.89h-1.36c0-0.4,0.14-0.78,0.42-1.15
		c0.28-0.37,0.66-0.66,1.14-0.88c0.48-0.21,1.01-0.32,1.59-0.32c0.91,0,1.63,0.23,2.15,0.68c0.52,0.46,0.79,1.09,0.81,1.89v3.65
		c0,0.73,0.09,1.31,0.28,1.74v0.12H436.01z M433.76,649.17c0.42,0,0.83-0.11,1.21-0.33s0.66-0.5,0.83-0.86v-1.63h-1.06
		c-1.66,0-2.49,0.49-2.49,1.46c0,0.42,0.14,0.76,0.42,1S433.31,649.17,433.76,649.17z M445.77,642.28v7.92h-1.36v-6.8h-2.7
		l-0.16,2.97c-0.09,1.36-0.32,2.34-0.68,2.92c-0.37,0.59-0.95,0.89-1.75,0.92h-0.54v-1.19l0.39-0.03c0.44-0.05,0.75-0.3,0.94-0.76
		s0.31-1.31,0.37-2.55l0.15-3.39H445.77z M451.23,650.35c-1.08,0-1.95-0.35-2.62-1.06c-0.67-0.71-1.01-1.65-1.01-2.83v-0.25
		c0-0.79,0.15-1.49,0.45-2.11c0.3-0.62,0.72-1.1,1.26-1.45c0.54-0.35,1.12-0.52,1.75-0.52c1.03,0,1.83,0.34,2.4,1.02
		s0.86,1.65,0.86,2.91v0.56h-5.37c0.02,0.78,0.25,1.41,0.68,1.89c0.44,0.48,0.99,0.72,1.67,0.72c0.48,0,0.88-0.1,1.22-0.29
		c0.33-0.2,0.62-0.46,0.87-0.78l0.83,0.64C453.56,649.84,452.56,650.35,451.23,650.35z M451.06,643.25c-0.55,0-1.01,0.2-1.38,0.6
		c-0.37,0.4-0.6,0.96-0.69,1.67h3.97v-0.1c-0.04-0.69-0.22-1.22-0.56-1.6C452.08,643.44,451.63,643.25,451.06,643.25z
		 M461.02,642.28h1.36v7.92h-1.36v-5.78l-3.65,5.78h-1.36v-7.92h1.36v5.79L461.02,642.28z"/>
</g>
</svg>
