<?xml version="1.0" encoding="utf-8"?>
<!-- Generator: Adobe Illustrator 25.4.1, SVG Export Plug-In . SVG Version: 6.00 Build 0)  -->
<svg version="1.1" id="Слой_1" xmlns="http://www.w3.org/2000/svg" xmlns:xlink="http://www.w3.org/1999/xlink" x="0px" y="0px"
	 viewBox="0 0 474.18 276.23" style="enable-background:new 0 0 474.18 276.23;" xml:space="preserve">
<style type="text/css">
	.st0{fill:#212226;}
</style>
<path class="st0" d="M199.8,139.18v14.16v69.52h-44.4V25.62h44.4v71.98v3.45V139.18z M274.37,101.04H210.9v38.14h63.47v137.05h44.4
	V25.62h-44.4V101.04z M57.07,3.42C49,5.69,42.55,9.01,37.71,13.38c-4.84,4.37-8.3,9.73-10.39,16.08
	c-2.09,6.36-3.13,13.62-3.13,21.77v42.98c0,7.97-1.9,14.42-5.69,19.35c-3.8,4.94-9.96,7.4-18.5,7.4v33.59c8.54,0,14.7,2.47,18.5,7.4
	c3.79,4.94,5.69,11.38,5.69,19.35v42.98c0,8.16,1.04,15.42,3.13,21.77c2.09,6.35,5.55,11.71,10.39,16.08
	c4.84,4.36,11.29,7.69,19.35,9.96c8.06,2.28,18.07,3.42,30.03,3.42h5.69v-33.87h-7.12c-8.54,0-14.28-1.9-17.22-5.69
	c-2.94-3.8-4.41-9.68-4.41-17.65v-37.85c0-9.86-1.33-18.22-3.99-25.05c-2.66-6.83-7.97-12.71-15.94-17.65
	c7.97-4.93,13.28-10.82,15.94-17.65c2.66-6.83,3.99-15.18,3.99-25.05V57.21c0-7.97,1.47-13.85,4.41-17.65
	c2.94-3.79,8.68-5.69,17.22-5.69h7.12V0h-5.69C75.14,0,65.13,1.14,57.07,3.42z M455.68,113.57c-3.8-4.93-5.69-11.39-5.69-19.35
	V51.23c0-8.16-1.05-15.41-3.13-21.77c-2.09-6.35-5.55-11.71-10.39-16.08c-4.84-4.36-11.29-7.68-19.35-9.96
	C409.04,1.14,399.04,0,387.08,0h-5.69v33.87h7.12c8.54,0,14.28,1.9,17.22,5.69c2.94,3.8,4.41,9.68,4.41,17.65v37.86
	c0,9.87,1.33,18.22,3.99,25.05c2.65,6.83,7.97,12.71,15.94,17.65c-7.97,4.94-13.28,10.82-15.94,17.65
	c-2.66,6.83-3.99,15.18-3.99,25.05v37.85c0,7.97-1.47,13.85-4.41,17.65c-2.94,3.79-8.68,5.69-17.22,5.69h-7.12v33.87h5.69
	c11.95,0,21.96-1.14,30.03-3.42c8.06-2.28,14.52-5.6,19.35-9.96c4.84-4.37,8.3-9.72,10.39-16.08c2.09-6.36,3.13-13.62,3.13-21.77
	v-42.98c0-7.97,1.9-14.42,5.69-19.35c3.79-4.93,9.96-7.4,18.5-7.4v-33.59C465.64,120.97,459.47,118.5,455.68,113.57z"/>
</svg>
