<?xml version="1.0" encoding="utf-8"?>
<!-- Generator: Adobe Illustrator 25.4.1, SVG Export Plug-In . SVG Version: 6.00 Build 0)  -->
<svg version="1.1"
	 id="svg20" xmlns:cc="http://creativecommons.org/ns#" xmlns:dc="http://purl.org/dc/elements/1.1/" xmlns:rdf="http://www.w3.org/1999/02/22-rdf-syntax-ns#" xmlns:svg="http://www.w3.org/2000/svg"
	 xmlns="http://www.w3.org/2000/svg" xmlns:xlink="http://www.w3.org/1999/xlink" x="0px" y="0px" viewBox="0 0 64.79 64.79"
	 style="enable-background:new 0 0 64.79 64.79;" xml:space="preserve">
<style type="text/css">
	.st0{fill:#212226;}
</style>
<path id="path18" class="st0" d="M55.21,55.2h-9.6V40.17c0-3.58-0.06-8.2-4.99-8.2c-5,0-5.76,3.91-5.76,7.94V55.2h-9.6V24.29h9.22
	v4.23h0.13c1.88-3.21,5.37-5.13,9.09-4.99c9.73,0,11.52,6.4,11.52,14.73L55.21,55.2z M14.42,20.06c-3.08,0-5.57-2.49-5.57-5.57
	s2.49-5.57,5.57-5.57c3.08,0,5.57,2.49,5.57,5.57S17.49,20.06,14.42,20.06C14.42,20.06,14.42,20.06,14.42,20.06 M19.22,55.2H9.61
	V24.29h9.61V55.2z M59.99,0H4.78C2.17-0.03,0.03,2.06,0,4.67v55.44c0.03,2.61,2.17,4.7,4.78,4.68h55.21
	c2.62,0.03,4.76-2.06,4.8-4.67V4.67C64.75,2.06,62.61-0.03,59.99,0"/>
</svg>
