<?xml version="1.0" encoding="utf-8"?>
<!-- Generator: Adobe Illustrator 23.0.6, SVG Export Plug-In . SVG Version: 6.00 Build 0)  -->
<svg version="1.1" id="logo" xmlns="http://www.w3.org/2000/svg" xmlns:xlink="http://www.w3.org/1999/xlink" x="0px" y="0px"
	 viewBox="0 0 6874.1 628.6" style="enable-background:new 0 0 6874.1 628.6;" xml:space="preserve">
<style type="text/css">
	.st0{fill:#F0F1F2;}
</style>
<g>
	<polygon class="st0" points="464.9,230.6 464.9,214.1 464.9,58.5 363.6,58.5 363.6,508.5 464.9,508.5 464.9,343.6 464.9,317.6 	"/>
	<path class="st0" d="M130.2,7.8C111.8,13,97,20.5,86,30.5S67.1,52.7,62.3,67.1c-4.7,14.5-7.1,31.1-7.1,49.7v98.1
		c0,18.2-4.3,32.9-13,44.2C33.5,270.4,19.5,276,0,276v76.8c19.5,0,33.5,5.6,42.2,16.9s13,26,13,44.2V512c0,18.6,2.3,35.2,7.1,49.7
		S75,588.4,86,598.4c11.1,9.9,25.8,17.5,44.2,22.7s41.2,7.8,68.5,7.8h13v-77.3h-16.2c-19.5,0-32.6-4.3-39.3-13
		c-6.8-8.7-10.1-22.1-10.1-40.3v-86.4c0-22.5-3-41.5-9.1-57.1s-18.2-29-36.4-40.3c18.2-11.3,30.3-24.7,36.4-40.3
		c6.1-15.6,9.1-34.7,9.1-57.2v-86.4c0-18.2,3.4-31.6,10.1-40.3c6.7-8.7,19.8-13,39.3-13h16.2V0h-13C171.4,0,148.6,2.6,130.2,7.8z"/>
	<path class="st0" d="M2196.3,165c-13-1.7-26.1-3-39.3-3.9s-25.2-1.3-36-1.3c-48.5,0-86.5,10.2-114,30.5
		c-27.5,20.4-41.2,49.6-41.2,87.7c0,22.5,5.4,41.3,16.2,56.2c10.8,14.9,25.3,27.2,43.5,36.7c-12.2,16.9-24.7,37-37.7,60.4
		s-25.7,49.2-38.3,77.3h99c10-19.5,20.4-39.5,31.3-60.1c10.9-20.6,23.3-41.1,37.2-61.4h50v121.5h96.8V176.7
		c-8.2-2.2-18.3-4.2-30.2-6.2C2221.8,168.6,2209.3,166.7,2196.3,165z M2167,318.1h-46.8l0,0c-6.9,0-13.9-0.6-20.8-1.9
		c-6.9-1.3-13.2-3.6-18.8-6.8c-5.6-3.3-10.1-7.6-13.6-13s-5.2-12-5.2-19.8c0-12.5,4.3-22.8,13-30.8c8.6-8,24.9-12,48.7-12
		c6.5,0,14.3,0.4,23.4,1c9.1,0.6,15.8,1.2,20.1,1.6L2167,318.1L2167,318.1z"/>
	<path class="st0" d="M1106.8,207.2c-14.7-15.6-32.3-27.7-52.9-36.4s-43.2-13-67.9-13c-24.2,0-46.6,4.3-67.2,13
		s-38.4,20.8-53.3,36.4c-15,15.6-26.7,34.4-35.1,56.5c-8.5,22.1-12.7,46.6-12.7,73.4s4.1,51.4,12.3,73.7
		c8.2,22.4,19.7,41.4,34.4,57.2c14.7,15.8,32.3,28,52.9,36.7c20.5,8.7,43.4,13,68.5,13c25.6,0,48.6-4.3,69.2-13
		c20.5-8.7,38.2-20.9,52.9-36.7c14.7-15.8,26-34.9,33.8-57.2s11.7-46.9,11.7-73.7c0-26.9-4.1-51.3-12.2-73.4
		C1133,241.6,1121.5,222.8,1106.8,207.2z M1036.8,408.2c-11.9,17.5-28.9,26.3-51,26.3s-39.2-8.8-51.3-26.3s-18.2-41.2-18.2-71.1
		s6.1-53.4,18.2-70.5c12.1-17.1,29.2-25.7,51.3-25.7s39.1,8.6,51,25.7s17.9,40.6,17.9,70.5C1054.7,366.9,1048.7,390.6,1036.8,408.2z
		"/>
	<path class="st0" d="M2586.9,412.7c-12.3-10.2-26.3-15.3-41.9-15.3c-15.6,0-29.6,5.1-41.9,15.3s-18.5,25-18.5,44.5
		s6.1,34.3,18.5,44.5s26.3,15.3,41.9,15.3s29.6-5.1,41.9-15.3s18.5-25,18.5-44.5S2599.2,422.9,2586.9,412.7z"/>
	<path class="st0" d="M1524.3,351c-5.2-6.7-10.9-12.4-17.2-17.2c-6.3-4.7-12.4-8.4-18.5-11c11.2-5.7,20.5-14.7,27.9-27.3
		c7.3-12.6,11-26.4,11-41.6c0-11.3-2.6-22.5-7.8-33.8c-5.2-11.2-13.8-21.4-25.7-30.5c-12-9.1-27.5-16.5-46.8-22.1s-43-8.4-71.1-8.4
		c-12.2,0-25.2,0.4-39,1s-27.5,1.6-40.9,2.9s-26.1,2.7-38,4.2s-22,3.2-30.2,4.9v327.3c8.2,1.7,18.3,3.6,30.2,5.5
		c11.9,1.9,24.6,3.7,38,5.2s27,2.7,40.9,3.6c13.9,0.9,26.9,1.3,39,1.3c31.1,0,57.3-3,78.8-9.2c21.2-6,38.3-14,51.3-24
		c13-9.9,22.2-21.4,27.6-34.4s8.1-26.4,8.1-40.3c0-12.1-1.7-22.8-4.9-32.1C1533.8,365.7,1529.6,357.7,1524.3,351z M1324.7,237.1
		L1324.7,237.1c6.1-0.9,14-1.7,23.7-2.3c9.7-0.7,17.6-1,23.7-1c18.2,0,32.9,2.3,44.2,7.1c11.3,4.7,16.9,13.6,16.9,26.6
		c0,13.9-4.9,22.9-14.9,27s-23,6.2-39,6.2h-54.6L1324.7,237.1L1324.7,237.1z M1428.2,432.3c-12.2,5.4-29.1,8.1-50.7,8.1
		c-8.7,0-18.1-0.4-28.3-1c-10.2-0.7-18.3-1.4-24.4-2.3l0.1-71.4h56.5c21.2,0,37.4,2.7,48.4,8.1c11.1,5.4,16.6,15.1,16.6,28.9
		C1446.5,417,1440.3,426.9,1428.2,432.3z"/>
	<polygon class="st0" points="635,230.6 490.3,230.6 490.3,317.6 635,317.6 632.6,628.7 734,628.7 736.4,58.5 635.1,58.5 	"/>
	<path class="st0" d="M1856.3,195.4c-11.5-12.1-26.8-21.4-45.8-27.9c-19-6.4-42.8-9.7-71.4-9.7c-11.3,0-22.4,0.6-33.6,1.7
		c-11,1.1-21.5,2.4-31.5,3.9s-19.2,3.3-27.6,5.2s-15.5,3.8-21.1,5.5l12.3,77.9c11.7-4.4,25.6-7.7,41.6-10.1
		c16-2.4,32.2-3.6,48.7-3.6c24.7,0,42,4.9,52,14.9c9.9,10,14.9,23.2,14.9,39.6v9.1c-6.1-1.7-14-3.1-23.7-4.2s-20.8-1.6-33.4-1.6
		c-18.6,0-36.6,1.8-53.9,5.5s-32.7,9.7-46.1,17.9c-13.4,8.2-24.1,19.3-32.1,33.1c-8,13.9-12,30.8-12,50.7c0,20.8,3.5,38.3,10.4,52.6
		c6.9,14.2,16.9,25.8,29.9,34.7s28.4,15.3,46.4,19.2c18,3.9,38,5.8,60.1,5.8c35,0,64.9-2.1,89.6-6.2s43.9-7.7,57.8-10.7V297.4
		c0-21.2-2.3-40.5-7.1-57.8C1876,222.2,1867.8,207.5,1856.3,195.4z M1774.2,440.4c-8.7,0.4-17.8,0.6-27.3,0.6
		c-17.8,0-31.7-3-41.8-8.8c-10.2-5.8-15.3-16.3-15.3-31.5c0-7.8,1.7-14.3,5.2-19.5s8.2-9.3,14.3-12.3c6.1-3.1,13.1-5.1,21.1-6.2
		c8.1-1.1,16.6-1.6,25.7-1.6c6.5,0,13.6,0.4,21.4,1.3s13.6,1.7,17.5,2.6v73.4l0,0C1789.9,439.3,1783,440,1774.2,440.4z"/>
	<path class="st0" d="M5698.6,166.9h-266.4c0,19-0.2,40.7-0.6,64.9c-0.5,24.3-2.1,48.6-4.9,73.1s-7.6,47.6-14.3,69.5
		c-6.7,21.9-16.1,40.2-28.2,54.9H5342v176.6h82.5v-97.4h249.4v97.4h82.5V429.3h-57.8V166.9z M5483.8,429.3
		c7.8-12.6,14-26.4,18.8-41.6c4.8-15.1,8.6-30.6,11.4-46.4c2.8-15.9,4.7-31.9,5.8-48.1s2-31.9,2.9-47.1h79.2v183.2H5483.8z"/>
	<polygon class="st0" points="5019.9,246.1 5129,246.1 5129,508.5 5225.8,508.5 5225.8,246.1 5334.9,246.1 5334.9,166.9 
		5019.9,166.9 	"/>
	<path class="st0" d="M5962.4,157.8c-20.8,0-41,3.9-60.7,11.7s-37.1,19.2-52.3,34.4c-15.2,15.1-27.4,34.1-36.7,56.8
		c-9.4,22.8-14,49.3-14,79.6c0,25.1,3.6,48.5,10.6,70.2c7.1,21.7,18.2,40.4,33.1,56.2c14.9,15.8,33.8,28.2,56.5,37.3
		s49.5,13.6,80.2,13.6c12.1,0,24.3-0.6,36.4-1.9c12.1-1.3,23.5-3,34.1-4.9s20.2-4.2,28.9-6.8c8.7-2.6,15.6-5.2,20.8-7.8l-13-78.6
		c-10.8,4.8-24.8,8.8-41.9,12c-17.1,3.3-34.6,4.9-52.3,4.9c-27.7,0-49.8-5.8-66.2-17.5s-25.7-27.5-27.9-47.4h219.5
		c0.4-5.2,0.9-11.2,1.3-17.9c0.5-6.7,0.7-12.9,0.7-18.5c0-57.6-14.1-101.2-42.2-130.9S6010.9,157.8,5962.4,157.8z M5898.1,303.4
		c1.3-8.3,3.4-16.4,6.2-24.4s6.8-15,12-21.1c5.2-6,11.7-10.9,19.5-14.6s17.1-5.5,27.9-5.5c11.2,0,20.6,1.9,28.2,5.8
		c7.5,3.9,13.8,8.8,18.8,14.9c4.9,6.1,8.6,13,11,20.8c2.3,7.8,3.8,15.8,4.2,24.1H5898.1z"/>
	<path class="st0" d="M2586.9,182.2c-12.3-10.2-26.3-15.3-41.9-15.3c-15.6,0-29.6,5.1-41.9,15.3s-18.5,25-18.5,44.5
		s6.2,34.3,18.5,44.5c12.4,10.2,26.3,15.3,41.9,15.3c15.6,0,29.6-5.1,41.9-15.3s18.5-25,18.5-44.5S2599.2,192.3,2586.9,182.2z"/>
	<path class="st0" d="M6831.9,259.2c-8.7-11.3-13-26-13-44.2v-98.1c0-18.6-2.3-35.2-7.1-49.7c-4.8-14.5-12.7-26.7-23.7-36.7
		c-11.1-9.9-25.8-17.5-44.2-22.7S6702.7,0,6675.4,0h-13v77.1h16.2c19.5,0,32.6,4.3,39.3,13s10.1,22.1,10.1,40.3v86.4
		c0,22.6,3,41.6,9.1,57.2s18.2,29.1,36.4,40.3c-18.2,11.3-30.3,24.7-36.4,40.3c-6.1,15.5-9.1,34.6-9.1,57.1v86.4
		c0,18.2-3.4,31.6-10.1,40.3s-19.8,13-39.3,13h-16.2v77.3h13c27.3,0,50.1-2.6,68.5-7.8s33.2-12.8,44.2-22.7
		c11-10,18.9-22.2,23.7-36.7c4.7-14.5,7.1-31.1,7.1-49.7v-98.1c0-18.2,4.3-32.9,13-44.2c8.6-11.3,22.7-16.9,42.2-16.9v-76.5
		C6854.6,276.1,6840.6,270.5,6831.9,259.2z"/>
	<path class="st0" d="M4931.1,207.2c-14.7-15.6-32.3-27.7-52.9-36.4s-43.2-13-67.9-13c-24.2,0-46.6,4.3-67.2,13
		s-38.4,20.8-53.3,36.4c-15,15.6-26.7,34.4-35.1,56.5c-8.5,22.1-12.7,46.6-12.7,73.4s4.1,51.4,12.3,73.7
		c8.2,22.4,19.7,41.4,34.4,57.2c14.7,15.8,32.3,28,52.9,36.7c20.5,8.7,43.4,13,68.5,13c25.6,0,48.6-4.3,69.2-13
		c20.5-8.7,38.2-20.9,52.9-36.7c14.7-15.8,26-34.9,33.8-57.2s11.7-46.9,11.7-73.7c0-26.9-4.1-51.3-12.2-73.4
		C4957.4,241.6,4945.9,222.8,4931.1,207.2z M4861.1,408.2c-11.9,17.5-28.9,26.3-51,26.3s-39.2-8.8-51.3-26.3s-18.2-41.2-18.2-71.1
		s6.1-53.4,18.2-70.5s29.2-25.7,51.3-25.7s39.1,8.6,51,25.7s17.9,40.6,17.9,70.5C4879,366.9,4873.1,390.6,4861.1,408.2z"/>
	<path class="st0" d="M6253.9,205.8c0,15.2-0.1,31-0.3,47.4c-0.2,16.5-1,32.6-2.3,48.4s-3.4,30.8-6.2,45.1
		c-2.9,14.3-6.6,26.9-11.4,37.7c-6.1,12.5-15.2,22.8-27.3,30.8c-12.1,8-29.2,14.2-51.3,18.5l13,80.5c23.4-2.2,43.9-6.4,61.4-12.7
		c17.5-6.3,32.5-14.2,44.8-23.7s22.5-20.2,30.5-32.1s14.6-24.7,19.8-38.6c4.3-11.7,7.9-24.3,10.7-37.7c2.8-13.4,5.1-27.1,6.8-41.2
		c1.8-14.1,3-28.1,3.6-42.2c0.6-14,1.2-27.3,1.6-39.9h66.3v262.3h96.8V166.8h-256.5V205.8z"/>
	<path class="st0" d="M3224.2,58.5h-297.4V76c0,32.9-0.5,64.3-1.6,94.2c-1,29.8-3.9,58.9-8.4,87c-4.6,28.1-11.4,55.8-20.5,83.1
		s-21.7,54.8-37.7,82.5h-64.9v205.8h97.4V508.5h313v120.2h97.4V422.8h-77.3V58.5z M3125.6,422.8h-161.7c10.9-19.5,19.9-40.6,27-63.3
		c7.1-22.7,12.9-46.1,17.2-70.1c4.3-24.1,7.5-48.4,9.7-73.1c2.1-24.7,3.6-48.7,4.5-72.1h103.3V422.8z"/>
	<path class="st0" d="M3600,195.4c-11.5-12.1-26.8-21.4-45.8-27.9c-19-6.4-42.8-9.7-71.4-9.7c-11.3,0-22.4,0.6-33.6,1.7
		c-11,1.1-21.5,2.4-31.5,3.9s-19.2,3.3-27.6,5.2c-8.4,1.9-15.5,3.8-21.1,5.5l12.3,77.9c11.7-4.4,25.6-7.7,41.6-10.1
		c16-2.4,32.2-3.6,48.7-3.6c24.7,0,42,4.9,52,14.9c9.9,10,14.9,23.2,14.9,39.6v9.1c-6.1-1.7-14-3.1-23.7-4.2s-20.8-1.6-33.4-1.6
		c-18.6,0-36.6,1.8-53.9,5.5s-32.7,9.7-46.1,17.9c-13.4,8.2-24.1,19.3-32.1,33.1c-8,13.9-12,30.8-12,50.7c0,20.8,3.5,38.3,10.4,52.6
		c6.9,14.2,16.9,25.8,29.9,34.7s28.4,15.3,46.4,19.2c18,3.9,38,5.8,60.1,5.8c35,0,64.9-2.1,89.6-6.2c24.7-4.1,43.9-7.7,57.8-10.7
		V297.4c0-21.2-2.3-40.5-7.1-57.8C3619.6,222.2,3611.5,207.5,3600,195.4z M3517.9,440.4c-8.7,0.4-17.8,0.6-27.3,0.6
		c-17.8,0-31.8-3-41.8-8.8c-10.2-5.8-15.3-16.3-15.3-31.5c0-7.8,1.7-14.3,5.2-19.5s8.2-9.3,14.3-12.3c6.1-3.1,13.1-5.1,21.1-6.2
		c8.1-1.1,16.6-1.6,25.7-1.6c6.5,0,13.6,0.4,21.4,1.3c7.8,0.9,13.6,1.7,17.5,2.6v73.4l0,0C3533.6,439.3,3526.6,440,3517.9,440.4z"/>
	<path class="st0" d="M4300,195.4c-11.5-12.1-26.8-21.4-45.8-27.9c-19-6.4-42.8-9.7-71.4-9.7c-11.2,0-22.4,0.6-33.6,1.7
		c-11,1.1-21.5,2.4-31.5,3.9s-19.2,3.3-27.6,5.2s-15.5,3.8-21.1,5.5l12.3,77.9c11.7-4.4,25.6-7.7,41.6-10.1
		c16-2.4,32.2-3.6,48.7-3.6c24.7,0,42,4.9,52,14.9c9.9,10,14.9,23.2,14.9,39.6v9.1c-6.1-1.7-14-3.1-23.7-4.2s-20.8-1.6-33.4-1.6
		c-18.6,0-36.6,1.8-53.9,5.5s-32.7,9.7-46.1,17.9c-13.4,8.2-24.1,19.3-32.1,33.1c-8,13.9-12,30.8-12,50.7c0,20.8,3.5,38.3,10.4,52.6
		c6.9,14.2,16.9,25.8,29.9,34.7s28.4,15.3,46.4,19.2c18,3.9,38,5.8,60.1,5.8c35,0,64.9-2.1,89.6-6.2s43.9-7.7,57.8-10.7V297.4
		c0-21.2-2.3-40.5-7.1-57.8C4319.6,222.2,4311.5,207.5,4300,195.4z M4238.8,438.4L4238.8,438.4c-5.2,0.9-12.1,1.6-20.8,2
		c-8.7,0.4-17.8,0.6-27.3,0.6c-17.7,0-31.7-3-41.8-8.8c-10.2-5.8-15.3-16.3-15.3-31.5c0-7.8,1.7-14.3,5.2-19.5s8.2-9.3,14.3-12.3
		c6.1-3.1,13.1-5.1,21.1-6.2c8.1-1.1,16.6-1.6,25.7-1.6c6.5,0,13.6,0.4,21.4,1.3s13.6,1.7,17.5,2.6L4238.8,438.4L4238.8,438.4z"/>
	<polygon class="st0" points="3686.7,246.1 3795.8,246.1 3795.8,508.5 3892.6,508.5 3892.6,246.1 4001.8,246.1 4001.8,166.9 
		3686.7,166.9 	"/>
	<rect x="4400.4" y="270.8" class="st0" width="188.3" height="87.7"/>
</g>
</svg>
