<?xml version="1.0" encoding="utf-8"?>
<!-- Generator: Adobe Illustrator 23.0.6, SVG Export Plug-In . SVG Version: 6.00 Build 0)  -->
<svg version="1.1" id="l1" xmlns="http://www.w3.org/2000/svg" xmlns:xlink="http://www.w3.org/1999/xlink" x="0px" y="0px"
	 viewBox="0 0 3.12 12" style="enable-background:new 0 0 3.12 12;" xml:space="preserve">
<path id="v2" d="M1.56,0C1.58,0.06,1.59,0.12,1.6,0.17c0.1,0.38,0.19,0.76,0.27,1.14c0.05,0.24,0.1,0.48,0.14,0.72
	c0.04,0.19,0.07,0.37,0.1,0.56c0.03,0.16,0.05,0.32,0.07,0.48C2.2,3.2,2.22,3.32,2.23,3.44C2.25,3.56,2.26,3.68,2.27,3.8
	C2.28,3.87,2.29,3.95,2.3,4.03C2.3,4.12,2.31,4.21,2.32,4.31c0,0.07,0.01,0.13,0.01,0.2C2.34,4.67,2.34,4.83,2.34,5
	c0,0.2,0,0.39-0.01,0.59c0,0.11,0,0.23,0,0.34c0,0.17,0,0.35-0.01,0.52c0,0.07,0,0.13,0,0.2c0,0.16,0,0.32,0,0.48
	c0,0.15,0,0.3,0,0.45C2.3,7.84,2.3,8.1,2.3,8.35c0,0.08,0,0.16,0,0.24c0,0.01,0,0.02,0.01,0.03C2.39,8.76,2.48,8.9,2.56,9.04
	C2.7,9.27,2.84,9.49,2.98,9.72C2.99,9.74,3,9.75,3,9.77C3,9.87,3.01,9.98,3.01,10.08c0,0.07,0.01,0.14,0.01,0.21
	c0,0.09,0.01,0.18,0.02,0.27c0,0.07,0.01,0.14,0.01,0.21c0,0.09,0.01,0.18,0.02,0.27c0,0.07,0.01,0.14,0.01,0.21
	c0,0.09,0.01,0.18,0.02,0.27c0,0.04,0,0.09,0.01,0.13c0,0.06,0.01,0.12,0.01,0.19c0,0.04,0,0.09,0.01,0.13c0,0,0,0.01,0,0.02
	c-0.01,0-0.02,0-0.02,0c-0.09,0-0.19,0-0.28,0c-0.07,0-0.14,0-0.21,0c-0.01,0-0.02,0-0.03-0.01c-0.1-0.09-0.2-0.19-0.3-0.28
	c-0.01-0.01-0.03-0.02-0.04-0.02c-0.01,0-0.02,0-0.04,0c0,0.11,0,0.22,0,0.32c-0.05,0-0.09,0-0.14,0c0-0.01,0-0.02,0-0.03
	c-0.04,0-0.09,0-0.13,0c0-0.07,0-0.14,0-0.21c0.03,0,0.07-0.01,0.1-0.01c0-0.06,0-0.12,0-0.18c-0.02,0-0.03,0-0.05,0
	c0,0.01,0,0.01-0.01,0.02c-0.01,0.03-0.03,0.04-0.06,0.04c-0.19,0-0.38,0-0.57,0c-0.04,0-0.07,0-0.11,0c-0.03,0-0.05-0.01-0.06-0.04
	c0,0,0-0.01-0.01-0.02c-0.01,0-0.02,0-0.03,0c-0.01,0-0.02,0-0.03,0c0,0.06,0,0.12,0,0.18c0.03,0,0.07,0.01,0.1,0.01
	c0,0.07,0,0.14,0,0.21c-0.04,0-0.08,0-0.13,0c0,0.01,0,0.02,0,0.03c-0.05,0-0.09,0-0.14,0c0-0.11,0-0.21,0-0.32
	c-0.02,0-0.04,0-0.06,0c-0.01,0-0.01,0.01-0.02,0.01c-0.1,0.09-0.21,0.19-0.31,0.28c-0.01,0.01-0.02,0.01-0.03,0.01
	c-0.16,0-0.33,0-0.49,0c-0.01,0-0.01,0-0.02,0c0-0.01,0-0.02,0-0.03c0-0.05,0.01-0.1,0.01-0.16c0-0.06,0.01-0.12,0.01-0.18
	c0-0.07,0.01-0.14,0.01-0.2c0-0.09,0.01-0.18,0.02-0.27c0-0.07,0.01-0.14,0.01-0.21c0.01-0.09,0.01-0.18,0.02-0.28
	c0-0.07,0.01-0.14,0.01-0.2c0.01-0.09,0.01-0.19,0.02-0.28c0-0.07,0.01-0.14,0.01-0.2c0-0.07,0.01-0.14,0.01-0.22
	c0-0.01,0.01-0.02,0.01-0.03c0.15-0.24,0.29-0.47,0.44-0.71c0.08-0.13,0.16-0.27,0.25-0.4C0.82,8.61,0.82,8.6,0.82,8.59
	c0-0.03,0-0.06,0-0.09c0-0.18,0-0.37-0.01-0.55c0-0.16,0-0.33-0.01-0.49c0-0.06,0-0.11,0-0.17c0-0.19,0-0.38-0.01-0.57
	c0-0.16,0-0.31-0.01-0.47c0-0.06,0-0.11,0-0.17c0-0.19,0-0.38-0.01-0.57c0-0.14,0-0.27,0-0.41c0-0.12,0-0.25,0-0.37
	c0-0.09,0.01-0.18,0.01-0.26c0-0.05,0-0.1,0.01-0.15c0.01-0.09,0.01-0.17,0.02-0.26C0.82,4,0.83,3.95,0.83,3.9
	c0.01-0.1,0.02-0.19,0.03-0.29c0.01-0.08,0.02-0.16,0.03-0.24C0.9,3.28,0.91,3.19,0.93,3.1c0.01-0.09,0.03-0.18,0.04-0.28
	C0.99,2.7,1.01,2.58,1.03,2.46c0.02-0.13,0.04-0.25,0.07-0.38c0.03-0.18,0.07-0.35,0.1-0.53c0.04-0.2,0.08-0.4,0.13-0.6
	C1.38,0.71,1.44,0.47,1.5,0.23c0.02-0.07,0.04-0.14,0.05-0.21C1.55,0.02,1.56,0.01,1.56,0z"/>
</svg>
